<?xml version="1.0" standalone="no"?>
<!DOCTYPE svg PUBLIC "-//W3C//DTD SVG 1.1//EN" "http://www.w3.org/Graphics/SVG/1.1/DTD/svg11.dtd" >
<svg xmlns="http://www.w3.org/2000/svg" xmlns:xlink="http://www.w3.org/1999/xlink" version="1.1">
<metadata>
Created by FontForge 20190801 at Mon Jul 27 16:10:22 2020
 By Jimmy Wärting
Copyright \(c\) 2020 by Lewis MacDonald. All rights reserved.
</metadata>
<defs>
<font id="ChromaticaTrial-Black" horiz-adv-x="687" >
  <font-face 
    font-family="Chromatica Trial Black"
    font-weight="900"
    font-stretch="normal"
    units-per-em="1000"
    panose-1="0 0 10 0 0 0 0 0 0 0"
    ascent="800"
    descent="-200"
    x-height="548"
    cap-height="700"
    bbox="7 -270 1021 834"
    underline-thickness="164"
    underline-position="-100"
    stemh="164"
    stemv="174"
    unicode-range="U+0020-007A"
  />
<missing-glyph horiz-adv-x="786" 
d="M717 700v-700h-648v700h648zM249 177h288v346h-288v-346z" />
    <glyph glyph-name=".notdef" horiz-adv-x="786" 
d="M717 700v-700h-648v700h648zM249 177h288v346h-288v-346z" />
    <glyph glyph-name="space" unicode=" " horiz-adv-x="210" 
 />
    <glyph glyph-name="A" unicode="A" horiz-adv-x="815" 
d="M614 0l-59 152h-298l-59 -152h-187l285 706h221l287 -706h-190zM319 312h174l-87 224z" />
    <glyph glyph-name="B" unicode="B" horiz-adv-x="662" 
d="M506 362c78 -28 124 -89 124 -174c0 -120 -91 -188 -246 -188h-315v700h295c157 0 246 -65 246 -179c0 -74 -38 -129 -104 -159zM235 549v-130h118c51 0 82 19 82 63c0 43 -29 67 -82 67h-118zM374 151c52 0 81 24 81 67c0 41 -28 63 -81 63h-139v-130h139z" />
    <glyph glyph-name="C" unicode="C" horiz-adv-x="729" 
d="M577 449c-40 58 -104 89 -177 89c-107 0 -183 -77 -183 -187c0 -113 80 -189 185 -189c72 0 135 35 184 101l132 -119c-77 -101 -186 -154 -314 -154c-218 0 -377 154 -377 359c0 206 162 361 377 361c120 0 225 -46 296 -135z" />
    <glyph glyph-name="D" unicode="D" horiz-adv-x="724" 
d="M69 0v700h267c217 0 360 -142 360 -350s-143 -350 -360 -350h-267zM246 160h80c113 0 184 73 184 190s-71 190 -184 190h-80v-380z" />
    <glyph glyph-name="E" unicode="E" horiz-adv-x="593" 
d="M69 0v700h466v-160h-292v-104h275v-151h-275v-125h292v-160h-466z" />
    <glyph glyph-name="F" unicode="F" horiz-adv-x="563" 
d="M69 0v700h456v-170h-276v-118h259v-164h-259v-248h-180z" />
    <glyph glyph-name="G" unicode="G" horiz-adv-x="756" 
d="M412 431h306v-297c-77 -94 -186 -144 -312 -144c-224 0 -379 158 -379 359c0 206 162 361 377 361c120 0 225 -46 296 -135l-123 -126c-40 58 -104 89 -174 89c-111 0 -186 -77 -186 -187c0 -114 80 -190 185 -190c55 0 104 18 146 53v61h-136v156z" />
    <glyph glyph-name="H" unicode="H" horiz-adv-x="789" 
d="M69 0v700h183v-249h285v249h183v-700h-183v281h-285v-281h-183z" />
    <glyph glyph-name="I" unicode="I" horiz-adv-x="321" 
d="M252 700v-700h-183v700h183z" />
    <glyph glyph-name="J" unicode="J" horiz-adv-x="621" 
d="M565 700v-447c0 -162 -104 -263 -269 -263c-168 0 -277 103 -282 266l183 13c6 -77 40 -117 100 -117c56 0 85 34 85 101v447h183z" />
    <glyph glyph-name="K" unicode="K" horiz-adv-x="760" 
d="M747 0h-216l-205 310l-79 -82v-228h-178v700h178v-268l258 268h228l-275 -273z" />
    <glyph glyph-name="L" unicode="L" horiz-adv-x="561" 
d="M252 700v-530h288v-170h-471v700h183z" />
    <glyph glyph-name="M" unicode="M" horiz-adv-x="917" 
d="M624 700h224v-700h-170v482l-148 -422h-144l1 1l-148 416v-477h-170v700h224l165 -446z" />
    <glyph glyph-name="N" unicode="N" horiz-adv-x="789" 
d="M69 0v700h142l335 -411v411h174v-700h-137l-340 416v-416h-174z" />
    <glyph glyph-name="O" unicode="O" horiz-adv-x="797" 
d="M402 -10c-214 0 -375 154 -375 360s161 360 375 360c210 0 368 -154 368 -360s-158 -360 -368 -360zM402 162c107 0 178 75 178 188s-71 188 -178 188c-111 0 -185 -75 -185 -188s74 -188 185 -188z" />
    <glyph glyph-name="P" unicode="P" horiz-adv-x="654" 
d="M69 0v700h284c165 0 279 -104 279 -256c0 -153 -114 -258 -279 -258h-111v-186h-173zM242 351h95c75 0 114 31 114 92s-39 92 -114 92h-95v-184z" />
    <glyph glyph-name="Q" unicode="Q" horiz-adv-x="797" 
d="M770 350c0 -154 -88 -278 -220 -332l33 -173l-176 -28l-30 174c-201 11 -350 161 -350 359c0 206 161 360 375 360c210 0 368 -154 368 -360zM402 162c107 0 178 75 178 188s-71 188 -178 188c-111 0 -185 -75 -185 -188s74 -188 185 -188z" />
    <glyph glyph-name="R" unicode="R" horiz-adv-x="680" 
d="M655 0h-206l-143 216h-67v-216h-170v700h300c166 0 270 -95 270 -239c0 -106 -56 -181 -151 -215zM239 541v-179h106c78 0 119 31 119 90s-41 89 -119 89h-106z" />
    <glyph glyph-name="S" unicode="S" horiz-adv-x="594" 
d="M317 -10c-119 0 -229 50 -301 138l127 125c60 -66 128 -98 177 -98c41 0 65 23 65 50c0 34 -39 49 -64 57l-110 36c-108 35 -159 103 -159 197c0 128 98 215 248 215c93 0 177 -34 247 -104l-113 -126c-46 48 -93 70 -137 70c-38 0 -61 -17 -61 -42c0 -27 32 -40 56 -48
l112 -36c114 -37 165 -110 165 -210c0 -138 -100 -224 -252 -224z" />
    <glyph glyph-name="T" unicode="T" horiz-adv-x="649" 
d="M628 700v-170h-212v-530h-183v530h-212v170h607z" />
    <glyph glyph-name="U" unicode="U" horiz-adv-x="734" 
d="M367 -10c-186 0 -314 120 -314 294v416h183v-410c0 -79 51 -128 131 -128s131 49 131 128v410h183v-416c0 -174 -128 -294 -314 -294z" />
    <glyph glyph-name="V" unicode="V" horiz-adv-x="795" 
d="M584 700h200l-283 -700h-206l-284 700h203l185 -506z" />
    <glyph glyph-name="W" unicode="W" horiz-adv-x="1035" 
d="M830 700h191l-222 -700h-144l-137 415l-136 -415h-145l-223 700h193l113 -424l122 405h149l127 -406z" />
    <glyph glyph-name="X" unicode="X" horiz-adv-x="788" 
d="M14 0l274 353l-268 347h226l148 -210l148 210h226l-268 -347l274 -353h-227l-153 215l-153 -215h-227z" />
    <glyph glyph-name="Y" unicode="Y" horiz-adv-x="758" 
d="M751 700l-280 -410v-290h-183v288l-281 412h224l147 -240l149 240h224z" />
    <glyph glyph-name="Z" unicode="Z" horiz-adv-x="651" 
d="M629 700l-315 -534h286v-166h-579l315 534h-283v166h576z" />
    <glyph glyph-name="a" unicode="a" horiz-adv-x="678" 
d="M444 548h168v-548h-168v60c-38 -46 -90 -70 -156 -70c-147 0 -258 118 -258 285c0 164 108 283 257 283c67 0 119 -24 157 -70v60zM334 150c47 0 86 20 110 52v144c-24 32 -63 52 -110 52c-75 0 -126 -50 -126 -124s51 -124 126 -124z" />
    <glyph glyph-name="a.ss01" horiz-adv-x="641" 
d="M315 558c182 0 273 -81 273 -211v-347h-170v70c-42 -50 -108 -80 -187 -80c-116 0 -193 65 -193 170c0 109 83 170 244 170c41 0 94 -4 132 -12v15c0 23 0 74 -112 74c-74 0 -143 -23 -202 -67l-66 136c72 54 169 82 281 82zM287 122c54 0 101 27 127 71v26
c-31 5 -68 9 -99 9c-66 0 -100 -19 -100 -55c0 -32 27 -51 72 -51z" />
    <glyph glyph-name="b" unicode="b" 
d="M399 558c147 0 258 -118 258 -285c0 -164 -108 -283 -257 -283c-67 0 -119 24 -157 70v-60h-168v750h174v-255c37 41 88 63 150 63zM353 150c75 0 126 50 126 124s-51 124 -126 124c-47 0 -86 -20 -110 -52v-144c24 -32 63 -52 110 -52z" />
    <glyph glyph-name="c" unicode="c" horiz-adv-x="593" 
d="M325 -10c-170 0 -297 121 -297 283c0 161 125 285 298 285c95 0 179 -37 236 -110l-112 -117c-33 37 -72 61 -123 61c-71 0 -120 -48 -120 -118s49 -118 121 -118c54 0 95 27 129 70l120 -110c-61 -82 -149 -126 -252 -126z" />
    <glyph glyph-name="d" unicode="d" 
d="M438 750h174v-750h-168v60c-38 -46 -90 -70 -156 -70c-147 0 -258 118 -258 285c0 164 108 283 257 283c63 0 114 -22 151 -63v255zM334 150c47 0 86 20 110 52v144c-24 32 -63 52 -110 52c-75 0 -126 -50 -126 -124s51 -124 126 -124z" />
    <glyph glyph-name="e" unicode="e" horiz-adv-x="629" 
d="M335 145c58 0 108 23 159 76l102 -116c-69 -78 -154 -115 -258 -115c-186 0 -309 121 -309 284c0 168 118 284 288 284c165 0 279 -116 279 -282c0 -15 -1 -30 -1 -30h-392c12 -66 60 -101 132 -101zM315 426c-55 0 -93 -27 -109 -71h214c-15 44 -52 71 -105 71z" />
    <glyph glyph-name="f" unicode="f" horiz-adv-x="472" 
d="M443 538v-140h-148v-398h-174v398h-98v140h98c3 146 81 222 231 222c30 0 54 -3 76 -8l-5 -142c-13 4 -26 6 -40 6c-60 0 -88 -21 -88 -65v-13h148z" />
    <glyph glyph-name="g" unicode="g" horiz-adv-x="707" 
d="M465 548h168v-551c0 -158 -125 -267 -295 -267c-172 0 -291 105 -300 257l173 9c4 -65 55 -109 125 -109c76 0 129 45 129 110v69c-43 -45 -96 -56 -145 -56c-157 0 -271 118 -271 274c0 155 114 274 271 274c49 0 102 -11 145 -56v46zM354 167c48 0 87 19 111 49v136
c-24 30 -63 49 -111 49c-75 0 -127 -48 -127 -117s52 -117 127 -117z" />
    <glyph glyph-name="h" unicode="h" horiz-adv-x="659" 
d="M396 558c128 0 208 -88 208 -227v-331h-174v309c0 52 -33 85 -86 85c-39 0 -74 -16 -95 -44v-350h-174v750h174v-261c28 43 80 69 147 69z" />
    <glyph glyph-name="i" unicode="i" horiz-adv-x="328" 
d="M165 834c74 0 129 -52 129 -120s-55 -120 -129 -120c-75 0 -131 52 -131 120s56 120 131 120zM77 0v548h174v-548h-174z" />
    <glyph glyph-name="j" unicode="j" horiz-adv-x="393" 
d="M230 834c74 0 129 -52 129 -120s-55 -120 -129 -120c-75 0 -131 52 -131 120s56 120 131 120zM85 -183c-30 0 -54 3 -76 8l5 142c13 -4 26 -6 40 -6c60 0 88 21 88 65v522h174v-501c0 -151 -78 -230 -231 -230z" />
    <glyph glyph-name="k" unicode="k" horiz-adv-x="676" 
d="M662 0h-209l-156 238l-50 -52v-186h-172v750h174v-391l187 189h208l-214 -207z" />
    <glyph glyph-name="l" unicode="l" horiz-adv-x="324" 
d="M75 0v750h174v-750h-174z" />
    <glyph glyph-name="m" unicode="m" horiz-adv-x="984" 
d="M728 558c124 0 202 -88 202 -227v-331h-174v309c0 52 -31 85 -82 85c-37 0 -70 -16 -90 -43c1 -6 1 -13 1 -20v-331h-174v309c0 52 -31 85 -82 85c-37 0 -69 -16 -89 -42v-352h-174v548h168v-69c25 49 79 79 149 79c71 0 127 -29 162 -80c43 50 110 80 183 80z" />
    <glyph glyph-name="n" unicode="n" horiz-adv-x="648" 
d="M387 558c128 0 208 -88 208 -227v-331h-174v309c0 52 -33 85 -86 85c-39 0 -74 -16 -95 -44v-350h-174v548h168v-69c26 49 81 79 153 79z" />
    <glyph glyph-name="o" unicode="o" horiz-adv-x="644" 
d="M324 -10c-169 0 -296 122 -296 284s127 284 296 284c166 0 291 -122 291 -284s-125 -284 -291 -284zM324 154c67 0 114 49 114 120s-47 120 -114 120c-71 0 -119 -49 -119 -120s48 -120 119 -120z" />
    <glyph glyph-name="p" unicode="p" 
d="M399 558c147 0 258 -118 258 -285c0 -164 -108 -283 -257 -283c-63 0 -114 22 -151 63v-313h-174v808h168v-60c38 46 90 70 156 70zM353 150c75 0 126 50 126 124s-51 124 -126 124c-47 0 -86 -20 -110 -52v-144c24 -32 63 -52 110 -52z" />
    <glyph glyph-name="q" unicode="q" horiz-adv-x="679" 
d="M436 548h168v-808h-174v313c-37 -41 -88 -63 -150 -63c-147 0 -258 118 -258 285c0 164 108 283 257 283c67 0 119 -24 157 -70v60zM326 150c47 0 86 20 110 52v144c-24 32 -63 52 -110 52c-75 0 -126 -50 -126 -124s51 -124 126 -124z" />
    <glyph glyph-name="r" unicode="r" horiz-adv-x="478" 
d="M456 388c-103 0 -180 -21 -216 -57v-331h-174v548h168v-75c46 57 125 82 208 86z" />
    <glyph glyph-name="s" unicode="s" horiz-adv-x="509" 
d="M270 -10c-87 0 -178 33 -244 97l98 117c57 -53 108 -75 149 -75c32 0 44 15 44 32c0 23 -29 34 -43 39l-90 30c-84 28 -141 74 -141 158c0 100 84 170 214 170c80 0 152 -26 208 -79l-86 -107c-38 32 -84 52 -123 52c-30 0 -41 -12 -41 -27c0 -18 22 -27 34 -31l88 -30
c42 -14 143 -52 143 -167c0 -107 -78 -179 -210 -179z" />
    <glyph glyph-name="t" unicode="t" horiz-adv-x="532" 
d="M438 187l66 -137c-55 -41 -116 -60 -187 -60c-136 0 -211 78 -211 212v196h-82v140h82v142h172v-142h202v-140h-202v-171c0 -51 27 -75 68 -75c30 0 63 11 92 35z" />
    <glyph glyph-name="u" unicode="u" horiz-adv-x="648" 
d="M408 548h174v-548h-168v69c-26 -49 -81 -79 -153 -79c-128 0 -208 88 -208 227v331h174v-309c0 -52 33 -85 86 -85c39 0 74 16 95 44v350z" />
    <glyph glyph-name="v" unicode="v" horiz-adv-x="653" 
d="M450 548h189l-216 -548h-193l-216 548h191l122 -377z" />
    <glyph glyph-name="w" unicode="w" horiz-adv-x="900" 
d="M702 548h182l-183 -548h-141l-110 319l-110 -319h-140l-184 548h183l86 -330l95 315h139l98 -316z" />
    <glyph glyph-name="x" unicode="x" horiz-adv-x="686" 
d="M16 0l221 282l-209 266h215l100 -159l100 159h215l-209 -266l221 -282h-216l-111 172l-111 -172h-216z" />
    <glyph glyph-name="y" unicode="y" horiz-adv-x="686" 
d="M444 548h168v-551c0 -158 -121 -267 -286 -267c-167 0 -282 105 -291 257l173 9c4 -65 51 -109 116 -109c71 0 120 45 120 110v94c-29 -44 -84 -71 -151 -71c-127 0 -214 92 -214 227v301h174v-279c0 -50 35 -85 95 -85c40 0 76 16 96 43v321z" />
    <glyph glyph-name="y.ss02" horiz-adv-x="678" 
d="M480 548h187l-393 -808l-187 -1l154 315l-231 494h195l133 -307z" />
    <glyph glyph-name="z" unicode="z" horiz-adv-x="572" 
d="M541 548l-243 -398h230v-150h-502l243 398h-217v150h489z" />
    <glyph glyph-name="zero" unicode="0" horiz-adv-x="685" 
d="M344 -10c-186 0 -304 135 -304 360s118 360 304 360c188 0 301 -139 301 -360s-113 -360 -301 -360zM345 154c75 0 115 71 115 196s-40 196 -115 196c-78 0 -120 -71 -120 -196s42 -196 120 -196z" />
    <glyph glyph-name="one" unicode="1" horiz-adv-x="440" 
d="M362 700v-700h-183v540h-151v160h334z" />
    <glyph glyph-name="two" unicode="2" horiz-adv-x="612" 
d="M453 269l-97 -109h202v-160h-529l297 361c17 21 50 61 50 110c0 44 -27 71 -70 71c-48 0 -81 -38 -87 -99l-185 15c0 149 109 252 273 252c148 0 256 -84 256 -210c0 -106 -76 -193 -110 -231z" />
    <glyph glyph-name="three" unicode="3" horiz-adv-x="622" 
d="M467 362c72 -34 115 -93 115 -168c0 -119 -109 -204 -263 -204c-164 0 -283 96 -286 239l180 13c8 -54 44 -90 100 -90c46 0 84 26 84 69c0 40 -31 63 -84 63h-54v154h51c48 0 73 20 73 55s-31 59 -74 59c-49 0 -85 -32 -92 -83l-177 13c2 135 116 228 273 228
c144 0 253 -79 253 -194c0 -68 -37 -121 -99 -154z" />
    <glyph glyph-name="four" unicode="4" horiz-adv-x="712" 
d="M684 372v-150h-157v-222h-175v222h-313l60 478h176l-46 -328h123v218h175v-218h157z" />
    <glyph glyph-name="five" unicode="5" horiz-adv-x="621" 
d="M358 470c132 0 223 -93 223 -229c0 -149 -111 -251 -272 -251c-153 0 -266 90 -269 227l181 12c6 -50 41 -81 91 -81c53 0 87 34 87 87s-34 87 -89 87c-36 0 -71 -18 -96 -49l-152 40l38 387h441v-158h-302l-15 -116c33 28 79 44 134 44z" />
    <glyph glyph-name="six" unicode="6" horiz-adv-x="611" 
d="M353 474c131 0 228 -92 228 -231c0 -150 -114 -253 -279 -253c-161 0 -271 100 -271 240c0 103 59 193 97 252l141 218h204l-162 -229c14 2 28 3 42 3zM302 148c58 0 95 38 95 98s-37 97 -95 97c-57 0 -93 -37 -93 -97s36 -98 93 -98z" />
    <glyph glyph-name="seven" unicode="7" horiz-adv-x="584" 
d="M564 700l-260 -700h-189l202 540h-289v160h536z" />
    <glyph glyph-name="eight" unicode="8" horiz-adv-x="632" 
d="M489 356c64 -34 102 -90 102 -158c0 -122 -114 -208 -275 -208c-162 0 -276 85 -276 206c0 69 39 125 103 160c-54 35 -85 88 -85 153c0 118 104 201 258 201c153 0 259 -83 259 -203c0 -64 -32 -116 -86 -151zM317 565c-50 0 -86 -27 -86 -73c0 -45 36 -75 86 -75
s85 30 85 75c0 46 -35 73 -85 73zM316 137c53 0 90 32 90 80s-37 77 -90 77s-91 -29 -91 -77s38 -80 91 -80z" />
    <glyph glyph-name="nine" unicode="9" horiz-adv-x="611" 
d="M309 710c161 0 271 -100 271 -240c0 -103 -59 -193 -97 -252l-141 -218h-204l162 229c-14 -2 -28 -3 -42 -3c-131 0 -228 92 -228 231c0 150 114 253 279 253zM214 454c0 -60 37 -97 95 -97c57 0 93 37 93 97s-36 98 -93 98c-58 0 -95 -38 -95 -98z" />
    <glyph glyph-name="period" unicode="." horiz-adv-x="335" 
d="M168 230c74 0 129 -52 129 -120s-55 -120 -129 -120c-75 0 -131 52 -131 120s56 120 131 120z" />
    <glyph glyph-name="comma" unicode="," horiz-adv-x="339" 
d="M167 230c81 0 136 -58 136 -149c0 -73 -32 -148 -163 -274l-90 79c46 45 77 83 98 118c-55 -2 -112 43 -112 110s56 116 131 116z" />
    <glyph glyph-name="exclam" unicode="!" horiz-adv-x="351" 
d="M266 700l-1 -424h-180l-1 424h182zM176 230c74 0 129 -52 129 -120s-55 -120 -129 -120c-75 0 -131 52 -131 120s56 120 131 120z" />
    <glyph glyph-name="question" unicode="?" horiz-adv-x="553" 
d="M281 710c150 0 248 -72 248 -183c0 -89 -62 -152 -166 -184l-2 -66h-180v164c104 -1 158 15 158 59c0 31 -27 48 -73 48c-42 0 -92 -21 -137 -63l-115 117c57 66 151 108 267 108zM268 230c74 0 129 -52 129 -120s-55 -120 -129 -120c-75 0 -131 52 -131 120
s56 120 131 120z" />
    <glyph glyph-name="hyphen" unicode="-" horiz-adv-x="494" 
d="M444 439v-160h-394v160h394z" />
  </font>
</defs>
</svg>
