<?xml version="1.0" standalone="no"?>
<!DOCTYPE svg PUBLIC "-//W3C//DTD SVG 1.1//EN" "http://www.w3.org/Graphics/SVG/1.1/DTD/svg11.dtd" >
<svg xmlns="http://www.w3.org/2000/svg" xmlns:xlink="http://www.w3.org/1999/xlink" version="1.1">
<metadata>
Created by FontForge 20190801 at Mon Jul 27 16:10:22 2020
 By Jimmy Wärting
Copyright \(c\) 2020 by Lewis MacDonald. All rights reserved.
</metadata>
<defs>
<font id="ChromaticaTrial-Bold" horiz-adv-x="675" >
  <font-face 
    font-family="Chromatica Trial"
    font-weight="700"
    font-stretch="normal"
    units-per-em="1000"
    panose-1="0 0 8 0 0 0 0 0 0 0"
    ascent="800"
    descent="-200"
    x-height="530"
    cap-height="700"
    bbox="-15 -270 981 806"
    underline-thickness="164"
    underline-position="-100"
    stemh="135"
    stemv="142"
    unicode-range="U+0020-007A"
  />
<missing-glyph horiz-adv-x="772" 
d="M694 700v-700h-616v700h616zM225 145h322v410h-322v-410z" />
    <glyph glyph-name=".notdef" horiz-adv-x="772" 
d="M694 700v-700h-616v700h616zM225 145h322v410h-322v-410z" />
    <glyph glyph-name="space" unicode=" " horiz-adv-x="221" 
 />
    <glyph glyph-name="A" unicode="A" horiz-adv-x="796" 
d="M622 0l-69 174h-313l-69 -174h-153l290 706h179l291 -706h-156zM293 306h207l-103 260z" />
    <glyph glyph-name="B" unicode="B" horiz-adv-x="649" 
d="M484 363c80 -27 126 -89 126 -175c0 -119 -88 -188 -236 -188h-296v700h276c148 0 233 -66 233 -178c0 -74 -38 -130 -103 -159zM214 575v-165h132c61 0 98 28 98 82c0 52 -36 83 -98 83h-132zM366 125c63 0 101 32 101 87c0 53 -37 84 -101 84h-152v-171h152z" />
    <glyph glyph-name="C" unicode="C" horiz-adv-x="732" 
d="M596 477c-44 59 -113 92 -192 92c-124 0 -214 -91 -214 -218c0 -130 93 -220 216 -220c79 0 149 37 200 105l108 -97c-75 -97 -182 -149 -307 -149c-214 0 -372 154 -372 359c0 206 160 361 372 361c117 0 220 -45 289 -130z" />
    <glyph glyph-name="D" unicode="D" horiz-adv-x="723" 
d="M78 0v700h253c213 0 357 -144 357 -350s-144 -350 -357 -350h-253zM223 132h102c126 0 211 87 211 218s-85 218 -211 218h-102v-436z" />
    <glyph glyph-name="E" unicode="E" horiz-adv-x="576" 
d="M78 0v700h439v-132h-297v-144h282v-124h-282v-168h297v-132h-439z" />
    <glyph glyph-name="F" unicode="F" horiz-adv-x="550" 
d="M78 0v700h431v-139h-284v-158h269v-135h-269v-268h-147z" />
    <glyph glyph-name="G" unicode="G" horiz-adv-x="759" 
d="M423 421h291v-290c-75 -91 -182 -141 -305 -141c-219 0 -374 158 -374 359c0 206 160 361 372 361c117 0 220 -45 289 -130l-100 -103c-44 59 -113 92 -190 92c-127 0 -216 -91 -216 -218c0 -130 93 -221 216 -221c64 0 121 23 168 64v98h-151v129z" />
    <glyph glyph-name="H" unicode="H" horiz-adv-x="775" 
d="M78 0v700h149v-264h320v264h150v-700h-150v296h-320v-296h-149z" />
    <glyph glyph-name="I" unicode="I" horiz-adv-x="305" 
d="M227 700v-700h-149v700h149z" />
    <glyph glyph-name="J" unicode="J" horiz-adv-x="608" 
d="M543 700v-455c0 -156 -100 -255 -256 -255c-158 0 -262 100 -266 256l149 11c5 -85 48 -134 118 -134c67 0 106 44 106 122v455h149z" />
    <glyph glyph-name="K" unicode="K" horiz-adv-x="727" 
d="M706 0h-176l-221 334l-86 -87v-247h-145v700h145v-285l281 285h188l-275 -270z" />
    <glyph glyph-name="L" unicode="L" horiz-adv-x="546" 
d="M227 700v-561h294v-139h-443v700h149z" />
    <glyph glyph-name="M" unicode="M" horiz-adv-x="899" 
d="M638 700h183v-700h-139v521l-173 -461h-120l1 1l-173 456v-517h-139v700h182l189 -486z" />
    <glyph glyph-name="N" unicode="N" horiz-adv-x="778" 
d="M78 0v700h117l362 -462v462h143v-700h-113l-367 466v-466h-142z" />
    <glyph glyph-name="O" unicode="O" horiz-adv-x="807" 
d="M406 -10c-212 0 -371 154 -371 360s159 360 371 360c209 0 366 -154 366 -360s-157 -360 -366 -360zM406 131c125 0 212 89 212 219s-87 219 -212 219c-128 0 -216 -89 -216 -219s88 -219 216 -219z" />
    <glyph glyph-name="P" unicode="P" horiz-adv-x="640" 
d="M78 0v700h270c157 0 263 -97 263 -243s-106 -244 -263 -244h-129v-213h-141zM219 348h117c82 0 127 38 127 109c0 70 -45 108 -127 108h-117v-217z" />
    <glyph glyph-name="Q" unicode="Q" horiz-adv-x="807" 
d="M772 350c0 -161 -96 -290 -238 -339l32 -168l-144 -23l-29 170c-206 6 -358 158 -358 360c0 206 159 360 371 360c209 0 366 -154 366 -360zM406 131c125 0 212 89 212 219s-87 219 -212 219c-128 0 -216 -89 -216 -219s88 -219 216 -219z" />
    <glyph glyph-name="R" unicode="R" horiz-adv-x="665" 
d="M632 0h-169l-155 236h-91v-236h-139v700h284c158 0 256 -90 256 -229c0 -109 -59 -184 -159 -213zM217 569v-212h127c85 0 131 37 131 107c0 69 -46 105 -131 105h-127z" />
    <glyph glyph-name="S" unicode="S" horiz-adv-x="576" 
d="M303 -10c-112 0 -214 47 -279 130l104 102c55 -64 122 -97 177 -97s89 32 89 72c0 46 -46 66 -72 76l-115 45c-91 31 -149 94 -149 189c0 121 92 203 232 203c89 0 167 -33 233 -101l-93 -103c-45 50 -94 72 -141 72c-50 0 -81 -25 -81 -61c0 -38 38 -56 66 -67l115 -44
c98 -34 155 -101 155 -201c0 -131 -96 -215 -241 -215z" />
    <glyph glyph-name="T" unicode="T" horiz-adv-x="620" 
d="M595 700v-139h-210v-561h-149v561h-211v139h570z" />
    <glyph glyph-name="U" unicode="U" horiz-adv-x="732" 
d="M366 -10c-182 0 -304 116 -304 289v421h149v-416c0 -94 61 -153 155 -153c95 0 155 59 155 153v416h149v-421c0 -172 -122 -289 -304 -289z" />
    <glyph glyph-name="V" unicode="V" horiz-adv-x="766" 
d="M584 700h163l-281 -700h-166l-281 700h165l200 -538z" />
    <glyph glyph-name="W" unicode="W" horiz-adv-x="1003" 
d="M825 700h156l-213 -700h-118l-148 457l-148 -457h-118l-214 700h157l125 -470l136 446h122l140 -447z" />
    <glyph glyph-name="X" unicode="X" horiz-adv-x="750" 
d="M22 0l267 353l-261 347h184l163 -234l164 234h184l-261 -347l266 -353h-185l-168 240l-168 -240h-185z" />
    <glyph glyph-name="Y" unicode="Y" horiz-adv-x="719" 
d="M705 700l-270 -399v-301h-150v300l-271 400h183l162 -259l163 259h183z" />
    <glyph glyph-name="Z" unicode="Z" horiz-adv-x="626" 
d="M595 700l-329 -564h309v-136h-547l328 564h-301v136h540z" />
    <glyph glyph-name="a" unicode="a" horiz-adv-x="666" 
d="M454 530h138v-530h-138v64c-39 -48 -93 -74 -162 -74c-145 0 -254 115 -254 275c0 159 107 275 254 275c68 0 123 -25 162 -74v64zM328 122c54 0 100 24 126 63v160c-26 39 -72 63 -126 63c-85 0 -145 -59 -145 -143c0 -85 60 -143 145 -143z" />
    <glyph glyph-name="a.ss01" horiz-adv-x="622" 
d="M305 540c168 0 255 -78 255 -204v-336h-139v82c-40 -57 -108 -92 -189 -92c-112 0 -187 67 -187 171c0 110 82 172 238 172c43 0 97 -5 135 -13v5c0 42 -14 95 -122 95c-74 0 -141 -25 -196 -74l-58 105c66 58 157 89 263 89zM276 105c62 0 115 34 142 85v41
c-33 6 -75 11 -109 11c-78 0 -119 -26 -119 -71c0 -41 33 -66 86 -66z" />
    <glyph glyph-name="b" unicode="b" 
d="M383 540c145 0 255 -115 255 -275c0 -159 -108 -275 -254 -275c-69 0 -124 26 -163 75v-65h-138v750h143v-279c38 45 91 69 157 69zM347 122c85 0 145 59 145 143c0 85 -60 143 -145 143c-54 0 -100 -24 -126 -63v-160c26 -39 72 -63 126 -63z" />
    <glyph glyph-name="c" unicode="c" horiz-adv-x="583" 
d="M322 -10c-164 0 -286 118 -286 274s121 276 287 276c90 0 170 -35 224 -102l-90 -96c-35 39 -79 63 -134 63c-84 0 -142 -58 -142 -140s58 -140 143 -140c59 0 105 28 139 72l98 -89c-57 -76 -141 -118 -239 -118z" />
    <glyph glyph-name="d" unicode="d" 
d="M450 750h142v-750h-138v64c-39 -48 -93 -74 -162 -74c-145 0 -254 115 -254 275c0 159 107 275 254 275c66 0 119 -24 158 -69v279zM328 122c54 0 100 24 126 63v160c-26 39 -72 63 -126 63c-85 0 -145 -59 -145 -143c0 -85 60 -143 145 -143z" />
    <glyph glyph-name="e" unicode="e" horiz-adv-x="620" 
d="M581 267c0 -11 -1 -23 -1 -23h-401c11 -78 67 -124 150 -124c60 0 113 25 164 79l86 -97c-67 -76 -150 -112 -247 -112c-177 0 -295 117 -295 277c0 158 113 273 277 273c157 0 267 -111 267 -273zM312 430c-62 0 -108 -31 -127 -83h248c-17 52 -60 83 -121 83z" />
    <glyph glyph-name="f" unicode="f" horiz-adv-x="453" 
d="M420 522v-116h-153v-406h-143v406h-96v116h96v24c0 140 73 214 210 214c33 0 59 -5 83 -15l-8 -117c-16 9 -33 13 -51 13c-60 0 -91 -26 -91 -78v-41h153z" />
    <glyph glyph-name="g" unicode="g" horiz-adv-x="693" 
d="M473 530h137v-545c0 -151 -116 -255 -277 -255c-160 0 -273 99 -283 243l141 9c6 -73 64 -123 141 -123c83 0 141 51 141 127v85c-44 -48 -100 -63 -154 -63c-153 0 -265 115 -265 266s112 266 265 266c55 0 110 -15 154 -63v53zM345 137c55 0 101 24 128 61v152
c-27 37 -73 61 -128 61c-85 0 -146 -57 -146 -137s61 -137 146 -137z" />
    <glyph glyph-name="h" unicode="h" horiz-adv-x="649" 
d="M381 540c126 0 205 -85 205 -220v-320h-142v302c0 63 -40 103 -103 103c-47 0 -91 -21 -115 -57v-348h-143v750h143v-287c30 50 87 77 155 77z" />
    <glyph glyph-name="i" unicode="i" horiz-adv-x="308" 
d="M155 806c62 0 108 -44 108 -102c0 -57 -46 -101 -108 -101c-63 0 -110 44 -110 101c0 58 47 102 110 102zM83 0v530h142v-530h-142z" />
    <glyph glyph-name="j" unicode="j" horiz-adv-x="360" 
d="M207 806c62 0 108 -44 108 -102c0 -57 -46 -101 -108 -101c-63 0 -110 44 -110 101c0 58 47 102 110 102zM67 -189c-32 0 -58 5 -82 15l8 116c16 -8 32 -12 50 -12c61 0 92 25 92 78v522h143v-506c0 -140 -74 -213 -211 -213z" />
    <glyph glyph-name="k" unicode="k" horiz-adv-x="644" 
d="M623 0h-171l-163 246l-65 -67v-179h-141v750h143v-427l205 207h172l-205 -199z" />
    <glyph glyph-name="l" unicode="l" horiz-adv-x="309" 
d="M83 0v750h143v-750h-143z" />
    <glyph glyph-name="m" unicode="m" horiz-adv-x="969" 
d="M710 540c121 0 196 -84 196 -217v-323h-142v305c0 62 -36 100 -96 100c-45 0 -84 -20 -106 -53c1 -9 1 -19 1 -29v-323h-143v305c0 62 -36 100 -95 100c-46 0 -86 -21 -108 -56v-349h-143v530h138v-74c26 53 82 84 155 84c71 0 127 -30 160 -81c43 50 109 81 183 81z" />
    <glyph glyph-name="n" unicode="n" horiz-adv-x="638" 
d="M372 540c126 0 205 -85 205 -220v-320h-142v302c0 63 -40 103 -103 103c-47 0 -91 -21 -115 -57v-348h-143v530h138v-75c28 54 88 85 160 85z" />
    <glyph glyph-name="o" unicode="o" horiz-adv-x="638" 
d="M320 -10c-162 0 -284 118 -284 275s122 275 284 275c160 0 281 -118 281 -275s-121 -275 -281 -275zM320 125c79 0 136 58 136 140s-57 140 -136 140c-82 0 -139 -58 -139 -140s57 -140 139 -140z" />
    <glyph glyph-name="p" unicode="p" 
d="M383 540c145 0 254 -115 254 -275c0 -159 -107 -275 -254 -275c-65 0 -118 23 -157 68v-318h-143v790h138v-64c39 48 93 74 162 74zM347 122c85 0 145 59 145 143c0 85 -60 143 -145 143c-54 0 -100 -24 -126 -63v-160c26 -39 72 -63 126 -63z" />
    <glyph glyph-name="q" unicode="q" horiz-adv-x="669" 
d="M448 530h138v-790h-143v318c-39 -44 -91 -68 -157 -68c-145 0 -254 115 -254 275c0 159 107 275 254 275c68 0 123 -25 162 -74v64zM322 122c54 0 100 24 126 63v160c-26 39 -72 63 -126 63c-85 0 -145 -59 -145 -143c0 -85 60 -143 145 -143z" />
    <glyph glyph-name="r" unicode="r" horiz-adv-x="455" 
d="M428 401c-99 -2 -175 -28 -211 -71v-330h-143v530h138v-81c44 59 123 88 204 92z" />
    <glyph glyph-name="s" unicode="s" horiz-adv-x="491" 
d="M258 -10c-83 0 -168 34 -225 95l83 95c50 -52 100 -75 144 -75c40 0 60 21 60 48s-28 43 -51 51l-84 28c-82 27 -134 72 -134 150c0 93 78 158 195 158c75 0 142 -26 193 -76l-72 -89c-36 33 -82 54 -121 54c-36 0 -54 -18 -54 -40c0 -23 23 -37 46 -45l82 -28
c48 -15 134 -55 134 -157c0 -101 -75 -169 -196 -169z" />
    <glyph glyph-name="t" unicode="t" horiz-adv-x="521" 
d="M430 165l57 -111c-51 -44 -109 -64 -176 -64c-124 0 -195 73 -195 200v216h-88v116h88v150h141v-150h208v-116h-208v-197c0 -58 30 -86 76 -86c33 0 67 13 97 42z" />
    <glyph glyph-name="u" unicode="u" horiz-adv-x="638" 
d="M421 530h143v-530h-138v75c-28 -54 -88 -85 -160 -85c-126 0 -205 85 -205 220v320h142v-302c0 -63 40 -103 103 -103c47 0 91 21 115 57v348z" />
    <glyph glyph-name="v" unicode="v" horiz-adv-x="629" 
d="M453 530h154l-214 -530h-157l-214 530h156l137 -394z" />
    <glyph glyph-name="w" unicode="w" horiz-adv-x="865" 
d="M691 530h149l-172 -530h-118l-117 339l-118 -339h-118l-172 530h150l93 -353l106 339h116l108 -339z" />
    <glyph glyph-name="x" unicode="x" horiz-adv-x="647" 
d="M24 0l213 274l-200 256h176l110 -167l111 167h176l-200 -256l213 -274h-177l-123 183l-123 -183h-176z" />
    <glyph glyph-name="y" unicode="y" horiz-adv-x="672" 
d="M452 530h137v-545c0 -151 -112 -255 -268 -255s-264 99 -274 243l141 9c6 -72 58 -123 132 -123c78 0 132 51 132 127v109c-31 -49 -90 -77 -159 -77c-122 0 -209 85 -209 220v292h142v-274c0 -65 44 -104 109 -104c50 0 94 22 117 58v320z" />
    <glyph glyph-name="y.ss02" horiz-adv-x="649" 
d="M477 530h154l-391 -790l-153 -1l157 316l-226 475h159l146 -324z" />
    <glyph glyph-name="z" unicode="z" horiz-adv-x="553" 
d="M515 530l-256 -406h247v-124h-473l256 406h-234v124h460z" />
    <glyph glyph-name="zero" unicode="0" horiz-adv-x="678" 
d="M340 -10c-178 0 -290 136 -290 360s112 360 290 360c180 0 289 -139 289 -360s-109 -360 -289 -360zM341 125c87 0 137 83 137 225s-50 225 -137 225c-90 0 -141 -83 -141 -225s51 -225 141 -225z" />
    <glyph glyph-name="one" unicode="1" horiz-adv-x="428" 
d="M340 700v-700h-149v569h-158v131h307z" />
    <glyph glyph-name="two" unicode="2" horiz-adv-x="601" 
d="M306 132h236l1 -132h-507l300 359c25 31 55 73 55 124c0 54 -35 89 -89 89c-61 0 -101 -48 -106 -119l-150 12c0 145 102 245 257 245c139 0 241 -82 241 -205c0 -98 -66 -178 -105 -222z" />
    <glyph glyph-name="three" unicode="3" horiz-adv-x="612" 
d="M444 362c75 -33 118 -92 118 -169c0 -119 -104 -203 -251 -203c-156 0 -267 94 -269 234l147 10c6 -67 50 -111 117 -111c59 0 105 35 105 90c0 54 -39 85 -106 85h-52v127h50c61 0 94 27 94 75c0 47 -39 80 -94 80c-61 0 -104 -40 -109 -103l-144 11
c1 132 107 222 256 222c138 0 240 -79 240 -192c0 -70 -37 -124 -102 -156z" />
    <glyph glyph-name="four" unicode="4" horiz-adv-x="694" 
d="M661 360v-124h-170v-236h-143v236h-304l73 464h144l-57 -340h144v222h143v-222h170z" />
    <glyph glyph-name="five" unicode="5" horiz-adv-x="616" 
d="M345 462c132 0 224 -92 224 -227c0 -145 -107 -245 -262 -245c-147 0 -256 90 -258 225l148 11c4 -65 50 -106 113 -106c66 0 110 44 110 110s-44 110 -112 110c-40 0 -82 -18 -112 -50l-124 36l35 374h420v-130h-304l-18 -156c34 30 83 48 140 48z" />
    <glyph glyph-name="six" unicode="6" horiz-adv-x="602" 
d="M339 464c129 0 225 -92 225 -229c0 -144 -109 -245 -266 -245c-153 0 -259 98 -259 234c0 92 49 174 89 236l156 240h166l-168 -242c18 4 37 6 57 6zM298 120c69 0 116 47 116 118c0 70 -46 117 -115 117s-115 -47 -115 -118c0 -70 46 -117 114 -117z" />
    <glyph glyph-name="seven" unicode="7" horiz-adv-x="576" 
d="M547 700l-258 -700h-154l211 568h-313v132h514z" />
    <glyph glyph-name="eight" unicode="8" horiz-adv-x="626" 
d="M469 359c67 -34 108 -91 108 -163c0 -120 -110 -206 -264 -206s-264 85 -264 204c0 72 41 130 109 165c-57 34 -91 88 -91 155c0 114 100 196 246 196c145 0 247 -82 247 -198c0 -65 -34 -120 -91 -153zM314 590c-61 0 -105 -35 -105 -90c0 -53 44 -91 105 -91
s104 38 104 91c0 55 -43 90 -104 90zM313 112c66 0 113 40 113 98s-47 97 -113 97s-113 -39 -113 -97s47 -98 113 -98z" />
    <glyph glyph-name="nine" unicode="9" horiz-adv-x="602" 
d="M304 710c153 0 259 -98 259 -234c0 -92 -49 -174 -89 -236l-155 -240h-167l168 242c-18 -4 -37 -6 -56 -6c-130 0 -226 92 -226 229c0 144 110 245 266 245zM188 462c0 -70 47 -117 116 -117c68 0 114 47 114 118c0 70 -45 117 -114 117s-116 -47 -116 -118z" />
    <glyph glyph-name="period" unicode="." horiz-adv-x="312" 
d="M156 192c62 0 108 -43 108 -101c0 -57 -46 -101 -108 -101c-63 0 -109 44 -109 101c0 58 46 101 109 101z" />
    <glyph glyph-name="comma" unicode="," horiz-adv-x="319" 
d="M159 192c67 0 114 -48 114 -126c0 -65 -31 -134 -141 -241l-74 66c42 42 71 78 88 112c-47 -4 -97 33 -97 92c0 56 47 97 110 97z" />
    <glyph glyph-name="exclam" unicode="!" horiz-adv-x="334" 
d="M241 700l-1 -428h-147l-1 428h149zM168 192c62 0 108 -43 108 -101c0 -57 -46 -101 -108 -101c-63 0 -110 44 -110 101c0 58 47 101 110 101z" />
    <glyph glyph-name="question" unicode="?" horiz-adv-x="520" 
d="M262 710c136 0 226 -68 226 -173c0 -86 -60 -147 -160 -177l-2 -87h-147v168c99 1 154 26 154 76c0 37 -32 60 -83 60c-44 0 -92 -21 -133 -62l-95 96c51 61 136 99 240 99zM250 192c62 0 108 -43 108 -101c0 -57 -46 -101 -108 -101c-63 0 -110 44 -110 101
c0 58 47 101 110 101z" />
    <glyph glyph-name="hyphen" unicode="-" horiz-adv-x="479" 
d="M424 410v-131h-368v131h368z" />
  </font>
</defs>
</svg>
