<?xml version="1.0" standalone="no"?>
<!DOCTYPE svg PUBLIC "-//W3C//DTD SVG 1.1//EN" "http://www.w3.org/Graphics/SVG/1.1/DTD/svg11.dtd" >
<svg xmlns="http://www.w3.org/2000/svg" xmlns:xlink="http://www.w3.org/1999/xlink" version="1.1">
<metadata>
Created by FontForge 20190801 at Mon Jul 27 16:10:21 2020
 By Jimmy Wärting
Copyright \(c\) 2020 by Lewis MacDonald. All rights reserved.
</metadata>
<defs>
<font id="ChromaticaTrial-Medium" horiz-adv-x="662" >
  <font-face 
    font-family="Chromatica Trial Medium"
    font-weight="500"
    font-stretch="normal"
    units-per-em="1000"
    panose-1="0 0 6 0 0 0 0 0 0 0"
    ascent="800"
    descent="-200"
    x-height="510"
    cap-height="700"
    bbox="-43 -270 936 774"
    underline-thickness="164"
    underline-position="-100"
    stemh="102"
    stemv="107"
    unicode-range="U+0020-007A"
  />
<missing-glyph horiz-adv-x="757" 
d="M669 700v-700h-581v700h581zM198 108h361v484h-361v-484z" />
    <glyph glyph-name=".notdef" horiz-adv-x="757" 
d="M669 700v-700h-581v700h581zM198 108h361v484h-361v-484z" />
    <glyph glyph-name="space" unicode=" " horiz-adv-x="234" 
 />
    <glyph glyph-name="A" unicode="A" horiz-adv-x="774" 
d="M631 0l-81 199h-328l-81 -199h-115l295 706h131l296 -706h-117zM263 298h246l-123 301z" />
    <glyph glyph-name="B" unicode="B" horiz-adv-x="635" 
d="M459 365c81 -26 129 -89 129 -177c0 -118 -86 -188 -226 -188h-274v700h255c138 0 219 -66 219 -177c0 -75 -38 -130 -103 -158zM191 605v-205h147c71 0 116 37 116 102c0 64 -44 103 -116 103h-147zM357 95c76 0 123 42 123 109s-47 108 -123 108h-166v-217h166z" />
    <glyph glyph-name="C" unicode="C" horiz-adv-x="736" 
d="M618 507c-49 62 -124 97 -209 97c-144 0 -250 -107 -250 -253c0 -148 108 -255 251 -255c88 0 165 40 218 111l81 -74c-71 -91 -176 -143 -298 -143c-211 0 -367 155 -367 359c0 206 158 361 367 361c114 0 213 -45 281 -124z" />
    <glyph glyph-name="D" unicode="D" horiz-adv-x="722" 
d="M88 0v700h238c207 0 352 -146 352 -350s-145 -350 -352 -350h-238zM196 100h128c141 0 241 103 241 250s-100 250 -241 250h-128v-500z" />
    <glyph glyph-name="E" unicode="E" horiz-adv-x="558" 
d="M88 0v700h409v-100h-302v-189h289v-95h-289v-216h302v-100h-409z" />
    <glyph glyph-name="F" unicode="F" horiz-adv-x="535" 
d="M88 0v700h404v-105h-294v-202h281v-102h-281v-291h-110z" />
    <glyph glyph-name="G" unicode="G" horiz-adv-x="763" 
d="M436 409h273v-281c-71 -88 -176 -138 -297 -138c-214 0 -368 157 -368 359c0 206 158 361 367 361c114 0 213 -45 281 -124l-74 -79c-49 62 -124 97 -208 97c-146 0 -251 -107 -251 -253c0 -149 108 -256 251 -256c76 0 143 29 194 79v137h-168v98z" />
    <glyph glyph-name="H" unicode="H" horiz-adv-x="759" 
d="M88 0v700h111v-281h360v281h112v-700h-112v314h-360v-314h-111z" />
    <glyph glyph-name="I" unicode="I" horiz-adv-x="287" 
d="M199 700v-700h-111v700h111z" />
    <glyph glyph-name="J" unicode="J" horiz-adv-x="594" 
d="M519 700v-464c0 -149 -96 -246 -241 -246c-148 0 -245 97 -249 245l112 8c4 -94 56 -152 137 -152c80 0 130 55 130 145v464h111z" />
    <glyph glyph-name="K" unicode="K" horiz-adv-x="689" 
d="M661 0h-132l-238 362l-94 -93v-269h-109v700h109v-304l307 304h142l-274 -266z" />
    <glyph glyph-name="L" unicode="L" horiz-adv-x="529" 
d="M199 700v-595h300v-105h-411v700h111z" />
    <glyph glyph-name="M" unicode="M" horiz-adv-x="878" 
d="M654 700h137v-700h-105v560l-200 -500h-93l-200 496v-556h-105v700h136l215 -527z" />
    <glyph glyph-name="N" unicode="N" horiz-adv-x="765" 
d="M88 0v700h89l393 -519v519h107v-700h-85l-397 522v-522h-107z" />
    <glyph glyph-name="O" unicode="O" horiz-adv-x="819" 
d="M411 -10c-209 0 -367 154 -367 360s158 360 367 360c208 0 364 -154 364 -360s-156 -360 -364 -360zM411 96c145 0 249 106 249 254s-104 254 -249 254c-147 0 -252 -106 -252 -254s105 -254 252 -254z" />
    <glyph glyph-name="P" unicode="P" horiz-adv-x="624" 
d="M88 0v700h254c148 0 245 -90 245 -228s-97 -229 -245 -229h-148v-243h-106zM194 346h140c92 0 142 44 142 126s-50 126 -142 126h-140v-252z" />
    <glyph glyph-name="Q" unicode="Q" horiz-adv-x="819" 
d="M775 350c0 -169 -105 -304 -259 -346l31 -164l-108 -17l-29 167c-209 1 -366 154 -366 360s158 360 367 360c208 0 364 -154 364 -360zM411 96c145 0 249 106 249 254s-104 254 -249 254c-147 0 -252 -106 -252 -254s105 -254 252 -254z" />
    <glyph glyph-name="R" unicode="R" horiz-adv-x="649" 
d="M606 0h-127l-169 259h-117v-259h-105v700h267c147 0 239 -85 239 -219c0 -111 -63 -186 -168 -209zM193 601v-250h149c93 0 145 44 145 126c0 80 -52 124 -145 124h-149z" />
    <glyph glyph-name="S" unicode="S" horiz-adv-x="556" 
d="M287 -10c-104 0 -197 44 -255 122l80 75c49 -62 115 -95 177 -95c69 0 114 42 114 97c0 59 -53 85 -81 97l-119 54c-73 28 -139 84 -139 181c0 112 86 189 215 189c84 0 156 -32 218 -97l-71 -77c-45 51 -95 74 -147 74c-62 0 -103 -34 -103 -83c0 -50 46 -74 78 -89
l119 -53c79 -30 142 -89 142 -191c0 -123 -91 -204 -228 -204z" />
    <glyph glyph-name="T" unicode="T" horiz-adv-x="588" 
d="M558 700v-105h-208v-595h-112v595h-208v105h528z" />
    <glyph glyph-name="U" unicode="U" horiz-adv-x="730" 
d="M365 -10c-178 0 -293 112 -293 284v426h111v-423c0 -111 71 -181 182 -181s182 70 182 181v423h111v-426c0 -171 -116 -284 -293 -284z" />
    <glyph glyph-name="V" unicode="V" horiz-adv-x="733" 
d="M584 700h122l-278 -700h-122l-279 700h123l217 -576z" />
    <glyph glyph-name="W" unicode="W" horiz-adv-x="967" 
d="M820 700h116l-202 -700h-89l-161 501l-161 -501h-89l-203 700h118l136 -524l152 494h92l155 -493z" />
    <glyph glyph-name="X" unicode="X" horiz-adv-x="708" 
d="M31 0l258 353l-253 347h137l181 -262l181 262h137l-254 -347l259 -353h-138l-185 267l-185 -267h-138z" />
    <glyph glyph-name="Y" unicode="Y" horiz-adv-x="676" 
d="M653 700l-259 -387v-313h-111v312l-261 388h137l178 -281l180 281h136z" />
    <glyph glyph-name="Z" unicode="Z" horiz-adv-x="597" 
d="M556 700l-342 -597h332v-103h-511l342 597h-320v103h499z" />
    <glyph glyph-name="a" unicode="a" horiz-adv-x="653" 
d="M466 510h104v-510h-104v68c-39 -50 -97 -78 -169 -78c-143 0 -251 112 -251 265c0 152 107 265 251 265c71 0 128 -28 169 -80v70zM321 90c63 0 116 29 145 76v177c-29 47 -82 77 -145 77c-96 0 -166 -70 -166 -166s70 -164 166 -164z" />
    <glyph glyph-name="a.ss01" horiz-adv-x="600" 
d="M299 520c146 0 231 -75 231 -196v-324h-105v93c-39 -63 -109 -103 -192 -103c-108 0 -180 66 -180 168c0 107 80 169 230 169c46 0 103 -6 140 -14v3c0 56 -30 107 -129 107c-70 0 -136 -27 -186 -87l-56 77c60 70 147 107 247 107zM263 84c72 0 131 39 160 96v56
c-35 6 -82 12 -121 12c-92 0 -141 -31 -141 -84c0 -49 40 -80 102 -80z" />
    <glyph glyph-name="b" unicode="b" 
d="M366 520c142 0 250 -112 250 -265c0 -152 -107 -265 -251 -265c-70 0 -127 27 -168 78v-68h-104v750h107v-304c40 48 95 74 166 74zM341 90c96 0 166 69 166 166c0 95 -70 164 -166 164c-62 0 -114 -29 -144 -74v-181c30 -46 82 -75 144 -75z" />
    <glyph glyph-name="c" unicode="c" horiz-adv-x="574" 
d="M318 -10c-156 0 -273 114 -273 265c0 150 116 265 274 265c85 0 160 -34 211 -94l-68 -73c-36 40 -84 65 -143 65c-96 0 -165 -69 -165 -163s69 -163 165 -163c64 0 115 29 150 75l74 -68c-53 -69 -131 -109 -225 -109z" />
    <glyph glyph-name="d" unicode="d" 
d="M463 750h107v-750h-104v68c-39 -50 -97 -78 -169 -78c-143 0 -251 112 -251 265c0 152 107 265 251 265c69 0 125 -26 166 -76v306zM321 90c63 0 116 29 145 76v177c-29 47 -82 77 -145 77c-96 0 -166 -70 -166 -166s70 -164 166 -164z" />
    <glyph glyph-name="e" unicode="e" horiz-adv-x="610" 
d="M563 258v-16h-411c8 -91 76 -151 171 -151c62 0 118 27 168 82l67 -75c-63 -73 -142 -108 -234 -108c-165 0 -278 113 -278 268c0 148 109 262 264 262c151 0 253 -109 253 -262zM308 424c-70 0 -123 -34 -145 -90h285c-20 56 -70 90 -140 90z" />
    <glyph glyph-name="f" unicode="f" horiz-adv-x="431" 
d="M235 576v-71h160v-89h-160v-416h-107v416h-94v89h94v59c0 129 68 196 186 196c36 0 64 -8 91 -23l-12 -88c-19 13 -40 20 -62 20c-62 0 -96 -31 -96 -93z" />
    <glyph glyph-name="g" unicode="g" horiz-adv-x="677" 
d="M481 510h104v-538c0 -145 -107 -242 -257 -242c-147 0 -253 93 -265 228l106 9c8 -83 73 -139 158 -139c91 0 154 58 154 145v102c-44 -52 -102 -70 -163 -70c-148 0 -258 111 -258 258c0 146 109 257 257 257c63 0 121 -20 164 -70v60zM336 103c63 0 116 29 145 74v172
c-29 44 -82 73 -145 73c-97 0 -167 -67 -167 -159s70 -160 167 -160z" />
    <glyph glyph-name="h" unicode="h" horiz-adv-x="637" 
d="M365 520c123 0 201 -82 201 -213v-307h-107v294c0 76 -47 124 -121 124c-56 0 -111 -27 -138 -72v-346h-107v750h107v-312c35 54 97 82 165 82z" />
    <glyph glyph-name="i" unicode="i" horiz-adv-x="286" 
d="M144 774c48 0 84 -35 84 -80c0 -46 -36 -81 -84 -81c-50 0 -86 35 -86 81c0 45 36 80 86 80zM90 0v510h106v-510h-106z" />
    <glyph glyph-name="j" unicode="j" horiz-adv-x="324" 
d="M182 774c48 0 84 -35 84 -80c0 -46 -36 -81 -84 -81c-50 0 -86 35 -86 81c0 45 36 80 86 80zM48 -197c-35 0 -64 8 -91 24l12 88c19 -14 40 -20 62 -20c62 0 97 31 97 93v522h106v-511c0 -128 -67 -196 -186 -196z" />
    <glyph glyph-name="k" unicode="k" horiz-adv-x="609" 
d="M578 0h-128l-169 255l-82 -83v-172h-106v750h107v-467l226 227h131l-195 -191z" />
    <glyph glyph-name="l" unicode="l" horiz-adv-x="293" 
d="M93 0v750h107v-750h-107z" />
    <glyph glyph-name="m" unicode="m" horiz-adv-x="952" 
d="M690 520c118 0 190 -79 190 -207v-313h-107v301c0 73 -42 117 -111 117c-54 0 -100 -25 -126 -66c1 -13 2 -26 2 -39v-313h-107v301c0 73 -42 117 -111 117c-57 0 -105 -28 -129 -73v-345h-107v510h104v-76c30 54 86 86 160 86c72 0 128 -30 160 -83c43 51 106 83 182 83
z" />
    <glyph glyph-name="n" unicode="n" horiz-adv-x="627" 
d="M356 520c123 0 201 -82 201 -213v-307h-107v294c0 76 -47 124 -121 124c-56 0 -111 -27 -138 -72v-346h-107v510h104v-77c34 58 98 87 168 87z" />
    <glyph glyph-name="o" unicode="o" horiz-adv-x="630" 
d="M316 -10c-154 0 -271 114 -271 266c0 151 117 264 271 264c153 0 269 -113 269 -264c0 -152 -116 -266 -269 -266zM316 92c92 0 160 69 160 164c0 94 -68 162 -160 162c-94 0 -162 -68 -162 -162c0 -95 68 -164 162 -164z" />
    <glyph glyph-name="p" unicode="p" 
d="M365 520c143 0 250 -112 250 -265c0 -152 -106 -265 -250 -265c-69 0 -125 26 -166 76v-326h-107v770h104v-68c39 50 97 78 169 78zM340 90c97 0 167 69 167 166c0 95 -70 164 -167 164c-62 0 -115 -29 -144 -76v-177c29 -47 82 -77 144 -77z" />
    <glyph glyph-name="q" unicode="q" horiz-adv-x="658" 
d="M462 510h103v-770h-107v324c-40 -48 -95 -74 -165 -74c-143 0 -251 112 -251 265c0 152 107 265 251 265c71 0 128 -28 169 -80v70zM317 90c63 0 116 29 145 76v177c-29 47 -82 77 -145 77c-96 0 -166 -70 -166 -166s70 -164 166 -164z" />
    <glyph glyph-name="r" unicode="r" horiz-adv-x="429" 
d="M397 415c-93 -3 -168 -35 -206 -86v-329h-107v510h104v-84c44 58 121 90 199 94z" />
    <glyph glyph-name="s" unicode="s" horiz-adv-x="478" 
d="M248 -10c-80 0 -159 35 -208 95l69 75c43 -50 92 -76 141 -76c45 0 73 26 73 60c0 30 -26 51 -57 61l-80 26c-75 25 -128 67 -128 142c0 86 73 147 180 147c68 0 132 -25 180 -74l-61 -71c-32 31 -78 54 -120 54c-41 0 -64 -22 -64 -50s24 -46 56 -56l78 -26
c49 -16 126 -55 126 -148c0 -95 -72 -159 -185 -159z" />
    <glyph glyph-name="t" unicode="t" horiz-adv-x="508" 
d="M422 140l46 -82c-47 -46 -101 -68 -165 -68c-109 0 -176 67 -176 186v240h-94v89h94v158h106v-158h216v-89h-216v-227c0 -66 34 -98 86 -98c36 0 71 16 103 49z" />
    <glyph glyph-name="u" unicode="u" horiz-adv-x="627" 
d="M436 510h107v-510h-104v77c-34 -58 -98 -87 -168 -87c-123 0 -201 82 -201 213v307h107v-294c0 -76 47 -124 121 -124c56 0 111 27 138 72v346z" />
    <glyph glyph-name="v" unicode="v" horiz-adv-x="601" 
d="M455 510h116l-212 -510h-116l-213 510h117l154 -410z" />
    <glyph glyph-name="w" unicode="w" horiz-adv-x="825" 
d="M678 510h112l-159 -510h-93l-125 361l-126 -361h-92l-160 510h112l102 -377l118 364h90l120 -364z" />
    <glyph glyph-name="x" unicode="x" horiz-adv-x="603" 
d="M32 0l205 265l-190 245h133l121 -177l122 177h133l-190 -245l205 -265h-133l-137 195l-136 -195h-133z" />
    <glyph glyph-name="y" unicode="y" horiz-adv-x="656" 
d="M460 510h104v-538c0 -145 -102 -242 -248 -242c-143 0 -244 92 -256 228l106 9c8 -81 66 -139 149 -139c87 0 145 58 145 145v123c-36 -53 -98 -81 -166 -81c-117 0 -205 79 -205 213v282h107v-269c0 -82 54 -124 125 -124c58 0 111 27 139 71v322z" />
    <glyph glyph-name="y.ss02" horiz-adv-x="617" 
d="M474 510h116l-387 -770l-116 -1l160 318l-221 453h120l161 -343z" />
    <glyph glyph-name="z" unicode="z" horiz-adv-x="531" 
d="M486 510l-272 -416h268v-94h-442l272 416h-253v94h427z" />
    <glyph glyph-name="zero" unicode="0" horiz-adv-x="671" 
d="M336 -10c-169 0 -276 137 -276 360s107 360 276 360c170 0 274 -139 274 -360s-104 -360 -274 -360zM336 92c102 0 162 97 162 258s-60 258 -162 258s-163 -97 -163 -258s61 -258 163 -258z" />
    <glyph glyph-name="one" unicode="1" horiz-adv-x="414" 
d="M316 700v-700h-112v601h-164v99h276z" />
    <glyph glyph-name="two" unicode="2" horiz-adv-x="588" 
d="M249 100h276v-100h-481l302 358c35 40 63 86 63 138c0 66 -46 110 -112 110c-75 0 -123 -59 -126 -142l-112 9c0 140 95 237 239 237c130 0 224 -81 224 -199c0 -89 -54 -162 -98 -212z" />
    <glyph glyph-name="three" unicode="3" horiz-adv-x="600" 
d="M418 362c78 -30 122 -89 122 -171c0 -118 -99 -201 -238 -201c-147 0 -249 91 -251 227l110 8c4 -81 57 -134 138 -134c74 0 128 45 128 114s-47 108 -130 108h-51v97h50c75 0 117 35 117 98c0 61 -48 103 -118 103c-73 0 -123 -49 -126 -125l-109 8
c1 128 98 216 238 216c131 0 226 -78 226 -190c0 -73 -38 -128 -106 -158z" />
    <glyph glyph-name="four" unicode="4" horiz-adv-x="675" 
d="M636 346v-94h-186v-252h-107v252h-294l89 448h108l-73 -354h170v227h107v-227h186z" />
    <glyph glyph-name="five" unicode="5" horiz-adv-x="609" 
d="M330 454c133 0 225 -92 225 -226c0 -140 -102 -238 -249 -238c-142 0 -245 90 -247 224l110 8c3 -80 60 -133 139 -133c81 0 136 55 136 136s-56 136 -139 136c-44 0 -94 -18 -129 -53l-92 32l30 360h398v-99h-308l-20 -198c35 32 87 51 146 51z" />
    <glyph glyph-name="six" unicode="6" horiz-adv-x="593" 
d="M323 453c128 0 223 -93 223 -226c0 -138 -105 -237 -252 -237c-144 0 -246 97 -246 227c0 79 38 152 80 218l172 265h125l-176 -258c24 7 49 11 74 11zM293 89c82 0 141 57 141 140c0 82 -58 139 -139 139s-138 -59 -138 -141s56 -138 136 -138z" />
    <glyph glyph-name="seven" unicode="7" horiz-adv-x="566" 
d="M529 700l-257 -700h-115l221 600h-338v100h489z" />
    <glyph glyph-name="eight" unicode="8" horiz-adv-x="619" 
d="M445 362c71 -33 116 -93 116 -168c0 -118 -106 -204 -251 -204c-146 0 -252 86 -252 203c0 75 45 136 117 169c-60 33 -97 89 -97 157c0 111 96 191 232 191c135 0 232 -80 232 -192c0 -67 -37 -123 -97 -156zM310 618c-72 0 -126 -44 -126 -108c0 -63 54 -109 126 -109
c73 0 126 46 126 109c0 64 -53 108 -126 108zM310 83c80 0 138 50 138 120c0 69 -58 118 -138 118s-139 -49 -139 -118c0 -70 59 -120 139 -120z" />
    <glyph glyph-name="nine" unicode="9" horiz-adv-x="593" 
d="M298 710c144 0 247 -97 247 -227c0 -79 -38 -152 -81 -218l-172 -265h-125l177 258c-24 -7 -49 -11 -74 -11c-128 0 -223 93 -223 226c0 138 105 237 251 237zM159 471c0 -82 57 -139 138 -139c82 0 139 59 139 141s-56 138 -137 138c-82 0 -140 -57 -140 -140z" />
    <glyph glyph-name="period" unicode="." horiz-adv-x="286" 
d="M143 150c49 0 85 -34 85 -80c0 -45 -36 -80 -85 -80s-86 35 -86 80c0 46 37 80 86 80z" />
    <glyph glyph-name="comma" unicode="," horiz-adv-x="297" 
d="M150 150c52 0 90 -37 90 -100c0 -57 -30 -118 -116 -204l-57 50c38 38 63 73 78 105c-38 -6 -81 24 -81 72c0 44 36 77 86 77z" />
    <glyph glyph-name="exclam" unicode="!" horiz-adv-x="316" 
d="M213 700l-1 -433h-110v433h111zM158 150c49 0 85 -34 85 -80c0 -45 -36 -80 -85 -80s-86 35 -86 80c0 46 37 80 86 80z" />
    <glyph glyph-name="question" unicode="?" horiz-adv-x="482" 
d="M240 710c121 0 201 -64 201 -161c0 -83 -58 -143 -153 -170l-1 -111h-110v174c93 3 149 37 149 93c0 45 -37 74 -94 74c-45 0 -93 -21 -129 -60l-73 73c45 54 121 88 210 88zM230 150c48 0 84 -34 84 -80c0 -45 -36 -80 -84 -80c-50 0 -86 35 -86 80c0 46 36 80 86 80z
" />
    <glyph glyph-name="hyphen" unicode="-" horiz-adv-x="463" 
d="M401 378v-99h-339v99h339z" />
  </font>
</defs>
</svg>
