<svg width="189" height="32" viewBox="0 0 189 32" fill="none" xmlns="http://www.w3.org/2000/svg">
<g clip-path="url(#clip0)">
<path d="M53.7509 9.1145C56.5554 9.1145 58.3471 10.2051 58.3471 12.4642C58.3471 14.0223 57.4902 14.957 56.3216 15.3465C57.646 15.7361 58.8144 16.6708 58.8144 18.6184C58.8144 21.5786 55.9322 22.2798 53.6731 22.2798H47.9863V9.1145H53.7509ZM53.7509 16.593H50.7908V20.0206H53.5951C54.8415 20.0206 56.0101 19.7868 56.0101 18.3067C56.0101 16.9046 54.8415 16.593 53.7509 16.593ZM53.4394 11.3736H50.7128V14.4118H53.5951C54.6858 14.4118 55.4647 13.9443 55.4647 12.9316C55.4647 11.841 54.6858 11.3736 53.4394 11.3736Z" fill="#13202B"/>
<path d="M60.9961 22.2798L66.3713 9.1145H69.4093L74.7845 22.2798H71.9023L70.8895 19.7868H64.8912L63.8785 22.2798H60.9961ZM65.7481 17.4498H70.0327L68.1629 12.6979C68.0851 12.4642 68.0072 12.1527 67.8514 11.6852C67.7735 12.2305 67.6956 12.4642 67.5397 12.6979L65.7481 17.4498Z" fill="#13202B"/>
<path d="M78.1348 22.2798V9.1145H83.5878C86.1585 9.1145 88.8071 10.0493 88.8071 13.3991C88.8071 15.6582 87.5607 16.8266 85.9248 17.294L89.8977 22.2798H86.6259L83.0424 17.6835H80.9391V22.2798H78.1348ZM80.9391 15.2687H83.6657C84.8342 15.2687 85.9248 14.7233 85.9248 13.3991C85.9248 12.0747 84.9121 11.5295 83.6657 11.5295H80.9391V15.2687Z" fill="#13202B"/>
<path d="M93.3242 22.2798V9.1145H95.9728L102.127 17.6835C102.127 17.1383 102.049 16.5151 102.049 15.8919V9.1145H104.853V22.2798H102.205L96.0507 13.7106C96.0507 14.256 96.1286 14.8792 96.1286 15.5024V22.2798H93.3242Z" fill="#13202B"/>
<path d="M115.37 9.1145C118.175 9.1145 119.967 10.2051 119.967 12.4642C119.967 14.0223 119.109 14.957 117.94 15.3465C119.265 15.7361 120.434 16.6708 120.434 18.6184C120.434 21.5786 117.552 22.2798 115.292 22.2798H109.605V9.1145H115.37ZM115.37 16.593H112.41V20.0206H115.215C116.46 20.0206 117.629 19.7868 117.629 18.3067C117.629 16.9046 116.539 16.593 115.37 16.593ZM115.137 11.3736H112.41V14.4118H115.292C116.383 14.4118 117.162 13.9443 117.162 12.9316C117.084 11.841 116.383 11.3736 115.137 11.3736Z" fill="#13202B"/>
<path d="M124.407 22.2798V9.1145H129.86C132.431 9.1145 135.079 10.0493 135.079 13.3991C135.079 15.6582 133.834 16.8266 132.197 17.294L136.171 22.2798H132.899L129.315 17.6835H127.212V22.2798H124.407ZM127.212 15.2687H129.939C131.107 15.2687 132.197 14.7233 132.197 13.3991C132.197 12.0747 131.184 11.5295 129.939 11.5295H127.212V15.2687Z" fill="#13202B"/>
<path d="M142.402 9.1145V22.2798H139.598V9.1145H142.402Z" fill="#13202B"/>
<path d="M152.062 9.1145C156.736 9.1145 158.994 11.919 158.994 15.7361C158.994 19.5531 156.736 22.3576 152.062 22.3576H147.154V9.1145H152.062ZM152.062 11.5295H149.958V19.709H152.062C154.71 19.709 156.112 18.3067 156.112 15.5802C156.112 12.8537 154.632 11.5295 152.062 11.5295Z" fill="#13202B"/>
<path d="M169.434 8.80298C170.836 8.80298 172.239 9.11458 173.484 9.65988V12.3864C172.472 11.7632 171.147 11.3737 169.824 11.3737C167.487 11.3737 165.15 12.6201 165.15 15.7361C165.15 19.2417 167.72 20.0986 169.667 20.0986C170.212 20.0986 170.759 20.0206 171.147 19.8649V15.1908H173.874V21.7345C172.55 22.2797 171.07 22.5914 169.59 22.5914C165.929 22.5914 162.345 20.566 162.345 15.7361C162.267 10.9063 165.772 8.80298 169.434 8.80298Z" fill="#13202B"/>
<path d="M187.351 9.1145V11.6073H180.884V14.4118H186.805V16.9046H180.884V19.8648H187.428V22.3576H178.002V9.1145H187.351Z" fill="#13202B"/>
<path d="M16.2807 14.0222H16.1249C14.0216 14.0222 12.3857 15.736 12.3857 17.9173V22.1239L16.2029 19.2416L20.0199 22.1239V17.9173C20.0199 15.814 18.3062 14.1002 16.2807 14.0222Z" fill="#FF4339"/>
<path d="M0 0V31.3161L9.73758 24.0713V15.8138L7.94586 14.4117L16.2033 8.17957L24.4608 14.4117L22.6691 15.8138V24.0713L32.4066 31.3161V0H0Z" fill="#FF4339"/>
</g>
<defs>
<clipPath id="clip0">
<rect width="187.429" height="32" fill="white"/>
</clipPath>
</defs>
</svg>
