<svg width="254" height="80" viewBox="0 0 254 80" fill="none" xmlns="http://www.w3.org/2000/svg">
<rect width="253" height="80" transform="translate(0.5)" fill="white"/>
<path d="M55.9739 60.4212C55.944 60.4212 55.9141 60.4512 55.9141 60.4811C55.9141 60.5111 55.944 60.541 55.9739 60.541C56.0039 60.541 56.0338 60.5111 56.0338 60.4811C56.0338 60.4512 56.0039 60.4212 55.9739 60.4212Z" fill="#9295A1"/>
<path d="M54.0579 59.7625C53.9681 59.7625 53.9082 59.8224 53.9082 59.9122C53.9082 60.002 53.9681 60.0619 54.0579 60.0619C54.1477 60.0619 54.2076 60.002 54.2076 59.9122C54.2076 59.8224 54.1477 59.7625 54.0579 59.7625Z" fill="#9295A1"/>
<path d="M52.2008 58.8942C52.081 58.8942 51.9912 58.984 51.9912 59.1038C51.9912 59.2235 52.081 59.3134 52.2008 59.3134C52.3206 59.3134 52.4104 59.2235 52.4104 59.1038C52.4104 58.984 52.3206 58.8942 52.2008 58.8942Z" fill="#9295A1"/>
<path d="M50.4648 57.8463C50.3151 57.8463 50.1953 57.966 50.1953 58.1157C50.1953 58.2654 50.3151 58.3852 50.4648 58.3852C50.6145 58.3852 50.7343 58.2654 50.7343 58.1157C50.7343 57.966 50.6145 57.8463 50.4648 57.8463Z" fill="#9295A1"/>
<path d="M48.8183 56.5887C48.6386 56.5887 48.459 56.7384 48.459 56.948C48.459 57.1276 48.6087 57.3073 48.8183 57.3073C48.9979 57.3073 49.1776 57.1576 49.1776 56.948C49.1776 56.7683 49.0279 56.5887 48.8183 56.5887Z" fill="#9295A1"/>
<path d="M47.3205 55.2114C47.081 55.2114 46.9014 55.3911 46.9014 55.6306C46.9014 55.8701 47.081 56.0498 47.3205 56.0498C47.5601 56.0498 47.7397 55.8701 47.7397 55.6306C47.7397 55.3911 47.5601 55.2114 47.3205 55.2114Z" fill="#9295A1"/>
<path d="M45.9439 53.6544C45.6744 53.6544 45.4648 53.864 45.4648 54.1335C45.4648 54.403 45.6744 54.6125 45.9439 54.6125C46.2134 54.6125 46.423 54.403 46.423 54.1335C46.4529 53.864 46.2134 53.6544 45.9439 53.6544Z" fill="#9295A1"/>
<path d="M44.7759 51.9477C44.4765 51.9477 44.207 52.1872 44.207 52.5166C44.207 52.816 44.4466 53.0855 44.7759 53.0855C45.0753 53.0855 45.3448 52.846 45.3448 52.5166C45.3149 52.2172 45.0753 51.9477 44.7759 51.9477Z" fill="#9295A1"/>
<path d="M44.4167 50.7501C44.4167 50.4207 44.1473 50.1213 43.788 50.1213C43.4287 50.1213 43.1592 50.3908 43.1592 50.7501C43.1592 51.0794 43.4287 51.3789 43.788 51.3789C44.1473 51.3789 44.4167 51.1094 44.4167 50.7501Z" fill="#9295A1"/>
<path d="M43.7279 48.8937C43.7279 48.5045 43.4285 48.205 43.0392 48.205C42.65 48.205 42.3506 48.5045 42.3506 48.8937C42.3506 49.2829 42.65 49.5824 43.0392 49.5824C43.4285 49.5824 43.7279 49.2829 43.7279 48.8937Z" fill="#9295A1"/>
<path d="M43.3086 46.9475C43.3086 46.5283 42.9792 46.1989 42.5601 46.1989C42.1409 46.1989 41.8115 46.5283 41.8115 46.9475C41.8115 47.3667 42.1409 47.696 42.5601 47.696C42.9792 47.696 43.3086 47.3667 43.3086 46.9475Z" fill="#9295A1"/>
<path d="M43.1592 44.9414C43.1592 44.4922 42.7999 44.103 42.3208 44.103C41.8717 44.103 41.4824 44.4623 41.4824 44.9414C41.4824 45.3905 41.8417 45.7797 42.3208 45.7797C42.7999 45.7797 43.1592 45.3905 43.1592 44.9414Z" fill="#9295A1"/>
<path d="M42.3807 43.8335C42.8897 43.8335 43.2789 43.4443 43.2789 42.9353C43.2789 42.4263 42.8897 42.037 42.3807 42.037C41.8717 42.037 41.4824 42.4263 41.4824 42.9353C41.4824 43.4144 41.8717 43.8335 42.3807 43.8335Z" fill="#9295A1"/>
<path d="M41.6924 40.9292C41.6924 41.4682 42.1116 41.8874 42.6505 41.8874C43.1895 41.8874 43.6086 41.4682 43.6086 40.9292C43.6086 40.3903 43.1895 39.9711 42.6505 39.9711C42.1415 39.9711 41.6924 40.3903 41.6924 40.9292Z" fill="#9295A1"/>
<path d="M70.7952 55.7803C70.7653 55.7803 70.7354 55.8102 70.7354 55.8401C70.7354 55.8701 70.7653 55.9 70.7952 55.9C70.8252 55.9 70.8551 55.8701 70.8551 55.8401C70.8551 55.8102 70.8252 55.7803 70.7952 55.7803Z" fill="#9295A1"/>
<path d="M69.028 56.6486C68.9681 56.6486 68.9082 56.7084 68.9082 56.7683C68.9082 56.8282 68.9681 56.8881 69.028 56.8881C69.0879 56.8881 69.1477 56.8282 69.1477 56.7683C69.1477 56.7084 69.0879 56.6486 69.028 56.6486Z" fill="#9295A1"/>
<path d="M67.1425 57.3373C67.0527 57.3373 66.9629 57.4271 66.9629 57.5169C66.9629 57.6067 67.0527 57.6966 67.1425 57.6966C67.2324 57.6966 67.3222 57.6067 67.3222 57.5169C67.3222 57.4271 67.2623 57.3373 67.1425 57.3373Z" fill="#9295A1"/>
<path d="M65.2259 57.8163C65.0762 57.8163 64.9863 57.9361 64.9863 58.0558C64.9863 58.1756 65.1061 58.2954 65.2259 58.2954C65.3456 58.2954 65.4654 58.1756 65.4654 58.0558C65.4654 57.9361 65.3456 57.8163 65.2259 57.8163Z" fill="#9295A1"/>
<path d="M63.2193 58.0858C63.0397 58.0858 62.9199 58.2355 62.9199 58.3852C62.9199 58.5648 63.0696 58.6846 63.2193 58.6846C63.399 58.6846 63.5188 58.5349 63.5188 58.3852C63.5487 58.2355 63.399 58.0858 63.2193 58.0858Z" fill="#9295A1"/>
<path d="M61.2138 58.1756C61.0042 58.1756 60.8545 58.3253 60.8545 58.5349C60.8545 58.7445 61.0042 58.8942 61.2138 58.8942C61.4234 58.8942 61.5731 58.7145 61.5731 58.5349C61.603 58.3253 61.4234 58.1756 61.2138 58.1756Z" fill="#9295A1"/>
<path d="M59.2082 58.0259C58.9687 58.0259 58.7891 58.2055 58.7891 58.4451C58.7891 58.6846 58.9687 58.8643 59.2082 58.8643C59.4478 58.8643 59.6274 58.6846 59.6274 58.4451C59.6574 58.2055 59.4478 58.0259 59.2082 58.0259Z" fill="#9295A1"/>
<path d="M57.232 57.6666C56.9625 57.6666 56.7529 57.8762 56.7529 58.1457C56.7529 58.4151 56.9625 58.6247 57.232 58.6247C57.5015 58.6247 57.7111 58.4151 57.7111 58.1457C57.7111 57.8762 57.5015 57.6666 57.232 57.6666Z" fill="#9295A1"/>
<path d="M55.285 57.0378C54.9856 57.0378 54.7461 57.2773 54.7461 57.5768C54.7461 57.8762 54.9856 58.1157 55.285 58.1157C55.5845 58.1157 55.824 57.8762 55.824 57.5768C55.8539 57.2773 55.5845 57.0378 55.285 57.0378Z" fill="#9295A1"/>
<path d="M53.4592 56.1695C53.1298 56.1695 52.8604 56.439 52.8604 56.7683C52.8604 57.0977 53.1298 57.3672 53.4592 57.3672C53.7885 57.3672 54.058 57.0977 54.058 56.7683C54.058 56.4689 53.7885 56.1695 53.4592 56.1695Z" fill="#9295A1"/>
<path d="M52.4109 55.7503C52.4109 55.391 52.1114 55.0916 51.7521 55.0916C51.3928 55.0916 51.0635 55.391 51.0635 55.7503C51.0635 56.1096 51.3629 56.4091 51.7521 56.4091C52.1114 56.439 52.4109 56.1396 52.4109 55.7503Z" fill="#9295A1"/>
<path d="M50.1655 53.7742C49.7464 53.7742 49.417 54.1035 49.417 54.5227C49.417 54.9419 49.7464 55.2713 50.1655 55.2713C50.5548 55.2713 50.9141 54.9419 50.9141 54.5227C50.9141 54.1035 50.5548 53.7742 50.1655 53.7742Z" fill="#9295A1"/>
<path d="M48.7576 52.2472C48.3085 52.2472 47.9492 52.6065 47.9492 53.0556C47.9492 53.5047 48.3085 53.864 48.7576 53.864C49.2068 53.864 49.5661 53.5047 49.5661 53.0556C49.5661 52.6065 49.2068 52.2472 48.7576 52.2472Z" fill="#9295A1"/>
<path d="M47.5607 52.3071C48.0398 52.3071 48.429 51.9178 48.429 51.4387C48.429 50.9597 48.0398 50.5704 47.5607 50.5704C47.0816 50.5704 46.6924 50.9597 46.6924 51.4387C46.7223 51.9178 47.0816 52.3071 47.5607 52.3071Z" fill="#9295A1"/>
<path d="M47.5009 49.6722C47.5009 49.1632 47.0817 48.744 46.5727 48.744C46.0637 48.744 45.6445 49.1632 45.6445 49.6722C45.6445 50.1812 46.0637 50.6004 46.5727 50.6004C47.1117 50.6004 47.5009 50.1812 47.5009 49.6722Z" fill="#9295A1"/>
<path d="M78.0111 42.037C77.9811 42.037 77.9512 42.067 77.9512 42.0969C77.9512 42.1269 77.9811 42.1568 78.0111 42.1568C78.041 42.1568 78.0709 42.1269 78.0709 42.0969C78.041 42.067 78.041 42.037 78.0111 42.037Z" fill="#9295A1"/>
<path d="M77.4127 43.8934C77.3529 43.8934 77.293 43.9533 77.293 44.0132C77.293 44.0731 77.3529 44.133 77.4127 44.133C77.4726 44.133 77.5325 44.0731 77.5325 44.0132C77.5325 43.9533 77.4726 43.8934 77.4127 43.8934Z" fill="#9295A1"/>
<path d="M76.6038 45.6899C76.514 45.6899 76.4541 45.7498 76.4541 45.8396C76.4541 45.9295 76.514 46.0193 76.6038 46.0193C76.6936 46.0193 76.7835 45.9594 76.7835 45.8396C76.7535 45.7798 76.6936 45.6899 76.6038 45.6899Z" fill="#9295A1"/>
<path d="M75.6158 47.3966C75.4961 47.3966 75.4062 47.4864 75.4062 47.6062C75.4062 47.726 75.4961 47.8158 75.6158 47.8158C75.7356 47.8158 75.8254 47.726 75.8254 47.6062C75.8254 47.4864 75.7356 47.3966 75.6158 47.3966Z" fill="#9295A1"/>
<path d="M74.4482 48.9835C74.2985 48.9835 74.1787 49.1033 74.1787 49.253C74.1787 49.4027 74.2985 49.5224 74.4482 49.5224C74.5979 49.5224 74.7177 49.4027 74.7177 49.253C74.7177 49.1033 74.5979 48.9835 74.4482 48.9835Z" fill="#9295A1"/>
<path d="M73.1301 50.4207C72.9505 50.4207 72.8008 50.5704 72.8008 50.7501C72.8008 50.9297 72.9505 51.0794 73.1301 51.0794C73.3098 51.0794 73.4595 50.9297 73.4595 50.7501C73.4595 50.5704 73.3098 50.4207 73.1301 50.4207Z" fill="#9295A1"/>
<path d="M71.6334 51.7381C71.4238 51.7381 71.2441 51.9178 71.2441 52.1274C71.2441 52.337 71.4238 52.5166 71.6334 52.5166C71.843 52.5166 72.0226 52.337 72.0226 52.1274C72.0226 51.9178 71.843 51.7381 71.6334 51.7381Z" fill="#9295A1"/>
<path d="M70.0165 52.8759C69.777 52.8759 69.5674 53.0855 69.5674 53.3251C69.5674 53.5646 69.777 53.7742 70.0165 53.7742C70.256 53.7742 70.4656 53.5646 70.4656 53.3251C70.4656 53.0855 70.256 52.8759 70.0165 52.8759Z" fill="#9295A1"/>
<path d="M68.2795 53.8041C68.01 53.8041 67.7705 54.0137 67.7705 54.2832C67.7705 54.5527 67.9801 54.7922 68.2795 54.7922C68.549 54.7922 68.7586 54.5826 68.7586 54.2832C68.7586 54.0137 68.549 53.8041 68.2795 53.8041Z" fill="#9295A1"/>
<path d="M66.3934 54.4628C66.094 54.4628 65.8545 54.7024 65.8545 55.0018C65.8545 55.3012 66.094 55.5407 66.3934 55.5407C66.6929 55.5407 66.9324 55.3012 66.9324 55.0018C66.9324 54.7323 66.6929 54.4628 66.3934 54.4628Z" fill="#9295A1"/>
<path d="M64.4475 54.912C64.1181 54.912 63.8486 55.1815 63.8486 55.5108C63.8486 55.8402 64.1181 56.1097 64.4475 56.1097C64.7768 56.1097 65.0463 55.8402 65.0463 55.5108C65.0463 55.1815 64.7768 54.912 64.4475 54.912Z" fill="#9295A1"/>
<path d="M62.4419 55.0916C62.0826 55.0916 61.7832 55.391 61.7832 55.7503C61.7832 56.1096 62.0826 56.4091 62.4419 56.4091C62.8012 56.4091 63.1006 56.1096 63.1006 55.7503C63.1006 55.391 62.8012 55.0916 62.4419 55.0916Z" fill="#9295A1"/>
<path d="M61.154 55.6905C61.154 55.3012 60.8246 54.9719 60.4354 54.9719C60.0462 54.9719 59.7168 55.3012 59.7168 55.6905C59.7168 56.0797 60.0462 56.4091 60.4354 56.4091C60.8246 56.4091 61.154 56.0797 61.154 55.6905Z" fill="#9295A1"/>
<path d="M59.2074 55.391C59.2074 54.9718 58.878 54.6125 58.4289 54.6125C58.0097 54.6125 57.6504 54.9419 57.6504 55.391C57.6504 55.8102 57.9797 56.1695 58.4289 56.1695C58.878 56.1695 59.2074 55.8401 59.2074 55.391Z" fill="#9295A1"/>
<path d="M57.3509 54.8521C57.3509 54.4029 56.9916 54.0436 56.5125 54.0436C56.0634 54.0436 55.7041 54.4029 55.7041 54.8521C55.7041 55.3012 56.0634 55.6904 56.5125 55.6904C56.9617 55.6605 57.3509 55.3012 57.3509 54.8521Z" fill="#9295A1"/>
<path d="M55.555 54.0437C55.555 53.5646 55.1657 53.1754 54.6867 53.1754C54.2076 53.1754 53.8184 53.5646 53.8184 54.0437C53.8184 54.5227 54.2076 54.912 54.6867 54.912C55.1657 54.912 55.555 54.5227 55.555 54.0437Z" fill="#9295A1"/>
<path d="M73.3704 27.3357C73.4004 27.3357 73.4303 27.3058 73.4303 27.2758C73.4303 27.2459 73.4004 27.216 73.3704 27.216C73.3405 27.216 73.3105 27.2459 73.3105 27.2758C73.3105 27.3058 73.3405 27.3357 73.3704 27.3357Z" fill="#9295A1"/>
<path d="M74.2985 29.1621C74.3584 29.1621 74.4182 29.1022 74.4182 29.0424C74.4182 28.9825 74.3584 28.9226 74.2985 28.9226C74.2386 28.9226 74.1787 28.9825 74.1787 29.0424C74.1787 29.1022 74.2386 29.1621 74.2985 29.1621Z" fill="#9295A1"/>
<path d="M75.0472 31.0784C75.137 31.0784 75.1969 31.0185 75.1969 30.9287C75.1969 30.8389 75.137 30.779 75.0472 30.779C74.9574 30.779 74.8975 30.8389 74.8975 30.9287C74.8675 31.0185 74.9574 31.0784 75.0472 31.0784Z" fill="#9295A1"/>
<path d="M75.5863 33.0845C75.7061 33.0845 75.7959 32.9947 75.7959 32.8749C75.7959 32.7552 75.7061 32.6653 75.5863 32.6653C75.4665 32.6653 75.3767 32.7552 75.3767 32.8749C75.3468 32.9947 75.4665 33.0845 75.5863 33.0845Z" fill="#9295A1"/>
<path d="M75.6455 34.8511C75.6455 35.0008 75.7653 35.1205 75.915 35.1205C76.0647 35.1205 76.1845 35.0008 76.1845 34.8511C76.1845 34.7014 76.0647 34.5816 75.915 34.5816C75.7653 34.5517 75.6455 34.7014 75.6455 34.8511Z" fill="#9295A1"/>
<path d="M76.0354 36.5278C75.8558 36.5278 75.7061 36.6775 75.7061 36.8571C75.7061 37.0368 75.8558 37.1865 76.0354 37.1865C76.2151 37.1865 76.3648 37.0368 76.3648 36.8571C76.3648 36.6775 76.2151 36.5278 76.0354 36.5278Z" fill="#9295A1"/>
<path d="M75.9449 38.474C75.7353 38.474 75.5557 38.6536 75.5557 38.8632C75.5557 39.0728 75.7353 39.2525 75.9449 39.2525C76.1545 39.2525 76.3342 39.0728 76.3342 38.8632C76.3342 38.6536 76.1545 38.474 75.9449 38.474Z" fill="#9295A1"/>
<path d="M75.6454 40.4202C75.4059 40.4202 75.1963 40.6298 75.1963 40.8693C75.1963 41.1089 75.4059 41.3185 75.6454 41.3185C75.8849 41.3185 76.0945 41.1388 76.0945 40.8693C76.0945 40.5999 75.8849 40.4202 75.6454 40.4202Z" fill="#9295A1"/>
<path d="M75.5857 42.7856C75.5857 42.5161 75.3761 42.3065 75.1067 42.3065C74.8372 42.3065 74.5977 42.5161 74.5977 42.7856C74.5977 43.0551 74.8072 43.2647 75.1067 43.2647C75.3761 43.2647 75.5857 43.0551 75.5857 42.7856Z" fill="#9295A1"/>
<path d="M74.2987 44.0731C73.9993 44.0731 73.7598 44.3126 73.7598 44.6121C73.7598 44.9115 73.9993 45.151 74.2987 45.151C74.5981 45.151 74.8377 44.9115 74.8377 44.6121C74.8377 44.3126 74.5981 44.0731 74.2987 44.0731Z" fill="#9295A1"/>
<path d="M73.2805 45.7498C72.9511 45.7498 72.6816 46.0193 72.6816 46.3487C72.6816 46.678 72.9511 46.9475 73.2805 46.9475C73.6098 46.9475 73.8793 46.678 73.8793 46.3487C73.8793 46.0193 73.6098 45.7498 73.2805 45.7498Z" fill="#9295A1"/>
<path d="M72.023 47.2469C71.6637 47.2469 71.3643 47.5463 71.3643 47.9056C71.3643 48.2649 71.6637 48.5643 72.023 48.5643C72.3823 48.5643 72.6817 48.2649 72.6817 47.9056C72.6817 47.5463 72.3823 47.2469 72.023 47.2469Z" fill="#9295A1"/>
<path d="M70.5555 48.5943C70.1663 48.5943 69.8369 48.9236 69.8369 49.3129C69.8369 49.7021 70.1663 50.0315 70.5555 50.0315C70.9447 50.0315 71.2741 49.7021 71.2741 49.3129C71.2741 48.9236 70.9447 48.5943 70.5555 48.5943Z" fill="#9295A1"/>
<path d="M68.9386 49.732C68.5195 49.732 68.1602 50.0614 68.1602 50.5105C68.1602 50.9297 68.4895 51.289 68.9386 51.289C69.3578 51.289 69.7171 50.9596 69.7171 50.5105C69.7171 50.0913 69.3578 49.732 68.9386 49.732Z" fill="#9295A1"/>
<path d="M67.202 50.6603C66.7529 50.6603 66.3936 51.0196 66.3936 51.4986C66.3936 51.9477 66.7529 52.3071 67.202 52.3071C67.6511 52.3071 68.0104 51.9477 68.0104 51.4986C68.0104 51.0196 67.6511 50.6603 67.202 50.6603Z" fill="#9295A1"/>
<path d="M65.3156 51.3489C64.8365 51.3489 64.4473 51.7381 64.4473 52.2172C64.4473 52.6963 64.8365 53.0855 65.3156 53.0855C65.7946 53.0855 66.1839 52.6963 66.1839 52.2172C66.1839 51.7381 65.7946 51.3489 65.3156 51.3489Z" fill="#9295A1"/>
<path d="M59.597 20.1198C59.6269 20.1198 59.6569 20.0898 59.6569 20.0599C59.6569 20.03 59.6269 20 59.597 20C59.5671 20 59.5371 20.03 59.5371 20.0599C59.5371 20.0898 59.5671 20.1198 59.597 20.1198Z" fill="#9295A1"/>
<path d="M61.5133 20.7785C61.5732 20.7785 61.6331 20.7186 61.6331 20.6587C61.6331 20.5988 61.5732 20.539 61.5133 20.539C61.4534 20.539 61.3936 20.5988 61.3936 20.6587C61.4235 20.7485 61.4534 20.7785 61.5133 20.7785Z" fill="#9295A1"/>
<path d="M63.3691 21.6468C63.4589 21.6468 63.5188 21.5869 63.5188 21.4971C63.5188 21.4073 63.4589 21.3175 63.3691 21.3175C63.2793 21.3175 63.1895 21.3774 63.1895 21.4971C63.1895 21.557 63.2793 21.6468 63.3691 21.6468Z" fill="#9295A1"/>
<path d="M65.1061 22.6648C65.2258 22.6648 65.3157 22.575 65.3157 22.4552C65.3157 22.3355 65.2258 22.2456 65.1061 22.2456C64.9863 22.2456 64.8965 22.3355 64.8965 22.4552C64.8965 22.575 64.9863 22.6648 65.1061 22.6648Z" fill="#9295A1"/>
<path d="M66.7529 23.8924C66.9026 23.8924 67.0223 23.7726 67.0223 23.6229C67.0223 23.4732 66.9026 23.3535 66.7529 23.3535C66.6032 23.3535 66.4834 23.4732 66.4834 23.6229C66.4834 23.7726 66.6032 23.8924 66.7529 23.8924Z" fill="#9295A1"/>
<path d="M68.2796 25.2697C68.4592 25.2697 68.6089 25.12 68.6089 24.9404C68.6089 24.7607 68.4592 24.611 68.2796 24.611C68.0999 24.611 67.9502 24.7607 67.9502 24.9404C67.9502 25.12 68.07 25.2697 68.2796 25.2697Z" fill="#9295A1"/>
<path d="M69.6275 26.8267C69.8371 26.8267 70.0168 26.647 70.0168 26.4375C70.0168 26.2279 69.8371 26.0482 69.6275 26.0482C69.4179 26.0482 69.2383 26.2279 69.2383 26.4375C69.2383 26.647 69.4179 26.8267 69.6275 26.8267Z" fill="#9295A1"/>
<path d="M70.8251 28.4735C71.0646 28.4735 71.2742 28.2639 71.2742 28.0244C71.2742 27.7848 71.0646 27.5753 70.8251 27.5753C70.5856 27.5753 70.376 27.7848 70.376 28.0244C70.376 28.2639 70.5856 28.4735 70.8251 28.4735Z" fill="#9295A1"/>
<path d="M71.7834 30.3C72.0529 30.3 72.2625 30.0904 72.2625 29.8209C72.2625 29.5514 72.0529 29.3418 71.7834 29.3418C71.5139 29.3418 71.2744 29.5514 71.2744 29.8209C71.3044 30.0904 71.5139 30.3 71.7834 30.3Z" fill="#9295A1"/>
<path d="M71.9932 31.6772C71.9932 31.9767 72.2327 32.2162 72.5321 32.2162C72.8315 32.2162 73.0711 31.9767 73.0711 31.6772C73.0711 31.3778 72.8315 31.1383 72.5321 31.1383C72.2327 31.1383 71.9932 31.3778 71.9932 31.6772Z" fill="#9295A1"/>
<path d="M72.4121 33.6235C72.4121 33.9528 72.6816 34.2223 73.0109 34.2223C73.3403 34.2223 73.6098 33.9528 73.6098 33.6235C73.6098 33.2941 73.3403 33.0246 73.0109 33.0246C72.6816 33.0246 72.4121 33.2941 72.4121 33.6235Z" fill="#9295A1"/>
<path d="M72.5918 35.6296C72.5918 35.9889 72.8912 36.2883 73.2505 36.2883C73.6098 36.2883 73.9092 35.9889 73.9092 35.6296C73.9092 35.2703 73.6098 34.9708 73.2505 34.9708C72.8912 34.9708 72.5918 35.2703 72.5918 35.6296Z" fill="#9295A1"/>
<path d="M73.9089 37.6357C73.9089 37.2464 73.5795 36.9171 73.1903 36.9171C72.801 36.9171 72.4717 37.2464 72.4717 37.6357C72.4717 38.0249 72.801 38.3543 73.1903 38.3543C73.6095 38.3543 73.9089 38.0249 73.9089 37.6357Z" fill="#9295A1"/>
<path d="M73.6693 39.6118C73.6693 39.1926 73.3399 38.8333 72.8908 38.8333C72.4716 38.8333 72.1123 39.1626 72.1123 39.6118C72.1123 40.031 72.4716 40.3902 72.8908 40.3902C73.3399 40.3902 73.6693 40.031 73.6693 39.6118Z" fill="#9295A1"/>
<path d="M73.1911 41.558C73.1911 41.1089 72.8318 40.7196 72.3826 40.7196C71.9335 40.7196 71.5742 41.0789 71.5742 41.558C71.5742 42.0071 71.9335 42.3664 72.3826 42.3664C72.8018 42.3664 73.1911 42.0071 73.1911 41.558Z" fill="#9295A1"/>
<path d="M71.5441 42.5161C71.065 42.5161 70.6758 42.9054 70.6758 43.3844C70.6758 43.8635 71.065 44.2528 71.5441 44.2528C72.0231 44.2528 72.4124 43.8635 72.4124 43.3844C72.4423 42.9054 72.0531 42.5161 71.5441 42.5161Z" fill="#9295A1"/>
<path d="M44.7757 24.7607C44.8056 24.7607 44.8356 24.7308 44.8356 24.7009C44.8356 24.6709 44.8056 24.641 44.7757 24.641C44.7458 24.641 44.7158 24.6709 44.7158 24.7009C44.7158 24.7308 44.7458 24.7607 44.7757 24.7607Z" fill="#9295A1"/>
<path d="M46.5719 23.8924C46.6318 23.8924 46.6917 23.8325 46.6917 23.7726C46.6917 23.7128 46.6318 23.6529 46.5719 23.6529C46.512 23.6529 46.4521 23.7128 46.4521 23.7726C46.4521 23.8325 46.512 23.8924 46.5719 23.8924Z" fill="#9295A1"/>
<path d="M48.429 23.2038C48.5188 23.2038 48.6087 23.1439 48.6087 23.0541C48.6087 22.9642 48.5488 22.8744 48.429 22.8744C48.3392 22.8744 48.2793 22.9642 48.2793 23.0541C48.2793 23.1139 48.3392 23.2038 48.429 23.2038Z" fill="#9295A1"/>
<path d="M50.3744 22.7247C50.4942 22.7247 50.584 22.6349 50.584 22.5151C50.584 22.3954 50.4942 22.3055 50.3744 22.3055C50.2546 22.3055 50.1648 22.3954 50.1648 22.5151C50.1349 22.6049 50.2546 22.7247 50.3744 22.7247Z" fill="#9295A1"/>
<path d="M52.3505 22.4253C52.5002 22.4253 52.62 22.3055 52.62 22.1558C52.62 22.0061 52.5002 21.8864 52.3505 21.8864C52.2008 21.8864 52.0811 22.0061 52.0811 22.1558C52.0811 22.3055 52.2008 22.4253 52.3505 22.4253Z" fill="#9295A1"/>
<path d="M54.3567 22.3654C54.5363 22.3654 54.6861 22.2157 54.6861 22.0361C54.6861 21.8564 54.5363 21.7067 54.3567 21.7067C54.1771 21.7067 54.0273 21.8564 54.0273 22.0361C54.0273 22.2157 54.1771 22.3654 54.3567 22.3654Z" fill="#9295A1"/>
<path d="M56.3629 22.5151C56.5725 22.5151 56.7521 22.3355 56.7521 22.1259C56.7521 21.9163 56.5725 21.7366 56.3629 21.7366C56.1533 21.7366 55.9736 21.9163 55.9736 22.1259C55.9736 22.3355 56.1533 22.5151 56.3629 22.5151Z" fill="#9295A1"/>
<path d="M58.3397 22.8445C58.5793 22.8445 58.7889 22.6648 58.7889 22.3954C58.7889 22.1558 58.5793 21.9462 58.3397 21.9462C58.1002 21.9462 57.8906 22.1558 57.8906 22.3954C57.9206 22.6648 58.1002 22.8445 58.3397 22.8445Z" fill="#9295A1"/>
<path d="M60.2857 23.4732C60.5552 23.4732 60.7947 23.2637 60.7947 22.9942C60.7947 22.7247 60.5851 22.5151 60.2857 22.5151C60.0162 22.5151 59.8066 22.7247 59.8066 22.9942C59.8066 23.2337 60.0162 23.4732 60.2857 23.4732Z" fill="#9295A1"/>
<path d="M62.1418 24.3116C62.4412 24.3116 62.6808 24.0721 62.6808 23.7726C62.6808 23.4732 62.4412 23.2337 62.1418 23.2337C61.8424 23.2337 61.6029 23.4732 61.6029 23.7726C61.5729 24.0721 61.8424 24.3116 62.1418 24.3116Z" fill="#9295A1"/>
<path d="M63.25 24.7907C63.25 25.1201 63.5195 25.3895 63.8488 25.3895C64.1782 25.3895 64.4477 25.1201 64.4477 24.7907C64.4477 24.4613 64.1782 24.1919 63.8488 24.1919C63.5195 24.1919 63.25 24.4613 63.25 24.7907Z" fill="#9295A1"/>
<path d="M65.4351 26.7069C65.7944 26.7069 66.0938 26.4075 66.0938 26.0482C66.0938 25.6889 65.7944 25.3895 65.4351 25.3895C65.0758 25.3895 64.7764 25.6889 64.7764 26.0482C64.7764 26.4375 65.0758 26.7069 65.4351 26.7069Z" fill="#9295A1"/>
<path d="M66.8133 28.234C67.2026 28.234 67.5319 27.9046 67.5319 27.5154C67.5319 27.1261 67.2026 26.7968 66.8133 26.7968C66.4241 26.7968 66.0947 27.1261 66.0947 27.5154C66.0947 27.9046 66.4241 28.234 66.8133 28.234Z" fill="#9295A1"/>
<path d="M68.0109 28.3537C67.5917 28.3537 67.2324 28.6831 67.2324 29.1322C67.2324 29.5514 67.5618 29.9107 68.0109 29.9107C68.4301 29.9107 68.7894 29.5813 68.7894 29.1322C68.7894 28.713 68.4301 28.3537 68.0109 28.3537Z" fill="#9295A1"/>
<path d="M68.1602 30.8688C68.1602 31.318 68.5195 31.6773 68.9686 31.6773C69.4177 31.6773 69.777 31.318 69.777 30.8688C69.777 30.4197 69.4177 30.0604 68.9686 30.0604C68.5494 30.0604 68.1602 30.4197 68.1602 30.8688Z" fill="#9295A1"/>
<path d="M68.8486 32.7552C68.8486 33.2342 69.2379 33.6235 69.7169 33.6235C70.196 33.6235 70.5852 33.2342 70.5852 32.7552C70.5852 32.2761 70.196 31.8869 69.7169 31.8869C69.2379 31.8869 68.8486 32.2761 68.8486 32.7552Z" fill="#9295A1"/>
<path d="M70.1958 33.7732C69.6868 33.7732 69.2676 34.1923 69.2676 34.7013C69.2676 35.2103 69.6868 35.6295 70.1958 35.6295C70.7048 35.6295 71.124 35.2103 71.124 34.7013C71.1539 34.1923 70.7347 33.7732 70.1958 33.7732Z" fill="#9295A1"/>
<path d="M37.5898 38.3542C37.5299 38.3542 37.5 38.4141 37.5 38.4441C37.5 38.5039 37.5599 38.5339 37.5898 38.5339C37.6497 38.5339 37.6797 38.474 37.6797 38.4441C37.6797 38.4141 37.6497 38.3542 37.5898 38.3542Z" fill="#9295A1"/>
<path d="M38.1881 36.3481C38.0683 36.3481 37.9785 36.438 37.9785 36.5577C37.9785 36.6775 38.0683 36.7673 38.1881 36.7673C38.3079 36.7673 38.3977 36.6775 38.3977 36.5577C38.3977 36.438 38.3079 36.3481 38.1881 36.3481Z" fill="#9295A1"/>
<path d="M39.2971 34.7013C39.2971 34.5217 39.1474 34.4019 38.9977 34.4019C38.818 34.4019 38.6982 34.5516 38.6982 34.7013C38.6982 34.881 38.848 35.0007 38.9977 35.0007C39.1474 35.0007 39.2971 34.881 39.2971 34.7013Z" fill="#9295A1"/>
<path d="M39.9553 33.354C40.1948 33.354 40.3745 33.1743 40.3745 32.9348C40.3745 32.6953 40.1948 32.5156 39.9553 32.5156C39.7158 32.5156 39.5361 32.6953 39.5361 32.9348C39.5361 33.1743 39.7457 33.354 39.9553 33.354Z" fill="#9295A1"/>
<path d="M41.1233 31.827C41.4227 31.827 41.6323 31.5874 41.6323 31.3179C41.6323 31.0485 41.3927 30.8089 41.1233 30.8089C40.8238 30.8089 40.6143 31.0485 40.6143 31.3179C40.6143 31.5874 40.8538 31.827 41.1233 31.827Z" fill="#9295A1"/>
<path d="M42.4706 30.4197C42.7999 30.4197 43.0993 30.1502 43.0993 29.7909C43.0993 29.4615 42.8299 29.1621 42.4706 29.1621C42.1412 29.1621 41.8418 29.4316 41.8418 29.7909C41.8418 30.1502 42.1113 30.4197 42.4706 30.4197Z" fill="#9295A1"/>
<path d="M43.9373 29.1622C44.3266 29.1622 44.6559 28.8328 44.6559 28.4436C44.6559 28.0543 44.3266 27.725 43.9373 27.725C43.5481 27.725 43.2188 28.0543 43.2188 28.4436C43.2188 28.8328 43.5481 29.1622 43.9373 29.1622Z" fill="#9295A1"/>
<path d="M45.5542 28.0842C46.0033 28.0842 46.3926 27.7249 46.3926 27.2459C46.3926 26.7967 46.0333 26.4075 45.5542 26.4075C45.1051 26.4075 44.7158 26.7668 44.7158 27.2459C44.7158 27.695 45.1051 28.0842 45.5542 28.0842Z" fill="#9295A1"/>
<path d="M47.2905 27.186C47.7995 27.186 48.2187 26.7668 48.2187 26.2578C48.2187 25.7488 47.7995 25.3296 47.2905 25.3296C46.7815 25.3296 46.3623 25.7488 46.3623 26.2578C46.3623 26.7668 46.7815 27.186 47.2905 27.186Z" fill="#9295A1"/>
<path d="M49.1779 26.5273C49.6869 26.5273 50.1061 26.138 50.1959 25.659C50.4055 25.9584 50.7349 26.138 51.1241 26.138C51.5732 26.138 51.9325 25.8985 52.1421 25.5093C52.3817 25.8087 52.741 26.0183 53.1302 26.0183C53.4895 26.0183 53.8189 25.8686 54.0584 25.5991C54.2979 25.9284 54.6872 26.168 55.1662 26.168C55.4357 26.168 55.7052 26.0782 55.9447 25.9284C56.0046 26.0183 56.0645 26.0782 56.1244 26.138C55.795 26.168 55.4656 26.3177 55.2561 26.5572C54.9866 26.3177 54.6572 26.168 54.2979 26.168C53.8189 26.168 53.3997 26.4075 53.1302 26.7668C52.8907 26.5872 52.6212 26.4674 52.2918 26.4674C51.7529 26.4674 51.2738 26.7968 51.0642 27.2459C50.8546 27.0962 50.6151 27.0363 50.3456 27.0363C49.7468 27.0363 49.2378 27.4555 49.0881 28.0244C48.9084 27.9046 48.6988 27.8447 48.4593 27.8447C47.8006 27.8447 47.2616 28.3837 47.2616 29.0424C47.082 28.9525 46.9023 28.8927 46.6927 28.8927C46.064 28.8927 45.5849 29.4017 45.5849 30.0005C45.5849 30.1203 45.6149 30.2101 45.6448 30.2999C45.4951 30.2101 45.3154 30.1502 45.1058 30.1502C44.537 30.1502 44.0579 30.6293 44.0579 31.1982C44.0579 31.7671 44.537 32.2461 45.1058 32.2461C45.6747 32.2461 46.1538 31.7671 46.1538 31.1982C46.1538 31.1083 46.1538 31.0185 46.1239 30.9287C46.3035 31.0485 46.5131 31.1083 46.7227 31.1083C47.3215 31.1083 47.8305 30.6293 47.8305 30.0305C48.0102 30.1502 48.2497 30.2101 48.4593 30.2101C48.4892 30.2101 48.4892 30.2101 48.5192 30.2101C48.2797 30.4496 48.1 30.749 48.0701 31.1083C47.9802 31.1083 47.9204 31.0784 47.8305 31.0784C47.1119 31.0784 46.5131 31.6772 46.5131 32.3958C46.5131 32.4557 46.5131 32.4857 46.5131 32.5455C46.4532 32.5455 46.4233 32.5455 46.3634 32.5455C45.6747 32.5455 45.1058 33.1144 45.1058 33.8031C45.1058 33.9528 45.1358 34.0726 45.1657 34.1923C45.1358 34.1923 45.1058 34.1923 45.1058 34.1923C44.4471 34.1923 43.9381 34.7313 43.9381 35.3601C43.9381 35.5996 43.998 35.8092 44.1178 35.9888H44.0878C43.489 35.9888 42.98 36.4978 42.98 37.0967C42.98 37.426 43.1297 37.6955 43.3393 37.9051C43.3093 37.9051 43.3093 37.9051 43.2794 37.9051C42.7105 37.9051 42.2314 38.3842 42.2314 38.9531C42.2314 39.5219 42.7105 40.001 43.2794 40.001C43.8483 40.001 44.3274 39.5519 44.3274 38.9531C44.3274 38.6536 44.2076 38.4141 44.0279 38.2045C44.0579 38.2045 44.0878 38.2045 44.0878 38.2045C44.4172 38.2045 44.6867 38.0548 44.8963 37.8452V37.8752C44.8963 38.1746 44.9861 38.4141 45.1358 38.6237C44.6567 38.8033 44.3274 39.2525 44.3274 39.7615C44.3274 40.1208 44.507 40.4501 44.7465 40.6897C44.3573 40.8693 44.0579 41.2885 44.0579 41.7376C44.0579 42.1867 44.2974 42.576 44.6867 42.7556C44.3274 42.9353 44.0878 43.2946 44.0878 43.7437C44.0878 44.2527 44.4471 44.7019 44.9561 44.8216C44.6268 45.0013 44.3872 45.3306 44.3872 45.7498C44.3872 46.3187 44.8663 46.7978 45.4352 46.7978C45.4951 46.7978 45.555 46.7978 45.6149 46.7678C45.2256 46.8876 44.9262 47.2469 44.9262 47.696C44.9262 48.235 45.3753 48.6841 45.9143 48.6841C46.4532 48.6841 46.9023 48.235 46.9023 47.696C46.9023 47.1571 46.4532 46.7079 45.9143 46.7079C45.8544 46.7079 45.7945 46.7079 45.7346 46.7379C46.1538 46.6181 46.4832 46.2289 46.4832 45.7498C46.4832 45.7199 46.4832 45.6899 46.4832 45.6899C46.6329 45.8696 46.8425 45.9893 47.1119 46.0492C46.9323 46.2588 46.8425 46.4984 46.8425 46.7978C46.8425 47.4265 47.3515 47.9355 48.0102 47.9355H48.0401C47.9204 48.1152 47.8305 48.3248 47.8305 48.5643C47.8305 49.1632 48.3096 49.6722 48.9384 49.6722C49.0581 49.6722 49.148 49.6422 49.2677 49.6123C49.148 49.7919 49.0881 49.9716 49.0881 50.1812C49.0881 50.7501 49.5671 51.2291 50.136 51.2291C50.3756 51.2291 50.6151 51.1393 50.7948 50.9896C50.645 51.1692 50.5552 51.3788 50.5552 51.6184C50.5552 52.1573 51.0043 52.6064 51.5433 52.6064C52.0822 52.6064 52.5314 52.1573 52.5314 51.6184C52.5314 51.3489 52.4116 51.1094 52.2619 50.9297C52.3817 50.9297 52.5314 50.8998 52.6511 50.8698C52.6511 51.3489 52.9206 51.7381 53.3099 51.9477C53.25 51.9477 53.1901 51.9178 53.1302 51.9178C52.6212 51.9178 52.202 52.337 52.202 52.846C52.202 53.355 52.6212 53.7742 53.1302 53.7742C53.6392 53.7742 54.0584 53.355 54.0584 52.846C54.0584 52.4867 53.8488 52.1873 53.5793 52.0376C53.6692 52.0675 53.759 52.0675 53.8787 52.0675C54.1183 52.0675 54.3279 52.0076 54.5075 51.8878C54.5674 52.4867 55.0465 52.9358 55.6453 52.9358C55.9747 52.9358 56.2741 52.7861 56.4837 52.5765C56.5735 53.0855 57.0226 53.5047 57.5616 53.5047C57.9807 53.5047 58.34 53.2652 58.5197 52.9358C58.6095 53.4149 59.0287 53.7742 59.5377 53.7742C60.0767 53.7742 60.5258 53.355 60.5557 52.846C60.5857 53.355 61.0049 53.7742 61.5438 53.7742C62.0828 53.7742 62.5319 53.325 62.5319 52.7861C62.5319 52.2471 62.1127 51.828 61.5737 51.798C61.6636 51.7082 61.7235 51.5884 61.7833 51.4687C61.9929 51.7082 62.3223 51.828 62.6516 51.828C62.7714 51.828 62.8912 51.798 63.0109 51.7681C62.7714 51.9477 62.5918 52.2172 62.5918 52.5466C62.5918 53.0556 63.0109 53.4747 63.52 53.4747C64.029 53.4747 64.4481 53.0556 64.4481 52.5466C64.4481 52.0375 64.029 51.6184 63.52 51.6184C63.4301 51.6184 63.3403 51.6483 63.2505 51.6483C63.52 51.4687 63.7295 51.1992 63.7894 50.8998C63.999 51.0794 64.2386 51.1692 64.538 51.1692C65.1667 51.1692 65.7057 50.6602 65.7057 50.0315V50.0015C65.8853 50.1213 66.0949 50.2111 66.3345 50.2111C66.9333 50.2111 67.4423 49.732 67.4423 49.1033C67.4423 48.9835 67.4423 48.8937 67.3824 48.7739C67.5621 48.8937 67.7417 48.9536 67.9513 48.9536C68.5202 48.9536 68.9993 48.4745 68.9993 47.9056C68.9993 47.6661 68.9094 47.4265 68.7597 47.2469C68.9394 47.3966 69.149 47.4864 69.3885 47.4864C69.9275 47.4864 70.3766 47.0373 70.3766 46.4984C70.3766 45.9594 69.9275 45.5103 69.3885 45.5103C69.119 45.5103 68.8795 45.6001 68.6999 45.7797C68.6999 45.66 68.6699 45.5103 68.64 45.3905C69.119 45.3905 69.5083 45.121 69.7179 44.7318C69.7179 44.7917 69.6879 44.8516 69.6879 44.9114C69.6879 45.4204 70.1071 45.8396 70.6161 45.8396C71.1251 45.8396 71.5443 45.4204 71.5443 44.9114C71.5443 44.4024 71.1251 43.9832 70.6161 43.9832C70.2568 43.9832 69.9574 44.1928 69.8077 44.4623C69.8376 44.3725 69.8376 44.2827 69.8376 44.1629C69.8376 43.9234 69.7778 43.7138 69.658 43.5341C70.2568 43.4742 70.7059 42.9952 70.7059 42.3963C70.7059 42.067 70.5562 41.7676 70.3466 41.558C70.8557 41.4682 71.2748 41.019 71.2748 40.4801C71.2748 40.0609 71.0353 39.7016 70.7059 39.5219C71.185 39.4321 71.5443 39.0129 71.5443 38.5039C71.5443 37.965 71.1251 37.5159 70.6161 37.4859C71.1251 37.456 71.5443 37.0368 71.5443 36.4978C71.5443 35.9589 71.0952 35.5098 70.5562 35.5098C70.0173 35.5098 69.5682 35.9589 69.5682 36.4978C69.5682 37.0068 69.9574 37.426 70.4365 37.4859C69.8975 37.5159 69.4783 37.965 69.4783 38.5339C69.4783 38.9231 69.6879 39.2525 70.0173 39.4321C69.5083 39.5219 69.119 39.9711 69.119 40.51C69.119 40.8094 69.2388 41.0789 69.4484 41.2885C68.8795 41.3783 68.4603 41.8574 68.4603 42.4263C68.4603 42.6359 68.5202 42.8455 68.61 42.9952C67.9813 43.0251 67.4722 43.5641 67.4722 44.1928C67.4722 44.3126 67.5022 44.4324 67.5321 44.5521C67.5022 44.5521 67.5022 44.5521 67.4722 44.5521C66.7836 44.5521 66.2147 45.121 66.2147 45.8097C66.2147 45.8396 66.2147 45.8696 66.2147 45.8995C66.1548 45.8995 66.0949 45.8696 66.0051 45.8696C65.3464 45.8696 64.8074 46.3486 64.7176 47.0074C64.5978 46.9774 64.4781 46.9475 64.3583 46.9475C63.8194 46.9475 63.3403 47.2768 63.1307 47.726C62.8612 47.5164 62.5019 47.3966 62.1426 47.4864C61.7534 47.5762 61.424 47.8158 61.2743 48.1751C61.0049 47.9056 60.6156 47.7559 60.2264 47.7858C59.8371 47.8457 59.5078 48.0853 59.3281 48.4146C59.1185 48.1451 58.7592 47.9655 58.3999 47.9655C58.0406 47.9655 57.7412 48.1152 57.5017 48.3547C57.352 48.0553 57.0825 47.7858 56.7531 47.696C56.3938 47.5763 56.0046 47.6661 55.7052 47.8757C55.6154 47.5164 55.4058 47.2169 55.0465 47.0373C54.7171 46.8876 54.3279 46.8876 54.0285 47.0373C54.0285 46.7079 53.8787 46.3486 53.5793 46.139C53.3099 45.9295 52.9506 45.8396 52.6212 45.8995C52.711 45.5702 52.6212 45.2109 52.4116 44.9114C52.1721 44.612 51.8128 44.4324 51.4535 44.4324C51.6032 44.103 51.6032 43.7138 51.4235 43.3844C51.2738 43.085 50.9744 42.8754 50.675 42.7856C50.8846 42.546 50.9744 42.1868 50.9145 41.8574C50.8546 41.4981 50.6151 41.1687 50.3157 40.9891C50.6151 40.7495 50.7948 40.4202 50.7948 40.001C50.7948 39.6417 50.645 39.3124 50.3756 39.1028C50.675 38.9531 50.9145 38.6836 51.0043 38.3243C51.0942 37.965 51.0043 37.6057 50.8247 37.3362C51.1541 37.2763 51.4235 37.0667 51.6032 36.7673C51.7828 36.438 51.8128 36.0787 51.693 35.7493C52.0523 35.7792 52.4116 35.6295 52.6511 35.3601C52.8907 35.0906 53.0104 34.7313 52.9506 34.372C53.2799 34.4618 53.6392 34.4019 53.9386 34.1923C54.238 33.9827 54.4177 33.6534 54.4476 33.324C54.7471 33.4737 55.1363 33.5037 55.4657 33.3839C55.795 33.2342 56.0345 32.9947 56.1244 32.6953C56.3639 32.9048 56.6933 33.0246 57.0526 32.9947C57.4418 32.9647 57.7712 32.7551 57.9508 32.4258C58.1604 32.7252 58.4598 32.9048 58.8491 32.9348C59.2084 32.9647 59.5377 32.815 59.7772 32.6054C59.897 32.9348 60.1665 33.1743 60.5258 33.2941C60.8851 33.4139 61.2743 33.354 61.5737 33.1444C61.6336 33.5037 61.8432 33.8031 62.1726 33.9827C62.4421 34.1325 62.7415 34.1624 63.0409 34.1025C63.0708 34.1624 63.1008 34.1923 63.1307 34.2223C63.1607 34.4918 63.2505 34.7313 63.4301 34.9409L63.4601 34.9708C64.0888 35.6295 65.4961 37.1865 65.2266 39.2824C65.1667 39.7914 65.4662 40.0609 65.8255 39.6717C68.101 37.2164 67.7417 34.2223 67.6818 33.863C67.6818 33.6234 67.622 33.4138 67.5321 33.2043C67.5621 33.0845 67.5621 32.9348 67.5621 32.815C67.5621 32.1862 67.2627 31.6174 66.7836 31.2581C66.8135 31.1383 66.8135 31.0185 66.8135 30.8988C66.8135 30.1203 66.3345 29.4616 65.6458 29.1621C65.6159 28.2938 64.9871 27.5752 64.1487 27.4255C63.999 26.647 63.3104 26.0482 62.472 26.0482C62.4421 26.0482 62.4121 26.0482 62.3822 26.0482C62.1726 25.4194 61.5737 24.9404 60.8551 24.9404C60.7054 24.9404 60.5857 24.9703 60.4659 25.0003C60.2264 24.4613 59.6874 24.102 59.0886 24.102C58.8491 24.102 58.6095 24.1619 58.4299 24.2517C58.1903 23.8325 57.7113 23.5331 57.2023 23.5331C56.8729 23.5331 56.5435 23.6529 56.304 23.8325C56.0645 23.5032 55.6752 23.2636 55.2261 23.2636C54.8069 23.2636 54.4177 23.4732 54.1782 23.7726C53.9386 23.5032 53.6093 23.3235 53.22 23.3235C52.711 23.3235 52.2918 23.6229 52.0822 24.0421C51.8727 23.8026 51.5732 23.6529 51.2139 23.6529C50.6151 23.6529 50.136 24.102 50.0762 24.6709C49.8965 24.4314 49.5971 24.2517 49.2677 24.2517C48.6988 24.2517 48.2497 24.7008 48.2497 25.2697C48.1299 26.0781 48.609 26.5273 49.1779 26.5273Z" fill="#9295A1"/>
<path d="M42.2305 53.2053C42.2005 53.2053 42.1406 53.2352 42.1406 53.2951C42.1406 53.3251 42.1706 53.385 42.2305 53.385C42.2903 53.385 42.3203 53.355 42.3203 53.2951C42.2903 53.2352 42.2604 53.2053 42.2305 53.2053Z" fill="#9295A1"/>
<path d="M41.303 51.3489C41.2132 51.3489 41.1533 51.4088 41.1533 51.4986C41.1533 51.5884 41.2132 51.6483 41.303 51.6483C41.3929 51.6483 41.4527 51.5884 41.4527 51.4986C41.4527 51.4088 41.3629 51.3489 41.303 51.3489Z" fill="#9295A1"/>
<path d="M40.554 49.4027C40.4342 49.4027 40.3145 49.5225 40.3145 49.6423C40.3145 49.762 40.4342 49.8818 40.554 49.8818C40.6738 49.8818 40.7935 49.762 40.7935 49.6423C40.7935 49.5225 40.6738 49.4027 40.554 49.4027Z" fill="#9295A1"/>
<path d="M40.0149 47.3966C39.8353 47.3966 39.6855 47.5463 39.6855 47.726C39.6855 47.9056 39.8353 48.0553 40.0149 48.0553C40.1946 48.0553 40.3443 47.9056 40.3443 47.726C40.3143 47.5164 40.1646 47.3966 40.0149 47.3966Z" fill="#9295A1"/>
<path d="M40.0744 45.7199C40.0744 45.5103 39.8947 45.3306 39.6851 45.3306C39.4755 45.3306 39.2959 45.5103 39.2959 45.7199C39.2959 45.9295 39.4755 46.1091 39.6851 46.1091C39.8947 46.1091 40.0744 45.9295 40.0744 45.7199Z" fill="#9295A1"/>
<path d="M40.0148 43.7138C40.0148 43.4443 39.8052 43.2347 39.5357 43.2347C39.2662 43.2347 39.0566 43.4443 39.0566 43.7138C39.0566 43.9833 39.2662 44.1929 39.5357 44.1929C39.8052 44.1929 40.0148 43.9833 40.0148 43.7138Z" fill="#9295A1"/>
<path d="M39.0566 41.7077C39.0566 42.0071 39.2962 42.2766 39.6255 42.2766C39.9249 42.2766 40.1944 42.0371 40.1944 41.7077C40.1944 41.4083 39.9549 41.1388 39.6255 41.1388C39.3261 41.1388 39.0566 41.4083 39.0566 41.7077Z" fill="#9295A1"/>
<path d="M39.9247 40.3603C40.284 40.3603 40.5534 40.0609 40.5534 39.7315C40.5534 39.3722 40.254 39.1028 39.9247 39.1028C39.5654 39.1028 39.2959 39.4022 39.2959 39.7315C39.2959 40.0609 39.5654 40.3603 39.9247 40.3603Z" fill="#9295A1"/>
<path d="M40.494 37.0668C40.1047 37.0668 39.7754 37.3961 39.7754 37.7854C39.7754 38.1746 40.1047 38.504 40.494 38.504C40.8832 38.504 41.2126 38.1746 41.2126 37.7854C41.2126 37.3961 40.8832 37.0668 40.494 37.0668Z" fill="#9295A1"/>
<path d="M41.2723 36.7374C41.7214 36.7374 42.0807 36.3781 42.0807 35.929C42.0807 35.4798 41.7214 35.1205 41.2723 35.1205C40.8232 35.1205 40.4639 35.4798 40.4639 35.929C40.4938 36.3781 40.8531 36.7374 41.2723 36.7374Z" fill="#9295A1"/>
<path d="M42.3205 35.0906C42.7995 35.0906 43.1888 34.7014 43.1888 34.2223C43.1888 33.7432 42.7995 33.354 42.3205 33.354C41.8414 33.354 41.4521 33.7432 41.4521 34.2223C41.4521 34.7014 41.8414 35.0906 42.3205 35.0906Z" fill="#9295A1"/>
<path d="M44.5364 32.6354C44.5364 32.0965 44.1172 31.6773 43.5782 31.6773C43.0393 31.6773 42.6201 32.0965 42.6201 32.6354C42.6201 33.1744 43.0393 33.5935 43.5782 33.5935C44.0873 33.5935 44.5364 33.1744 44.5364 32.6354Z" fill="#9295A1"/>
<path d="M93.8796 47.9655C92.8316 47.9655 91.8436 47.7559 90.9154 47.3667C89.9872 46.9774 89.1788 46.4086 88.4901 45.7199C87.8014 45.0312 87.2625 44.2228 86.8732 43.2946C86.484 42.3664 86.2744 41.3784 86.2744 40.3304C86.2744 39.2824 86.484 38.2644 86.8732 37.3362C87.2625 36.408 87.8014 35.5996 88.4901 34.911C89.1788 34.2223 89.9872 33.6534 90.9154 33.2642C91.8436 32.845 92.8316 32.6653 93.8796 32.6653C94.9275 32.6653 95.9456 32.8749 96.8738 33.2941C97.8019 33.7133 98.6104 34.2822 99.329 35.0008C99.4787 35.1505 99.5984 35.3301 99.6583 35.5697C99.7481 35.8391 99.7182 36.0787 99.5685 36.3182C99.3889 36.5877 99.1493 36.7075 98.82 36.7374C98.4607 36.7374 98.2211 36.6476 98.0115 36.438C97.5025 35.9889 96.8438 35.5697 96.1252 35.1804C95.4366 34.8211 94.6581 34.6415 93.8796 34.6415C93.1011 34.6415 92.3526 34.7912 91.6639 35.0906C90.9753 35.39 90.3764 35.8092 89.8674 36.3182C89.3584 36.8572 88.9692 37.456 88.6697 38.1446C88.3703 38.8333 88.2206 39.5819 88.2206 40.3603C88.2206 41.1388 88.3703 41.8874 88.6697 42.576C88.9692 43.2647 89.3584 43.8635 89.8674 44.3725C90.3764 44.8815 90.9753 45.3007 91.6639 45.6001C92.3526 45.8995 93.1011 46.0493 93.8796 46.0493C94.688 46.0493 95.4665 45.8995 96.1851 45.5702C96.9037 45.2708 97.5025 44.8216 98.0415 44.2528C98.1912 44.0731 98.4008 43.9533 98.6403 43.8934C98.7301 43.8635 98.79 43.8635 98.8798 43.8635C99.0595 43.8635 99.2391 43.9234 99.3889 44.0132C99.6284 44.2228 99.7481 44.4923 99.7481 44.7917C99.7481 45.0911 99.6583 45.3606 99.4787 45.5702C98.79 46.3487 97.9517 46.9475 96.9935 47.3667C96.0354 47.726 94.9874 47.9655 93.8796 47.9655Z" fill="#9295A1"/>
<path d="M109.809 47.9356C108.761 47.9356 107.773 47.726 106.845 47.3367C105.917 46.9475 105.108 46.3786 104.42 45.7199C103.731 45.0312 103.192 44.2228 102.803 43.2946C102.414 42.3664 102.204 41.3783 102.204 40.3304C102.204 39.2824 102.414 38.2944 102.803 37.3662C103.192 36.438 103.761 35.6296 104.42 34.9409C105.108 34.2522 105.917 33.7133 106.845 33.2941C107.773 32.9049 108.761 32.6953 109.809 32.6953C110.857 32.6953 111.845 32.9049 112.774 33.2941C113.702 33.6833 114.51 34.2522 115.199 34.9409C115.887 35.6296 116.426 36.438 116.846 37.3662C117.235 38.2944 117.444 39.2824 117.444 40.3304C117.444 41.3783 117.235 42.3664 116.846 43.2946C116.456 44.2228 115.887 45.0312 115.199 45.7199C114.51 46.4085 113.702 46.9475 112.774 47.3367C111.845 47.726 110.857 47.9356 109.809 47.9356ZM109.809 34.6415C109.031 34.6415 108.282 34.7912 107.594 35.0906C106.905 35.39 106.306 35.7793 105.797 36.2883C105.288 36.7973 104.869 37.4261 104.599 38.1147C104.3 38.8034 104.15 39.5519 104.15 40.3304C104.15 41.1089 104.3 41.8574 104.599 42.5461C104.899 43.2347 105.288 43.8336 105.797 44.3426C106.306 44.8516 106.905 45.2408 107.594 45.5402C108.282 45.8396 109.031 45.9894 109.809 45.9894C110.588 45.9894 111.336 45.8396 112.025 45.5402C112.714 45.2408 113.312 44.8516 113.821 44.3426C114.33 43.8336 114.75 43.2347 115.049 42.5461C115.348 41.8574 115.498 41.1089 115.498 40.3304C115.498 39.5519 115.348 38.8034 115.049 38.1147C114.75 37.4261 114.36 36.8272 113.821 36.2883C113.312 35.7793 112.714 35.3601 112.025 35.0906C111.336 34.7912 110.588 34.6415 109.809 34.6415Z" fill="#9295A1"/>
<path d="M130.918 47.9655C130.649 47.9655 130.409 47.8757 130.229 47.6661C130.05 47.4865 129.93 47.2469 129.93 46.9774V38.2644C129.93 37.7554 129.84 37.3063 129.631 36.8572C129.451 36.408 129.181 36.0188 128.822 35.6894C128.493 35.3601 128.074 35.0906 127.654 34.881C127.205 34.7014 126.726 34.5816 126.247 34.5816C125.738 34.5816 125.259 34.6714 124.84 34.881C124.391 35.0607 124.002 35.3301 123.672 35.6894C123.343 36.0188 123.073 36.438 122.894 36.8572C122.714 37.3063 122.594 37.7854 122.594 38.2644V46.9774C122.594 47.2469 122.504 47.4865 122.295 47.6661C122.115 47.8458 121.876 47.9356 121.606 47.9356C121.337 47.9356 121.097 47.8458 120.918 47.6362C120.738 47.4565 120.618 47.217 120.618 46.9475V38.2345C120.618 37.456 120.768 36.7374 121.067 36.0487C121.367 35.3601 121.756 34.7612 122.265 34.2522C122.774 33.7432 123.373 33.324 124.061 33.0546C124.75 32.7552 125.469 32.6054 126.247 32.6054C127.026 32.6054 127.744 32.7552 128.433 33.0546C129.122 33.354 129.72 33.7432 130.229 34.2522C130.738 34.7612 131.158 35.3601 131.427 36.0487C131.726 36.7374 131.876 37.4859 131.876 38.2345V46.9475C131.876 47.217 131.786 47.4565 131.607 47.6362C131.427 47.8757 131.188 47.9655 130.918 47.9655Z" fill="#9295A1"/>
<path d="M140.559 47.9655C139.811 47.9655 139.092 47.8457 138.434 47.6062C137.775 47.3667 137.176 47.0373 136.697 46.5882C136.188 46.169 135.799 45.66 135.499 45.0911C135.2 44.5222 135.08 43.8934 135.08 43.2347C135.08 42.9952 135.17 42.7557 135.35 42.576C135.529 42.3964 135.769 42.3065 136.008 42.3065C136.278 42.3065 136.487 42.3964 136.667 42.576C136.847 42.7557 136.936 42.9653 136.936 43.2347C136.936 43.624 137.026 43.9833 137.206 44.3126C137.386 44.642 137.625 44.9414 137.954 45.2109C138.284 45.4504 138.643 45.66 139.092 45.8097C139.541 45.9594 140.02 46.0493 140.529 46.0493C141.038 46.0493 141.518 45.9594 141.967 45.8097C142.416 45.66 142.805 45.4504 143.134 45.1809C143.464 44.9414 143.733 44.642 143.913 44.2827C144.093 43.9533 144.152 43.594 144.152 43.2048C144.122 42.8455 144.003 42.5161 143.823 42.2167C143.613 41.8874 143.374 41.6179 143.045 41.3484C142.745 41.1089 142.356 40.8993 141.937 40.7196C141.518 40.54 141.098 40.4202 140.619 40.3603C139.961 40.3304 139.332 40.1807 138.703 39.9711C138.104 39.7615 137.535 39.492 137.086 39.1627C136.607 38.8333 136.218 38.4441 135.948 37.9949C135.649 37.5458 135.499 37.0069 135.499 36.4679C135.499 35.899 135.649 35.39 135.918 34.911C136.188 34.4319 136.577 34.0127 137.026 33.6833C137.475 33.324 138.044 33.0546 138.673 32.845C139.302 32.6354 139.961 32.5456 140.649 32.5456C141.338 32.5456 142.027 32.6354 142.625 32.845C143.254 33.0546 143.793 33.324 144.272 33.6833C144.751 34.0426 145.111 34.4618 145.38 34.911C145.649 35.39 145.799 35.899 145.799 36.4679C145.799 36.7374 145.709 36.9769 145.5 37.1566C145.32 37.3362 145.081 37.456 144.811 37.456C144.542 37.456 144.302 37.3662 144.122 37.1566C143.943 36.9769 143.853 36.7075 143.823 36.408C143.823 36.1685 143.733 35.9589 143.584 35.7493C143.404 35.5098 143.194 35.3301 142.895 35.1505C142.595 34.9708 142.266 34.8211 141.877 34.7014C141.488 34.5816 141.068 34.5517 140.619 34.5517C140.17 34.5517 139.751 34.6115 139.332 34.7014C138.943 34.8211 138.583 34.9409 138.314 35.1505C138.044 35.3301 137.805 35.5397 137.655 35.8092C137.505 36.0487 137.416 36.2883 137.416 36.5278C137.416 36.7673 137.505 36.9769 137.685 37.1865C137.895 37.4261 138.164 37.6057 138.463 37.7854C138.793 37.965 139.152 38.1147 139.541 38.2345C139.931 38.3542 140.29 38.4441 140.619 38.474C141.338 38.5638 142.027 38.7135 142.685 38.983C143.344 39.2525 143.913 39.5819 144.392 39.9711C144.871 40.3903 145.26 40.8693 145.56 41.4083C145.829 41.9472 145.979 42.576 145.979 43.2048C145.979 43.8635 145.829 44.4923 145.56 45.0612C145.29 45.6301 144.871 46.1391 144.362 46.5583C143.853 46.9774 143.284 47.3068 142.625 47.5463C142.027 47.8458 141.308 47.9655 140.559 47.9655Z" fill="#9295A1"/>
<path d="M150.44 47.9655C150.171 47.9655 149.931 47.8757 149.752 47.6661C149.572 47.4864 149.452 47.2469 149.452 46.9774V33.5935C149.452 33.3241 149.542 33.0845 149.752 32.9049C149.931 32.7252 150.171 32.6054 150.44 32.6054H158.614C158.884 32.6054 159.123 32.6953 159.303 32.9049C159.483 33.0845 159.572 33.3241 159.572 33.5935C159.572 33.863 159.483 34.1025 159.303 34.2822C159.123 34.4618 158.884 34.5816 158.614 34.5816H151.428V39.2824H156.518C156.788 39.2824 157.027 39.3723 157.207 39.5819C157.387 39.7615 157.506 40.001 157.506 40.2705C157.506 40.54 157.417 40.7795 157.207 40.9592C157.027 41.1388 156.788 41.2286 156.518 41.2286H151.428V46.0193H158.614C158.884 46.0193 159.123 46.1091 159.303 46.3187C159.483 46.4984 159.572 46.7379 159.572 47.0074C159.572 47.2769 159.483 47.5164 159.303 47.696C159.123 47.8757 158.884 47.9955 158.614 47.9955H150.44V47.9655Z" fill="#9295A1"/>
<path d="M172.507 47.9655C172.238 47.9655 171.998 47.8757 171.819 47.696C171.639 47.5164 171.519 47.2769 171.519 47.0074V38.2944C171.519 37.7853 171.429 37.3362 171.22 36.8871C171.04 36.438 170.771 36.0487 170.411 35.7194C170.082 35.39 169.663 35.1205 169.244 34.911C168.795 34.7313 168.315 34.6115 167.836 34.6115C167.327 34.6115 166.848 34.7014 166.429 34.911C165.98 35.0906 165.591 35.3601 165.261 35.7194C164.932 36.0487 164.663 36.4679 164.483 36.8871C164.303 37.3362 164.184 37.8153 164.184 38.2944V47.0074C164.184 47.2769 164.094 47.5164 163.884 47.696C163.704 47.8757 163.465 47.9655 163.195 47.9655C162.926 47.9655 162.686 47.8757 162.507 47.696C162.327 47.5164 162.237 47.2769 162.237 47.0074V38.2944C162.237 37.5159 162.387 36.7973 162.686 36.1086C162.986 35.42 163.375 34.8211 163.884 34.3121C164.393 33.8031 164.992 33.3839 165.681 33.1145C166.369 32.815 167.118 32.6653 167.866 32.6653C168.645 32.6653 169.363 32.815 170.052 33.1145C170.711 33.4139 171.34 33.8031 171.849 34.3121C172.358 34.8211 172.777 35.42 173.046 36.1086C173.346 36.7973 173.495 37.5458 173.495 38.2944V47.0074C173.495 47.2769 173.406 47.5164 173.226 47.696C173.016 47.8757 172.777 47.9655 172.507 47.9655Z" fill="#9295A1"/>
<path d="M182.148 47.9655C181.4 47.9655 180.681 47.8457 180.022 47.6062C179.364 47.3667 178.765 47.0373 178.286 46.5882C177.777 46.169 177.388 45.66 177.088 45.0911C176.789 44.5222 176.669 43.8934 176.669 43.2347C176.669 42.9952 176.759 42.7557 176.938 42.576C177.118 42.3964 177.358 42.3065 177.597 42.3065C177.867 42.3065 178.076 42.3964 178.256 42.576C178.436 42.7557 178.525 42.9952 178.525 43.2347C178.525 43.624 178.615 43.9833 178.795 44.3126C178.974 44.642 179.214 44.9713 179.543 45.2109C179.873 45.4804 180.262 45.66 180.681 45.8397C181.13 45.9894 181.609 46.0792 182.118 46.0792C182.627 46.0792 183.106 45.9894 183.556 45.8397C184.005 45.6899 184.394 45.4804 184.723 45.2109C185.053 44.9713 185.322 44.642 185.502 44.3126C185.681 43.9833 185.741 43.624 185.711 43.2347C185.681 42.8754 185.562 42.5461 185.382 42.2467C185.172 41.9173 184.933 41.6478 184.603 41.3784C184.304 41.1388 183.915 40.9292 183.496 40.7496C183.076 40.5699 182.657 40.4502 182.178 40.3903C181.519 40.3603 180.891 40.2106 180.292 40.001C179.693 39.7914 179.124 39.522 178.675 39.1926C178.196 38.8632 177.807 38.474 177.537 38.0249C177.238 37.5758 177.088 37.0368 177.088 36.4979C177.088 35.9589 177.238 35.42 177.507 34.9409C177.777 34.4618 178.166 34.0426 178.645 33.7133C179.124 33.354 179.663 33.0845 180.262 32.8749C180.891 32.6653 181.549 32.5755 182.238 32.5755C182.927 32.5755 183.615 32.6653 184.214 32.8749C184.843 33.0845 185.382 33.354 185.861 33.7133C186.34 34.0726 186.699 34.4918 186.969 34.9409C187.238 35.42 187.388 35.9589 187.388 36.4979C187.388 36.7673 187.298 37.0069 187.089 37.1865C186.909 37.3662 186.669 37.4859 186.4 37.4859C186.131 37.4859 185.891 37.3961 185.711 37.1865C185.532 37.0069 185.442 36.7374 185.442 36.438C185.442 36.1984 185.352 35.9889 185.202 35.7793C185.053 35.5397 184.813 35.3601 184.514 35.1804C184.214 35.0008 183.885 34.8511 183.496 34.7313C183.106 34.6115 182.687 34.5816 182.238 34.5816C181.789 34.5816 181.37 34.6415 180.951 34.7313C180.561 34.8511 180.202 34.9708 179.933 35.1804C179.663 35.3601 179.424 35.5697 179.274 35.8391C179.124 36.0787 179.034 36.3182 179.034 36.5577C179.034 36.7973 179.124 37.0069 179.304 37.2165C179.513 37.456 179.783 37.6356 180.082 37.8153C180.412 37.9949 180.771 38.1447 181.16 38.2644C181.519 38.3842 181.909 38.474 182.238 38.504C182.957 38.5938 183.645 38.7435 184.304 39.013C184.963 39.2824 185.532 39.6118 186.011 40.001C186.49 40.4202 186.879 40.8993 187.149 41.4382C187.418 41.9772 187.568 42.606 187.568 43.2347C187.568 43.8934 187.418 44.5222 187.149 45.0911C186.879 45.66 186.46 46.169 185.951 46.5882C185.442 47.0074 184.873 47.3367 184.214 47.5763C183.615 47.8457 182.897 47.9655 182.148 47.9655Z" fill="#9295A1"/>
<path d="M196.909 47.9655C196.639 47.9655 196.4 47.8757 196.22 47.696C196.041 47.5164 195.921 47.2769 195.921 47.0074V42.0071L189.873 34.2223C189.723 34.0127 189.633 33.7732 189.663 33.5037C189.693 33.2342 189.813 33.0246 190.022 32.845C190.202 32.6953 190.412 32.6354 190.651 32.6354C190.98 32.6653 191.22 32.7851 191.4 32.9947L196.939 40.0909L202.568 32.9947C202.747 32.7851 202.957 32.6653 203.227 32.6354H203.256C203.556 32.6354 203.765 32.6953 203.945 32.845C204.155 33.0246 204.274 33.2342 204.304 33.5037C204.334 33.7732 204.245 34.0127 204.095 34.2223L197.957 42.0071V47.0074C197.957 47.2769 197.867 47.5164 197.687 47.696C197.418 47.8757 197.178 47.9655 196.909 47.9655Z" fill="#9295A1"/>
<path d="M211.64 47.9655C210.892 47.9655 210.173 47.8457 209.515 47.6062C208.856 47.3667 208.257 47.0373 207.778 46.5882C207.269 46.169 206.88 45.66 206.58 45.0911C206.281 44.5222 206.161 43.8934 206.161 43.2347C206.161 42.9952 206.251 42.7557 206.431 42.576C206.61 42.3964 206.85 42.3065 207.089 42.3065C207.329 42.3065 207.568 42.3964 207.748 42.576C207.928 42.7557 208.018 42.9952 208.018 43.2347C208.018 43.624 208.107 43.9833 208.287 44.3126C208.467 44.642 208.706 44.9414 209.036 45.2109C209.365 45.4504 209.754 45.66 210.173 45.8097C210.622 45.9594 211.102 46.0493 211.611 46.0493C212.12 46.0493 212.599 45.9594 213.048 45.8097C213.497 45.66 213.886 45.4504 214.215 45.1809C214.545 44.9414 214.814 44.612 214.994 44.2827C215.174 43.9533 215.233 43.594 215.204 43.2048C215.174 42.8455 215.054 42.5161 214.874 42.2167C214.665 41.8874 214.425 41.6179 214.096 41.3484C213.796 41.1089 213.407 40.8993 212.988 40.7196C212.569 40.54 212.149 40.4202 211.67 40.3603C211.012 40.3304 210.383 40.1807 209.754 39.9711C209.155 39.7615 208.586 39.492 208.137 39.1627C207.658 38.8333 207.269 38.4441 207 37.9949C206.7 37.5458 206.55 37.0069 206.55 36.4679C206.55 35.929 206.7 35.39 206.97 34.911C207.239 34.4319 207.628 34.0127 208.107 33.6833C208.556 33.324 209.125 33.0546 209.724 32.845C210.353 32.6354 211.012 32.5456 211.7 32.5456C212.389 32.5456 213.078 32.6354 213.676 32.845C214.305 33.0546 214.844 33.324 215.293 33.6833C215.772 34.0426 216.132 34.4319 216.431 34.911C216.701 35.39 216.85 35.929 216.85 36.4679C216.85 36.7374 216.76 36.9769 216.551 37.1566C216.371 37.3362 216.132 37.456 215.862 37.456C215.593 37.456 215.353 37.3662 215.174 37.1566C214.994 36.9769 214.904 36.7075 214.874 36.408C214.874 36.1685 214.784 35.9589 214.635 35.7493C214.455 35.5098 214.245 35.3301 213.946 35.1505C213.647 34.9708 213.317 34.8211 212.928 34.7014C212.539 34.5816 212.12 34.5517 211.67 34.5517C211.221 34.5517 210.802 34.6115 210.383 34.7014C209.994 34.8211 209.634 34.9409 209.365 35.1505C209.095 35.3301 208.856 35.5397 208.706 35.8092C208.556 36.0487 208.467 36.2883 208.467 36.5278C208.467 36.7673 208.556 36.9769 208.736 37.1865C208.946 37.4261 209.215 37.6057 209.515 37.7854C209.844 37.965 210.203 38.1147 210.593 38.2345C210.982 38.3542 211.341 38.4441 211.67 38.474C212.389 38.5638 213.078 38.7135 213.736 38.983C214.395 39.2525 214.964 39.5819 215.443 39.9711C215.922 40.3903 216.311 40.8693 216.581 41.4083C216.85 41.9472 217 42.5461 217 43.2048C217 43.8635 216.85 44.4923 216.581 45.0612C216.311 45.6301 215.892 46.1391 215.383 46.5583C214.874 46.9774 214.305 47.3068 213.647 47.5463C213.108 47.8458 212.389 47.9655 211.64 47.9655Z" fill="#9295A1"/>
</svg>
