<svg width="254" height="80" viewBox="0 0 254 80" fill="none" xmlns="http://www.w3.org/2000/svg">
<rect width="253" height="80" transform="translate(0.5)" fill="white"/>
<g clip-path="url(#clip0)">
<path d="M57.0216 37.188C56.9473 37.0173 56.8318 36.8419 56.689 36.6985C56.4287 36.438 56.1723 36.2845 55.8098 36.1636C55.6141 36.0987 55.3069 36.1506 55.1633 36.2384C55.0104 36.3321 54.91 36.4549 54.8649 36.6186C54.8119 36.8129 54.8523 36.995 54.957 37.1589C54.9631 37.2011 54.9696 37.2434 54.9777 37.2832C54.9846 37.3147 54.9974 37.3458 55.0059 37.3773C53.2492 37.744 51.3873 37.8626 49.496 37.7732C51.3812 37.162 53.0632 36.2476 54.3876 35.0133C54.778 35.1204 55.2441 35.067 55.5615 34.9692C55.7643 34.9067 56.015 34.8027 56.2216 34.6684C56.3344 34.7781 56.4872 34.8553 56.6548 34.8526C56.8558 34.8491 56.9997 34.7321 57.0309 34.574C57.0675 34.5161 57.0863 34.4485 57.0821 34.3745C57.0663 34.0787 56.704 33.8358 56.386 33.9095C56.1593 33.962 56.0357 34.1439 56.0573 34.353C56.018 34.3695 55.9784 34.3856 55.9372 34.3987C55.7446 34.4589 55.5402 34.4881 55.3339 34.5168C55.1815 34.5383 55.0159 34.5445 54.8495 34.551C55.0878 34.2981 55.3119 34.0334 55.5214 33.7564C55.5391 33.7633 55.5556 33.7721 55.5737 33.7782C56.3584 34.0438 56.9881 33.4728 56.8588 32.8233C56.716 32.105 55.6684 31.536 54.9358 31.7482C54.617 31.8406 54.3803 32.1188 54.463 32.4453C54.5126 32.6418 54.6555 32.8482 54.8519 32.9867C54.8822 33.2131 55.0135 33.4252 55.2157 33.5837C54.8623 33.949 54.4957 34.3027 54.1089 34.6381C54.1077 34.6385 54.1069 34.6385 54.1058 34.6388C54.0584 34.6534 54.0353 34.6826 54.0229 34.7152C53.9798 34.752 53.9333 34.7858 53.8898 34.8223C53.5942 34.33 53.1941 33.845 52.7822 33.3942C52.8588 33.2967 52.9143 33.1862 52.9254 33.0611C52.95 32.7814 52.7818 32.5562 52.5504 32.3429C52.2913 32.1038 51.8335 32.1441 51.648 32.3348C51.6441 32.339 51.6433 32.3402 51.6411 32.3429C51.6057 32.3686 51.5679 32.3935 51.5399 32.4215C51.5383 32.4231 51.5368 32.425 51.5352 32.4265C51.3361 32.4868 51.1614 32.5965 51.0459 32.7384C50.8204 33.0155 50.9165 33.4832 51.3674 33.6766C51.8278 33.8742 52.2714 33.8189 52.5981 33.5745C52.7137 33.7606 52.8241 33.9482 52.9273 34.1377C53.1179 34.4869 53.24 34.8495 53.419 35.2006C52.0534 36.2631 50.4922 37.1297 48.7106 37.7207C46.992 37.5713 45.2834 37.2195 43.564 37.0146C45.3939 33.8366 47.0648 30.5783 47.7177 26.9483C47.9826 26.9064 48.2078 26.7725 48.3418 26.5776C48.4553 26.4122 48.4977 26.2323 48.4699 26.0224C48.4257 25.6863 48.0915 25.3955 47.7134 25.3092C47.4886 25.2577 47.23 25.313 47.0813 25.4488C46.989 25.4718 46.9018 25.5048 46.8307 25.5536C46.6182 25.6994 46.4865 25.8954 46.5003 26.1556C46.5204 26.5293 46.8703 26.8481 47.2977 26.9379C47.3438 26.9475 47.3897 26.9532 47.4352 26.9575C47.0477 28.765 46.4156 30.4835 45.6392 32.1457C45.2411 31.5893 44.672 31.089 44.2116 30.5626C44.0795 30.4118 43.9564 30.2564 43.8289 30.1033C43.8139 29.9936 43.7369 29.8811 43.6087 29.8389C43.3065 29.4664 43.0105 29.0907 42.7225 28.7105C42.6744 28.6468 42.6293 28.5816 42.5816 28.5179C42.5828 28.5164 42.5842 28.516 42.585 28.5145C43.1287 27.7026 43.5483 26.8151 44.1189 26.0155C44.254 26.0873 44.3972 26.1433 44.5446 26.1655C44.8014 26.2043 45.0343 26.1697 45.1899 26.009C45.3535 25.8394 45.3397 25.6341 45.2584 25.4078C45.1883 25.2121 45.0304 25.0172 44.8496 24.8721C44.6755 24.7325 44.4885 24.6626 44.2951 24.6392C44.267 24.6246 44.2412 24.6055 44.2128 24.5928C43.9984 24.4988 43.6723 24.4988 43.551 24.6665C43.4409 24.8188 43.3642 24.9596 43.4051 25.1672C43.4362 25.3257 43.5282 25.501 43.643 25.6387C43.6849 25.689 43.7354 25.7362 43.7859 25.7826C43.0778 26.39 42.4645 27.0887 42.162 27.9447C41.5272 27.0576 40.943 26.149 40.4102 25.2247C40.4261 25.2213 40.443 25.2217 40.4588 25.2171C40.7648 25.1277 40.9789 24.9097 41.0263 24.627C41.0832 24.2882 40.8372 23.9079 40.4565 23.7211C40.1388 23.5649 39.8423 23.5764 39.5325 23.6163C39.5259 23.6171 39.5144 23.6186 39.5021 23.6202C39.5009 23.6202 39.4997 23.6205 39.4987 23.6205C39.4967 23.6205 39.4955 23.6209 39.494 23.6213C39.4485 23.6275 39.3963 23.6347 39.4544 23.6275C39.3778 23.6367 39.3085 23.652 39.2423 23.6735C39.2457 23.6708 39.2449 23.6693 39.2299 23.6704C39.1852 23.6743 39.089 23.7165 39.0535 23.736C38.9515 23.7921 38.853 23.8895 38.8125 23.9893C38.6947 24.2801 38.8749 24.5993 39.1768 24.7843C39.4412 25.0613 39.8451 25.2554 40.2182 25.2489C40.7313 26.4848 41.3539 27.6865 42.1315 28.8571C42.331 29.1575 42.5474 29.4817 42.7795 29.814C40.6024 29.7039 38.6563 28.6626 37.0397 27.1988C37.1198 27.1489 37.1918 27.0917 37.2469 27.0242C37.4042 26.8309 37.4771 26.6087 37.4451 26.3497C37.4042 26.0151 37.0736 25.6464 36.6717 25.5766C36.401 25.5294 36.1808 25.5892 36.0288 25.7316C35.9644 25.7523 35.901 25.7738 35.847 25.8083C35.5259 26.0121 35.3993 26.3182 35.4401 26.6896C35.4651 26.9183 35.6857 27.1217 35.9132 27.2399C36.2305 27.4048 36.5955 27.3956 36.8834 27.2786C38.3482 29.0378 40.841 30.0753 43.136 30.3097C43.7585 31.1531 44.478 31.991 45.2819 32.5551C45.3281 32.5877 45.3734 32.6069 45.4177 32.6195C43.8566 35.8321 41.8031 38.8491 40.0361 41.9231C40.0138 41.8932 39.9884 41.8632 39.9525 41.8356C39.1722 41.2386 38.3121 40.7283 37.4948 40.1658C37.7165 39.4331 37.8805 38.681 38.1615 37.9658C38.3952 37.3711 38.7101 36.824 39.0112 36.2684C39.042 36.2917 39.0698 36.3193 39.1025 36.3397C39.2553 36.4364 39.3963 36.5043 39.5763 36.5243C39.7362 36.542 39.8974 36.5228 40.0218 36.4506C40.4746 36.1867 40.4919 35.628 40.1239 35.1875C39.9833 35.0191 39.7919 34.8721 39.5798 34.7793C39.188 34.6081 38.7213 34.6442 38.5004 34.9216C38.356 35.1023 38.3068 35.3195 38.4272 35.5597C38.463 35.6307 38.5165 35.6967 38.577 35.7584C38.6162 35.8302 38.6589 35.9004 38.7055 35.9652C38.7152 35.9787 38.729 35.9906 38.739 36.0036C37.8362 37.0116 37.1252 38.394 36.858 39.7013C36.816 39.6694 36.7714 39.6405 36.7302 39.608C35.6511 38.7597 34.647 37.8391 33.7354 36.8588C33.454 36.5562 33.1852 36.2472 32.9223 35.9353C32.9323 35.9169 32.9465 35.9027 32.9523 35.8808C33.1521 35.1311 33.2464 34.3737 33.5556 33.6597C33.7026 33.3197 33.8809 32.9963 34.063 32.6751C34.3098 32.8336 34.6031 32.9299 34.8919 32.9149C35.1941 32.8996 35.4393 32.735 35.4655 32.4668C35.4913 32.2021 35.3947 31.9128 35.1918 31.6733C35.0774 31.5383 34.9111 31.3768 34.7383 31.3046C34.5527 31.2267 34.3614 31.1926 34.1696 31.1918C34.0503 31.1914 33.9548 31.2214 33.8709 31.2624C33.7015 31.2739 33.5552 31.3495 33.4963 31.5049C33.3719 31.8326 33.5263 32.1998 33.8128 32.4776C33.144 33.2668 32.6108 34.2463 32.3286 35.2052C31.4593 34.0956 30.6947 32.9376 30.0118 31.7524C30.4368 31.6173 30.7756 31.3173 30.8191 30.9037C30.8618 30.4935 30.6024 30.0569 30.1954 29.7733C29.7461 29.4599 29.1929 29.3578 28.7105 29.476C28.4757 29.5335 28.2797 29.6367 28.1053 29.7691C27.8709 29.9468 27.7777 30.147 27.7088 30.4214C27.648 30.6627 27.8362 30.9781 28.063 31.1669C28.4291 31.6357 29.1336 31.9005 29.7531 31.8119C30.3787 33.238 31.2249 34.6116 32.2401 35.9119C32.2559 35.938 32.2728 35.9622 32.2963 35.9833C32.6012 36.3708 32.9157 36.7537 33.2488 37.127C33.8493 37.8008 34.4953 38.4493 35.1748 39.0704C34.5481 38.8963 33.9086 38.77 33.2888 38.534C32.555 38.2546 31.8401 37.9271 31.1544 37.5487C31.1948 37.4504 31.2168 37.3412 31.2102 37.2195C31.1933 36.9002 30.9966 36.5861 30.6921 36.3585C30.2555 36.0324 29.5621 35.9817 29.2765 36.3527C29.1298 36.543 29.0882 36.7653 29.1887 37.0012C29.1598 37.0434 29.1367 37.0844 29.1209 37.1217C29.0004 37.4045 29.1779 37.7217 29.5109 37.8978C30.0676 38.1922 30.7159 38.1032 31.0266 37.7536C32.406 38.7162 34.2447 39.6628 35.8181 39.6391C35.9398 39.7433 36.0591 39.8504 36.1828 39.9528C36.3683 40.1067 36.5608 40.2653 36.7564 40.4245C36.756 40.4295 36.7552 40.4344 36.7548 40.4394C36.741 40.6377 36.9982 40.7928 37.1821 40.7652C37.9421 41.3641 38.7609 41.9458 39.6103 42.3322C39.671 42.3598 39.7277 42.3689 39.7816 42.3709C39.7222 42.4756 39.6615 42.58 39.6029 42.6851C37.9532 45.6549 36.3137 48.625 34.2751 51.3353C33.6149 50.701 32.8549 50.1102 32.1823 49.5067C32.1623 49.4886 32.1431 49.4702 32.123 49.4525C32.4457 48.333 32.5762 47.152 32.93 46.0382C33.253 45.0206 33.6503 44.0475 34.0476 43.0649C34.3167 43.2423 34.6278 43.3611 34.9535 43.4398C35.6087 43.5983 36.0253 42.9617 35.6087 42.4779C35.0563 41.8364 34.1204 41.514 33.3284 41.6453C32.9592 41.7064 32.7906 42.0846 32.9065 42.4C33.0151 42.6951 33.32 42.9395 33.6653 42.9897C33.0763 43.8343 32.5985 44.7755 32.2609 45.7296C31.9121 46.7146 31.5529 47.7908 31.4936 48.8778C30.756 48.1914 30.0461 47.4851 29.392 46.7411C28.6609 45.9096 27.9995 45.0474 27.4401 44.1534C27.4628 44.1336 27.4843 44.1116 27.4982 44.0794C27.9152 43.0948 28.5392 42.2393 29.2484 41.4301C29.6079 41.6465 30.0464 41.7412 30.3922 41.5805C30.5169 41.5225 30.577 41.376 30.5477 41.2458C30.5404 41.2129 30.5338 41.1799 30.5261 41.1473C30.5234 41.1377 30.5207 41.1282 30.518 41.1185C30.4591 40.9543 30.4526 40.9336 30.498 41.0563C30.523 41.0368 30.4557 40.833 30.4511 40.8005C30.4145 40.5361 30.1708 40.2902 29.8974 40.1563C29.8863 40.1509 29.8751 40.1452 29.8636 40.1398C29.6203 40.0204 29.3504 40.0181 29.1344 40.1009C28.8895 40.1946 28.8025 40.3561 28.7421 40.5786C28.739 40.5898 28.7359 40.6009 28.7332 40.612C28.6732 40.8338 28.8561 41.1331 29.0663 41.3039C28.2147 41.8963 27.5748 42.6556 27.0616 43.5111C26.6709 42.8091 26.351 42.0866 26.1169 41.3426C26.1269 41.3288 26.1361 41.3146 26.1446 41.2992C26.2224 41.2444 26.2967 41.1875 26.3633 41.1346C26.4175 41.0913 26.4757 41.0518 26.5307 41.0087C26.6451 40.9673 26.7221 40.873 26.739 40.7632C26.7856 40.6907 26.766 40.6006 26.6832 40.5376C26.672 40.5215 26.662 40.5046 26.6474 40.4892C26.4087 40.2379 26.0318 40.02 25.678 40.0527C25.2403 40.0929 24.9115 40.2744 24.7479 40.6167C24.6081 40.909 24.8083 41.3434 25.1944 41.5053C25.4351 41.6061 25.688 41.6119 25.8828 41.5295C26.2235 42.8785 26.8541 44.2045 27.698 45.4511C26.7051 44.9627 25.4582 44.7129 24.349 44.5376C24.3533 44.5279 24.3556 44.518 24.3598 44.5083C24.5169 44.168 24.324 43.7338 23.9271 43.4963C23.5633 43.2787 22.9823 43.2456 22.7594 43.5496C22.7182 43.606 22.6813 43.6617 22.6482 43.7179C22.647 43.7177 22.6458 43.7169 22.6447 43.7165C22.642 43.7241 22.6397 43.7326 22.637 43.7402C22.56 43.878 22.513 44.0234 22.5169 44.1987C22.4919 44.36 22.4907 44.5268 22.5407 44.6879C22.6208 44.9446 22.7833 45.1971 23.0882 45.3249C23.3049 45.4159 23.5332 45.4515 23.7438 45.4005C23.9436 45.3521 24.113 45.2213 24.1893 45.0579C24.21 45.006 24.2224 44.9523 24.2366 44.8993C24.2385 44.8944 24.2428 44.8906 24.2443 44.8855C24.2478 44.8748 24.2501 44.8641 24.2532 44.8533C24.8718 45.0414 25.4882 45.2389 26.0992 45.4557C26.7906 45.7012 27.4847 46.0481 28.1993 46.1494C28.3309 46.3229 28.463 46.4959 28.602 46.6655C29.4043 47.6419 30.3117 48.5608 31.2561 49.4453C32.0803 50.2172 32.9796 51.084 33.941 51.7769C32.6031 53.4992 31.0909 55.108 29.293 56.5331C29.0089 56.7584 29.5375 57.2594 29.8393 57.048C31.7877 55.6832 33.3719 54.0315 34.739 52.2266C34.8618 52.214 34.9515 52.1265 34.9 52.0099C35.417 51.3142 35.9048 50.5982 36.3671 49.8658C37.3026 50.4279 38.5701 50.48 39.5861 50.5737C40.9908 50.7033 42.3822 50.6911 43.7304 50.5476C44.4468 50.4713 45.1387 50.3562 45.8082 50.2058C47.2141 51.4869 49.6037 52.2925 51.3855 51.9327C51.4028 51.993 51.4243 52.0501 51.4509 52.1003C51.6453 52.4664 52.1072 52.5968 52.4514 52.4437C52.9659 52.2147 53.1433 51.6729 53.2845 51.237C53.4267 50.7989 53.1453 50.4114 52.6093 50.2357C52.1743 50.0929 51.7758 50.2138 51.509 50.4551C51.2938 50.6497 51.3038 50.9121 51.4347 51.1472C51.3816 51.2555 51.3519 51.3818 51.3428 51.5114C50.5538 51.5221 49.7416 51.4988 48.9473 51.3272C47.9005 51.1013 47.1117 50.6685 46.2593 50.0948C47.6873 49.7323 49.0016 49.1905 50.1923 48.4518C50.7148 48.8574 51.4913 48.8555 51.7323 48.3234C51.8593 48.0433 51.7277 47.6649 51.482 47.4014C51.1676 47.0634 50.7198 46.9194 50.2752 46.8937C49.9861 46.8768 49.7207 47.0941 49.7089 47.3358C49.7057 47.4017 49.7193 47.4746 49.7427 47.5479C49.7431 47.7271 49.7924 47.9185 49.8771 48.0847C48.1045 48.9165 46.1224 49.5304 44.0553 49.8251C42.893 49.9909 41.6887 50.0472 40.47 50.0013C40.3798 49.9978 40.2778 49.9943 40.1792 49.9912C40.8842 48.4703 41.7877 47.0729 42.8319 45.7442C42.97 45.8217 43.1129 45.8905 43.2592 45.9426C43.7281 46.1111 44.2051 46.024 44.3198 45.605C44.416 45.2538 44.1735 44.9236 43.8013 44.7452C43.7589 44.6745 43.7115 44.6078 43.6619 44.5514C43.3658 44.2129 42.8079 43.9424 42.3629 43.934C42.098 43.929 41.8698 44.0652 41.7781 44.2621C41.6757 44.4823 41.755 44.6964 41.9051 44.9189C42.0719 45.1664 42.3082 45.3908 42.5754 45.5789C41.2864 46.8766 40.2143 48.3346 39.2927 49.8715C39.2764 49.8985 39.2673 49.9253 39.2614 49.9518C38.3655 49.9015 37.3674 49.7906 36.6124 49.4717C37.8933 47.391 39.0013 45.2048 40.1099 43.0746C41.0775 41.216 42.1816 39.3946 43.2527 37.5534C44.0838 37.7417 44.9392 37.889 45.7993 38.0057C46.0704 38.9138 46.9435 39.8455 47.5559 40.6332C48.1919 41.4508 48.9177 41.9979 49.8032 42.5244C49.7709 42.5466 49.737 42.5662 49.7065 42.5919C49.6376 42.6506 49.5941 42.717 49.5691 42.7864C49.4647 42.8985 49.3751 43.022 49.3131 43.1624C49.1895 43.4417 49.4289 43.926 49.8605 43.9746C50.6705 44.066 51.3304 43.723 51.5799 43.1026C51.6699 42.8793 51.6106 42.6111 51.3889 42.4078C51.1914 42.2266 50.8342 42.0805 50.5843 42.1736C50.4329 42.23 50.2821 42.2811 50.1393 42.3409C49.3842 41.6726 48.644 40.9443 47.9371 40.2503C47.2576 39.5826 46.9018 38.7888 46.354 38.0766C47.5191 38.2159 48.6852 38.302 49.8055 38.3522C50.5796 38.3867 51.3381 38.3809 52.0745 38.3211C52.2208 38.6069 52.5165 38.8491 52.7865 39.0666C52.8714 39.1352 52.9592 39.1997 53.0494 39.2592C52.8934 39.3896 52.781 39.5515 52.7479 39.7569C52.6956 40.0799 52.9724 40.3996 53.3188 40.543C53.6476 40.8097 54.1174 40.9236 54.4988 40.82C55.0456 40.6715 55.248 40.187 55.2453 39.7013C55.2437 39.4448 55.1522 39.2009 54.8969 39.0075C54.6579 38.8264 54.3194 38.7412 54.0522 38.8137C53.8589 38.8662 53.6545 38.9307 53.4647 39.0141C53.3682 38.9327 53.2723 38.8518 53.1752 38.7692C52.9874 38.6093 52.8299 38.4262 52.6555 38.2585C53.5121 38.1522 54.3348 37.9623 55.114 37.6684C55.2181 37.8933 55.3616 38.1096 55.5406 38.3069C55.8909 38.6929 56.5535 38.8126 56.8688 38.4668C57.186 38.1162 57.2276 37.6611 57.0216 37.188ZM56.1897 32.8785C56.1893 32.8812 56.1897 32.8892 56.1897 32.8962C56.1893 32.8892 56.1889 32.882 56.1885 32.875C56.1889 32.8762 56.1893 32.8773 56.1897 32.8785ZM55.6072 33.1294C55.6056 33.1283 55.6015 33.126 55.6011 33.1256C55.5987 33.1202 55.5964 33.1149 55.5942 33.1099C55.5983 33.1168 55.6029 33.1229 55.6072 33.1294ZM35.8835 26.2937C35.8928 26.3463 35.8825 26.4134 35.8835 26.2937V26.2937ZM36.7995 26.5872C36.8083 26.5745 36.8168 26.5619 36.8257 26.5492C36.8257 26.55 36.8257 26.5508 36.8257 26.5515C36.8168 26.5634 36.8083 26.5753 36.7995 26.5872ZM39.4038 36.093C39.3427 36.0861 39.2815 36.0796 39.2207 36.0731C39.2122 36.0703 39.2037 36.0674 39.1956 36.0647C39.2611 36.0765 39.3276 36.0857 39.4038 36.093ZM34.6116 31.7658C34.612 31.7666 34.6124 31.7677 34.6128 31.7689C34.612 31.7677 34.6116 31.767 34.6116 31.7658ZM34.6112 31.7647H34.6108C34.6101 31.7627 34.6089 31.7608 34.6081 31.7589C34.6085 31.7585 34.6097 31.7608 34.6112 31.7647ZM55.4046 37.637C55.405 37.6366 55.4054 37.635 55.4058 37.6343C55.4074 37.6416 55.4089 37.6484 55.4101 37.6488C55.4074 37.6477 55.4058 37.6428 55.4046 37.637ZM55.464 37.6032C55.4475 37.5952 55.4367 37.5901 55.4278 37.5868C55.427 37.586 55.4259 37.5843 55.4251 37.5837C55.4259 37.5837 55.4266 37.5837 55.4274 37.5833C55.4378 37.589 55.454 37.5975 55.4713 37.6063C55.4682 37.6055 55.467 37.6047 55.464 37.6032Z" fill="#9295A1"/>
<path d="M82.1921 47.0545C79.9146 49.0961 77.5595 49.7596 75.3855 49.7596H74.4279V40.7766H74.6867C77.4818 40.7766 79.4487 41.3891 79.9146 42.2056H79.9663V39.0922H79.9146C79.4487 39.8578 77.4818 40.3173 74.6867 40.3173H74.4279V32.0998H75.2044C77.3783 32.0998 79.7594 32.8654 81.7263 34.5497H81.778L81.4156 31.6404H69.2002V50.2191H81.6227L82.2438 47.0545H82.1921Z" fill="#9295A1"/>
<path d="M98.7616 49.4024L98.1922 47.718V29.5477H98.0887L93.3268 30.8493V36.9486C92.4986 36.3871 91.4633 36.0298 90.1952 36.0298C86.2097 36.0298 83.0264 39.1943 83.0264 43.6094C83.0264 47.6925 85.718 50.5252 89.0565 50.5252C90.894 50.5252 92.2398 49.6576 93.3785 48.3816L94.1031 50.5252L98.7616 49.4024ZM90.7905 49.1981C89.0824 49.1981 88.1506 48.0243 88.1506 43.2775C88.1506 38.9646 88.9271 36.4637 90.868 36.4637C92.1362 36.4637 93.0162 37.5866 93.3268 39.1178V47.7945C92.395 48.8664 91.6704 49.1981 90.7905 49.1981Z" fill="#9295A1"/>
<path d="M113.956 46.5952C112.61 48.1264 111.109 48.6877 109.634 48.6877C106.994 48.6877 105.26 46.8759 105.208 42.4354H114.215C114.422 39.2198 112.791 36.0298 108.029 36.0298C103.5 36.0298 100.188 38.9391 100.188 43.6348C100.188 47.9221 103.241 50.5252 107.331 50.5252C109.867 50.5252 112.325 49.6065 114.266 46.7737L113.956 46.5952ZM107.796 36.4382C109.349 36.4382 110.488 38.6329 110.022 42.0271H105.208C105.26 38.9646 106.114 36.4382 107.796 36.4382Z" fill="#9295A1"/>
<path d="M125.441 36.0298C123.37 36.0298 122.102 36.8975 121.041 38.0459V35.8767H120.938L116.176 36.923V50.2191H121.041V38.5563C121.869 37.6886 122.568 37.4079 123.319 37.4079C125.234 37.4079 125.26 39.5006 125.26 40.3938V50.2191H130.125V40.9552C130.125 37.5866 128.365 36.0298 125.441 36.0298Z" fill="#9295A1"/>
<path d="M147.776 40.3683V40.3173C150.985 39.9089 153.547 38.3777 153.547 35.7491C153.547 32.993 150.881 31.6404 146.559 31.6404H138.07V50.2191H146.559C151.58 50.2191 154.478 48.2795 154.478 45.0639C154.478 41.8995 151.709 40.5725 147.776 40.3683ZM148.112 36.2595C148.112 38.6074 147.154 40.4449 145.291 40.4449H143.298V32.0487H145.032C147.232 32.0487 148.112 33.9627 148.112 36.2595ZM144.851 49.8107C144.437 49.8107 143.635 49.7596 143.298 49.632V40.8531H145.602C147.646 40.8531 148.785 42.716 148.785 45.4723C148.785 48.2029 147.646 49.8107 144.851 49.8107Z" fill="#9295A1"/>
<path d="M156.361 50.219H161.228V29.5477H161.124L156.361 30.8493V50.219Z" fill="#9295A1"/>
<path d="M170.957 50.5252C175.461 50.5252 178.877 47.616 178.877 43.201C178.877 38.7605 175.616 36.0298 171.19 36.0298C166.687 36.0298 163.271 38.9391 163.271 43.3542C163.271 47.7945 166.533 50.5252 170.957 50.5252ZM171.113 50.168C169.223 50.168 168.396 47.3608 168.396 43.2266C168.396 39.1433 168.99 36.3871 171.036 36.3871C172.924 36.3871 173.753 39.2198 173.753 43.3796C173.753 47.4628 173.132 50.168 171.113 50.168Z" fill="#9295A1"/>
<path d="M187.088 50.5252C189.934 50.5252 191.902 49.0451 193.48 46.7228L193.17 46.5441C191.927 48.1264 190.634 48.6877 189.313 48.6877C186.881 48.6877 185.431 46.7993 185.431 42.3332C185.431 38.5818 186.441 36.4382 188.356 36.4382C189.909 36.4382 190.763 37.8162 191.798 39.5517L193.299 38.2246C192.213 37.1273 190.478 36.0298 187.916 36.0298C183.697 36.0298 180.255 38.8881 180.255 43.5327C180.255 47.8712 183.283 50.5252 187.088 50.5252Z" fill="#9295A1"/>
<path d="M195.006 30.8493V50.219H199.871V29.5477H199.769L195.006 30.8493ZM208.697 36.3361H206.42C205.591 37.561 204.634 38.5053 202.615 40.2407L200.311 42.2312L208.489 51.2908H208.645V44.8087L204.012 39.7047C205.565 38.4033 206.937 37.459 208.697 36.3871V36.3361Z" fill="#9295A1"/>
</g>
<defs>
<clipPath id="clip0">
<rect width="208" height="46" fill="white" transform="translate(22.5 17)"/>
</clipPath>
</defs>
</svg>
