<svg width="254" height="80" viewBox="0 0 254 80" fill="none" xmlns="http://www.w3.org/2000/svg">
<rect width="253" height="80" transform="translate(0.5)" fill="white"/>
<path d="M54.818 45.248C53.534 45.248 52.412 44.978 51.452 44.438C50.504 43.898 49.772 43.136 49.256 42.152C48.752 41.168 48.5 40.028 48.5 38.732C48.5 37.436 48.752 36.296 49.256 35.312C49.772 34.328 50.504 33.572 51.452 33.044C52.412 32.504 53.534 32.234 54.818 32.234C55.658 32.234 56.462 32.366 57.23 32.63C57.998 32.882 58.628 33.236 59.12 33.692L58.22 35.69C57.668 35.27 57.116 34.964 56.564 34.772C56.024 34.58 55.46 34.484 54.872 34.484C53.744 34.484 52.874 34.844 52.262 35.564C51.662 36.284 51.362 37.34 51.362 38.732C51.362 40.124 51.662 41.186 52.262 41.918C52.874 42.638 53.744 42.998 54.872 42.998C55.46 42.998 56.024 42.902 56.564 42.71C57.116 42.518 57.668 42.212 58.22 41.792L59.12 43.79C58.628 44.246 57.998 44.606 57.23 44.87C56.462 45.122 55.658 45.248 54.818 45.248Z" fill="#9497A1"/>
<path d="M66.3872 36.032C67.4432 36.032 68.2292 36.344 68.7452 36.968C69.2612 37.58 69.5192 38.51 69.5192 39.758V45.086H66.8012V39.884C66.8012 39.284 66.6872 38.846 66.4592 38.57C66.2432 38.294 65.9012 38.156 65.4332 38.156C64.8692 38.156 64.4132 38.336 64.0652 38.696C63.7292 39.056 63.5612 39.536 63.5612 40.136V45.086H60.8432V32.396H63.5612V37.418C63.8732 36.962 64.2692 36.62 64.7492 36.392C65.2412 36.152 65.7872 36.032 66.3872 36.032Z" fill="#9497A1"/>
<path d="M77.8663 38.264L76.3363 38.426C75.5803 38.498 75.0463 38.714 74.7343 39.074C74.4223 39.422 74.2663 39.89 74.2663 40.478V45.086H71.5483V36.248H74.1583V37.742C74.6023 36.722 75.5203 36.164 76.9123 36.068L77.7043 36.014L77.8663 38.264Z" fill="#9497A1"/>
<path d="M78.7729 45.086V36.248H81.4909V45.086H78.7729ZM78.6829 32H81.5989V34.538H78.6829V32Z" fill="#9497A1"/>
<path d="M86.9737 45.23C86.1577 45.23 85.4077 45.14 84.7237 44.96C84.0517 44.768 83.4697 44.498 82.9777 44.15L83.6977 42.278C84.1777 42.602 84.7057 42.854 85.2817 43.034C85.8577 43.214 86.4397 43.304 87.0277 43.304C87.4477 43.304 87.7717 43.238 87.9997 43.106C88.2397 42.962 88.3597 42.77 88.3597 42.53C88.3597 42.314 88.2757 42.146 88.1077 42.026C87.9517 41.906 87.6517 41.798 87.2077 41.702L85.7677 41.378C84.9157 41.186 84.2857 40.892 83.8777 40.496C83.4817 40.088 83.2837 39.536 83.2837 38.84C83.2837 38.288 83.4397 37.802 83.7517 37.382C84.0757 36.962 84.5257 36.632 85.1017 36.392C85.6897 36.152 86.3557 36.032 87.0997 36.032C87.7357 36.032 88.3537 36.128 88.9537 36.32C89.5537 36.512 90.0937 36.782 90.5737 37.13L89.8537 38.93C88.9177 38.282 87.9937 37.958 87.0817 37.958C86.6617 37.958 86.3317 38.03 86.0917 38.174C85.8517 38.318 85.7317 38.522 85.7317 38.786C85.7317 38.978 85.8037 39.128 85.9477 39.236C86.0917 39.344 86.3437 39.446 86.7037 39.542L88.1977 39.884C89.0977 40.088 89.7517 40.4 90.1597 40.82C90.5797 41.228 90.7897 41.786 90.7897 42.494C90.7897 43.346 90.4477 44.018 89.7637 44.51C89.0917 44.99 88.1617 45.23 86.9737 45.23Z" fill="#9497A1"/>
<path d="M97.1513 43.232C97.4273 43.232 97.7153 43.214 98.0153 43.178L97.8713 45.158C97.5233 45.206 97.1753 45.23 96.8273 45.23C95.4833 45.23 94.4993 44.936 93.8753 44.348C93.2633 43.76 92.9573 42.866 92.9573 41.666V38.282H91.2833V36.248H92.9573V33.656H95.6753V36.248H97.8893V38.282H95.6753V41.648C95.6753 42.704 96.1673 43.232 97.1513 43.232Z" fill="#9497A1"/>
<path d="M103.464 45.23C102.528 45.23 101.706 45.044 100.998 44.672C100.29 44.288 99.7443 43.754 99.3603 43.07C98.9763 42.374 98.7843 41.558 98.7843 40.622C98.7843 39.686 98.9763 38.876 99.3603 38.192C99.7443 37.496 100.29 36.962 100.998 36.59C101.706 36.218 102.528 36.032 103.464 36.032C104.4 36.032 105.222 36.218 105.93 36.59C106.638 36.962 107.184 37.496 107.568 38.192C107.952 38.876 108.144 39.686 108.144 40.622C108.144 41.558 107.952 42.374 107.568 43.07C107.184 43.754 106.638 44.288 105.93 44.672C105.222 45.044 104.4 45.23 103.464 45.23ZM103.464 43.16C104.784 43.16 105.444 42.314 105.444 40.622C105.444 39.77 105.27 39.134 104.922 38.714C104.586 38.294 104.1 38.084 103.464 38.084C102.144 38.084 101.484 38.93 101.484 40.622C101.484 42.314 102.144 43.16 103.464 43.16Z" fill="#9497A1"/>
<path d="M115.27 36.032C116.026 36.032 116.698 36.23 117.286 36.626C117.886 37.01 118.348 37.556 118.672 38.264C119.008 38.96 119.176 39.764 119.176 40.676C119.176 41.588 119.008 42.392 118.672 43.088C118.348 43.772 117.892 44.3 117.304 44.672C116.716 45.044 116.038 45.23 115.27 45.23C114.67 45.23 114.124 45.11 113.632 44.87C113.152 44.618 112.78 44.27 112.516 43.826V48.326H109.798V36.248H112.48V37.49C112.744 37.034 113.122 36.68 113.614 36.428C114.106 36.164 114.658 36.032 115.27 36.032ZM114.478 43.16C115.114 43.16 115.606 42.95 115.954 42.53C116.302 42.098 116.476 41.48 116.476 40.676C116.476 39.86 116.302 39.23 115.954 38.786C115.606 38.33 115.114 38.102 114.478 38.102C113.842 38.102 113.35 38.324 113.002 38.768C112.654 39.2 112.48 39.824 112.48 40.64C112.48 41.444 112.654 42.068 113.002 42.512C113.35 42.944 113.842 43.16 114.478 43.16Z" fill="#9497A1"/>
<path d="M126.381 36.032C127.437 36.032 128.223 36.344 128.739 36.968C129.255 37.58 129.513 38.51 129.513 39.758V45.086H126.795V39.884C126.795 39.284 126.681 38.846 126.453 38.57C126.237 38.294 125.895 38.156 125.427 38.156C124.863 38.156 124.407 38.336 124.059 38.696C123.723 39.056 123.555 39.536 123.555 40.136V45.086H120.837V32.396H123.555V37.418C123.867 36.962 124.263 36.62 124.743 36.392C125.235 36.152 125.781 36.032 126.381 36.032Z" fill="#9497A1"/>
<path d="M135.454 43.016L136.822 42.926C137.302 42.902 137.656 42.77 137.884 42.53C138.112 42.278 138.226 41.906 138.226 41.414V32.396H141.052V41.378C141.052 43.766 139.798 45.032 137.29 45.176L135.616 45.266L135.454 43.016Z" fill="#9497A1"/>
<path d="M151.311 41.18H145.551C145.635 41.888 145.863 42.404 146.235 42.728C146.619 43.04 147.159 43.196 147.855 43.196C148.311 43.196 148.761 43.124 149.205 42.98C149.661 42.824 150.075 42.608 150.447 42.332L151.167 44.15C150.735 44.486 150.207 44.75 149.583 44.942C148.971 45.134 148.353 45.23 147.729 45.23C146.241 45.23 145.065 44.822 144.201 44.006C143.349 43.178 142.923 42.056 142.923 40.64C142.923 39.74 143.109 38.942 143.481 38.246C143.853 37.55 144.369 37.01 145.029 36.626C145.689 36.23 146.439 36.032 147.279 36.032C148.515 36.032 149.493 36.434 150.213 37.238C150.945 38.042 151.311 39.134 151.311 40.514V41.18ZM147.351 37.904C146.835 37.904 146.421 38.072 146.109 38.408C145.809 38.732 145.623 39.206 145.551 39.83H149.025C148.989 39.194 148.827 38.714 148.539 38.39C148.263 38.066 147.867 37.904 147.351 37.904Z" fill="#9497A1"/>
<path d="M158.497 36.032C159.553 36.032 160.339 36.344 160.855 36.968C161.371 37.58 161.629 38.51 161.629 39.758V45.086H158.911V39.884C158.911 39.284 158.797 38.846 158.569 38.57C158.353 38.294 158.011 38.156 157.543 38.156C156.979 38.156 156.523 38.336 156.175 38.696C155.839 39.056 155.671 39.536 155.671 40.136V45.086H152.953V36.248H155.599V37.508C155.911 37.028 156.313 36.662 156.805 36.41C157.309 36.158 157.873 36.032 158.497 36.032Z" fill="#9497A1"/>
<path d="M168.554 43.232C168.83 43.232 169.118 43.214 169.418 43.178L169.274 45.158C168.926 45.206 168.578 45.23 168.23 45.23C166.886 45.23 165.902 44.936 165.278 44.348C164.666 43.76 164.36 42.866 164.36 41.666V38.282H162.686V36.248H164.36V33.656H167.078V36.248H169.292V38.282H167.078V41.648C167.078 42.704 167.57 43.232 168.554 43.232Z" fill="#9497A1"/>
<path d="M173.676 43.052H178.321V45.086H170.491V43.196L174.882 38.282H170.545V36.248H178.141V38.066L173.676 43.052Z" fill="#9497A1"/>
<path d="M183.267 45.23C182.451 45.23 181.701 45.14 181.017 44.96C180.345 44.768 179.763 44.498 179.271 44.15L179.991 42.278C180.471 42.602 180.999 42.854 181.575 43.034C182.151 43.214 182.733 43.304 183.321 43.304C183.741 43.304 184.065 43.238 184.293 43.106C184.533 42.962 184.653 42.77 184.653 42.53C184.653 42.314 184.569 42.146 184.401 42.026C184.245 41.906 183.945 41.798 183.501 41.702L182.061 41.378C181.209 41.186 180.579 40.892 180.171 40.496C179.775 40.088 179.577 39.536 179.577 38.84C179.577 38.288 179.733 37.802 180.045 37.382C180.369 36.962 180.819 36.632 181.395 36.392C181.983 36.152 182.649 36.032 183.393 36.032C184.029 36.032 184.647 36.128 185.247 36.32C185.847 36.512 186.387 36.782 186.867 37.13L186.147 38.93C185.211 38.282 184.287 37.958 183.375 37.958C182.955 37.958 182.625 38.03 182.385 38.174C182.145 38.318 182.025 38.522 182.025 38.786C182.025 38.978 182.097 39.128 182.241 39.236C182.385 39.344 182.637 39.446 182.997 39.542L184.491 39.884C185.391 40.088 186.045 40.4 186.453 40.82C186.873 41.228 187.083 41.786 187.083 42.494C187.083 43.346 186.741 44.018 186.057 44.51C185.385 44.99 184.455 45.23 183.267 45.23Z" fill="#9497A1"/>
<path d="M192.848 45.23C191.408 45.23 190.274 44.822 189.446 44.006C188.618 43.19 188.204 42.08 188.204 40.676C188.204 39.752 188.402 38.942 188.798 38.246C189.194 37.538 189.752 36.992 190.472 36.608C191.192 36.224 192.026 36.032 192.974 36.032C193.622 36.032 194.246 36.134 194.846 36.338C195.446 36.53 195.932 36.794 196.304 37.13L195.584 38.984C195.236 38.708 194.852 38.498 194.432 38.354C194.024 38.198 193.622 38.12 193.226 38.12C192.518 38.12 191.966 38.33 191.57 38.75C191.186 39.17 190.994 39.794 190.994 40.622C190.994 41.45 191.186 42.08 191.57 42.512C191.966 42.932 192.518 43.142 193.226 43.142C193.622 43.142 194.024 43.07 194.432 42.926C194.852 42.77 195.236 42.554 195.584 42.278L196.304 44.15C195.908 44.486 195.404 44.75 194.792 44.942C194.18 45.134 193.532 45.23 192.848 45.23Z" fill="#9497A1"/>
<path d="M203.075 36.032C204.131 36.032 204.917 36.344 205.433 36.968C205.949 37.58 206.207 38.51 206.207 39.758V45.086H203.489V39.884C203.489 39.284 203.375 38.846 203.147 38.57C202.931 38.294 202.589 38.156 202.121 38.156C201.557 38.156 201.101 38.336 200.753 38.696C200.417 39.056 200.249 39.536 200.249 40.136V45.086H197.531V32.396H200.249V37.418C200.561 36.962 200.957 36.62 201.437 36.392C201.929 36.152 202.475 36.032 203.075 36.032Z" fill="#9497A1"/>
</svg>
