<svg width="89" height="88" viewBox="0 0 89 88" fill="none" xmlns="http://www.w3.org/2000/svg">
<circle cx="44.5" cy="44" r="44" fill="#19202F"/>
<path d="M64.5173 19.6482V65.1224C64.5227 65.5984 64.4333 66.0706 64.2543 66.5117C64.0753 66.9528 63.8103 67.3538 63.4748 67.6915C63.1393 68.0291 62.7399 68.2966 62.3 68.4783C61.86 68.6601 61.3883 68.7525 60.9123 68.7501H28.1379C27.1731 68.75 26.2479 68.3667 25.5657 67.6844C24.8834 67.0022 24.5001 66.077 24.5 65.1122V28.4202C24.5009 27.4558 24.884 26.5311 25.5652 25.8486L34.3486 17.0653C35.0316 16.3848 35.956 16.0019 36.9201 16H60.9123C61.3899 15.9982 61.863 16.0917 62.304 16.2749C62.745 16.4582 63.1451 16.7275 63.4808 17.0672C63.8164 17.4069 64.081 17.8102 64.259 18.2533C64.437 18.6965 64.5248 19.1707 64.5173 19.6482Z" fill="#FBC2D2"/>
<path d="M35.4138 23.2757C35.4137 24.2405 35.0303 25.1658 34.3481 25.848C33.6659 26.5302 32.7407 26.9135 31.7759 26.9136H24.8274C25.0072 26.5171 25.2572 26.1562 25.5652 25.8484L34.3486 17.0651C34.635 16.7782 34.9679 16.5418 35.3331 16.3659L35.4138 23.2757Z" fill="#FFE7EE"/>
<path d="M59.0603 26.9138H37.2327V32.3707H29.9568V59.6552C29.9568 59.7747 29.9803 59.8929 30.026 60.0033C30.0717 60.1136 30.1387 60.2139 30.2232 60.2984C30.3076 60.3828 30.4079 60.4498 30.5182 60.4955C30.6286 60.5412 30.7468 60.5647 30.8663 60.5647H59.0603C59.1797 60.5647 59.298 60.5412 59.4083 60.4955C59.5187 60.4498 59.6189 60.3828 59.7034 60.2984C59.7878 60.2139 59.8548 60.1136 59.9005 60.0033C59.9462 59.8929 59.9698 59.7747 59.9698 59.6552V27.8233C59.9698 27.7039 59.9462 27.5856 59.9005 27.4753C59.8548 27.3649 59.7878 27.2646 59.7034 27.1802C59.6189 27.0957 59.5187 27.0287 59.4083 26.983C59.298 26.9373 59.1797 26.9138 59.0603 26.9138ZM39.0516 53.2889V39.6466H47.237V53.2889H39.0516ZM47.237 55.1078V58.7458H39.0516V55.1078H47.237ZM37.2327 53.2889H31.7758V39.6466H37.2327V53.2889ZM39.0516 37.8276V34.1897H47.237V37.8276H39.0516ZM49.056 34.1897H58.1508V37.8276H49.056V34.1897ZM39.0516 28.7328H58.1508V32.3707H39.0516V28.7328ZM37.2327 34.1897V37.8276H31.7758V34.1897H37.2327ZM31.7758 55.1078H37.2327V58.7458H31.7758V55.1078ZM58.1508 58.7458H49.056V55.1078H58.1508V58.7458ZM49.056 53.2889V39.6466H58.1508V53.2889H49.056Z" fill="#FFE7EE"/>
<path d="M56.3318 21.4569H59.0602V23.2759H56.3318V21.4569Z" fill="#FFE7EE"/>
<path d="M48.1465 21.4569H54.5129V23.2759H48.1465V21.4569Z" fill="#FFE7EE"/>
<path d="M55.4224 63.2932H59.0603V65.1121H55.4224V63.2932Z" fill="#FFE7EE"/>
<path d="M49.9653 63.2932H53.6033V65.1121H49.9653V63.2932Z" fill="#FFE7EE"/>
</svg>
