<svg width="190" height="190" viewBox="0 0 190 190" fill="none" xmlns="http://www.w3.org/2000/svg">
<path d="M190 95H142.5C142.5 82.4022 137.496 70.3204 128.588 61.4124C119.68 52.5045 107.598 47.5 95 47.5V0C120.196 0 144.359 10.0089 162.175 27.8249C179.991 45.6408 190 69.8044 190 95V95Z" fill="#BAAAFF"/>
<path d="M47.5 95H-1.52588e-05C-1.52588e-05 69.8044 10.0089 45.6408 27.8248 27.8249C45.6408 10.0089 69.8044 0 95 0V47.5C82.4022 47.5 70.3204 52.5045 61.4124 61.4124C52.5044 70.3204 47.5 82.4022 47.5 95Z" fill="#93D3E9"/>
<path d="M95 190V142.5C107.598 142.5 119.68 137.496 128.588 128.588C137.496 119.68 142.5 107.598 142.5 95H190C190 120.196 179.991 144.359 162.175 162.175C144.359 179.991 120.196 190 95 190Z" fill="#FBC2D2"/>
<path d="M27.823 162.176C18.9884 153.364 11.9823 142.893 7.20742 131.365C2.43251 119.836 -0.0170784 107.478 -0.00056839 95H47.4994C47.492 101.239 48.7175 107.417 51.1056 113.181C53.4937 118.944 56.9973 124.179 61.415 128.584L27.823 162.176Z" fill="#E0F7FF"/>
<path d="M61.4156 128.584C65.8207 133.002 71.0555 136.506 76.8191 138.894C82.5826 141.282 88.7613 142.507 95 142.5V190C82.5219 190.017 70.1635 187.567 58.6352 182.792C47.1068 178.017 36.6357 171.011 27.8236 162.176L61.4156 128.584Z" fill="#121824"/>
<path d="M95 47.5C107.598 47.5 119.68 52.5044 128.588 61.4124C137.496 70.3204 142.5 82.4022 142.5 95H95V47.5Z" fill="#121824"/>
<path d="M47.5 95C47.5 82.4022 52.5044 70.3204 61.4124 61.4124C70.3204 52.5044 82.4022 47.5 95 47.5V95H47.5Z" fill="#FBC2D2"/>
<path d="M95 142.5V95H142.5C142.5 107.598 137.496 119.68 128.588 128.588C119.68 137.496 107.598 142.5 95 142.5Z" fill="#F0FDFB"/>
<path d="M61.4156 128.584C56.9979 124.179 53.4943 118.944 51.1062 113.181C48.7181 107.417 47.4925 101.239 47.5 95H95L61.4156 128.584Z" fill="#BAAAFF"/>
<path d="M95 95V142.5C88.7613 142.507 82.5826 141.282 76.8191 138.894C71.0555 136.506 65.8207 133.002 61.4156 128.584L95 95Z" fill="#EEEAFF"/>
</svg>
