<svg width="88" height="88" viewBox="0 0 88 88" fill="none" xmlns="http://www.w3.org/2000/svg">
<circle cx="44" cy="44" r="44" fill="#19202F"/>
<path d="M34.9239 68.294H18.9128V47.8943C18.9128 47.0176 19.3679 46.202 20.1186 45.7329L34.9239 36.4832V68.294Z" fill="#3F9DFF"/>
<path d="M52.5464 30.6851H60.1029V13.522C60.1029 13.0205 59.6964 12.614 59.195 12.614H35.6177C35.1162 12.614 34.7097 13.0205 34.7097 13.522V68.2934H51.6384V31.5929C51.6385 31.0916 52.045 30.6851 52.5464 30.6851Z" fill="#80B4FB"/>
<path d="M39.6873 12.6146H35.6177C35.1162 12.6146 34.7097 13.021 34.7097 13.5225V68.2939H38.7793V13.5224C38.7795 13.021 39.1858 12.6146 39.6873 12.6146Z" fill="#61A2F9"/>
<path d="M66.853 30.6853H52.5466C52.0452 30.6853 51.6387 31.0918 51.6387 31.5932V68.2937H67.761V31.5931C67.761 31.0918 67.3545 30.6853 66.853 30.6853Z" fill="#3F9DFF"/>
<path d="M56.6162 30.6853H52.5466C52.0452 30.6853 51.6387 31.0918 51.6387 31.5932V68.2937H55.7083V31.5931C55.7084 31.0918 56.1149 30.6853 56.6162 30.6853Z" fill="#80B4FB"/>
<path d="M38.9414 65.1914C38.4218 65.1914 38.0005 64.7702 38.0005 64.2504V17.1823C38.0005 16.6626 38.4218 16.2414 38.9414 16.2414C39.4611 16.2414 39.8824 16.6626 39.8824 17.1823V64.2504C39.8824 64.7701 39.4612 65.1914 38.9414 65.1914Z" fill="#E0F7FF"/>
<path d="M47.4058 65.1914C46.8861 65.1914 46.4648 64.7702 46.4648 64.2504V17.1823C46.4648 16.6626 46.8861 16.2414 47.4058 16.2414C47.9254 16.2414 48.3467 16.6626 48.3467 17.1823V64.2504C48.3467 64.7701 47.9254 65.1914 47.4058 65.1914Z" fill="#E0F7FF"/>
<path d="M43.1736 65.1914C42.654 65.1914 42.2327 64.7702 42.2327 64.2504V17.1823C42.2327 16.6626 42.654 16.2414 43.1736 16.2414C43.6933 16.2414 44.1145 16.6626 44.1145 17.1823V64.2504C44.1145 64.7701 43.6933 65.1914 43.1736 65.1914Z" fill="#E0F7FF"/>
<path d="M51.6382 29.7366C51.1186 29.7366 50.6973 29.3154 50.6973 28.7957V17.1823C50.6973 16.6626 51.1186 16.2414 51.6382 16.2414C52.1579 16.2414 52.5791 16.6626 52.5791 17.1823V28.7957C52.5791 29.3154 52.1579 29.7366 51.6382 29.7366Z" fill="#E0F7FF"/>
<path d="M55.8704 29.7366C55.3507 29.7366 54.9294 29.3154 54.9294 28.7957V17.1823C54.9294 16.6626 55.3507 16.2414 55.8704 16.2414C56.39 16.2414 56.8113 16.6626 56.8113 17.1823V28.7957C56.8113 29.3154 56.39 29.7366 55.8704 29.7366Z" fill="#E0F7FF"/>
<path d="M26.8113 53.9405C26.2917 53.9405 25.8704 53.5193 25.8704 52.9995V51.9354C25.8704 51.4156 26.2917 50.9944 26.8113 50.9944C27.331 50.9944 27.7522 51.4156 27.7522 51.9354V52.9995C27.7522 53.5192 27.331 53.9405 26.8113 53.9405Z" fill="#E0F7FF"/>
<path d="M23.2481 53.9405C22.7284 53.9405 22.3071 53.5193 22.3071 52.9995V51.9354C22.3071 51.4156 22.7284 50.9944 23.2481 50.9944C23.7677 50.9944 24.189 51.4156 24.189 51.9354V52.9995C24.189 53.5192 23.7677 53.9405 23.2481 53.9405Z" fill="#E0F7FF"/>
<path d="M30.3745 53.9405C29.8549 53.9405 29.4336 53.5193 29.4336 52.9995V51.9354C29.4336 51.4156 29.8549 50.9944 30.3745 50.9944C30.8942 50.9944 31.3155 51.4156 31.3155 51.9354V52.9995C31.3155 53.5192 30.8942 53.9405 30.3745 53.9405Z" fill="#E0F7FF"/>
<path d="M26.8113 59.566C26.2917 59.566 25.8704 59.1449 25.8704 58.6251V57.5609C25.8704 57.0412 26.2917 56.62 26.8113 56.62C27.331 56.62 27.7522 57.0412 27.7522 57.5609V58.6251C27.7522 59.1447 27.331 59.566 26.8113 59.566Z" fill="#E0F7FF"/>
<path d="M23.2481 59.566C22.7284 59.566 22.3071 59.1449 22.3071 58.6251V57.5609C22.3071 57.0412 22.7284 56.62 23.2481 56.62C23.7677 56.62 24.189 57.0412 24.189 57.5609V58.6251C24.189 59.1447 23.7677 59.566 23.2481 59.566Z" fill="#E0F7FF"/>
<path d="M30.3745 59.566C29.8549 59.566 29.4336 59.1449 29.4336 58.6251V57.5609C29.4336 57.0412 29.8549 56.62 30.3745 56.62C30.8942 56.62 31.3155 57.0412 31.3155 57.5609V58.6251C31.3155 59.1447 30.8942 59.566 30.3745 59.566Z" fill="#E0F7FF"/>
<path d="M26.8113 48.3149C26.2917 48.3149 25.8704 47.8938 25.8704 47.374V46.3098C25.8704 45.7901 26.2917 45.3689 26.8113 45.3689C27.331 45.3689 27.7522 45.7901 27.7522 46.3098V47.374C27.7522 47.8938 27.331 48.3149 26.8113 48.3149Z" fill="#E0F7FF"/>
<path d="M30.3745 48.3149C29.8549 48.3149 29.4336 47.8938 29.4336 47.374V46.3098C29.4336 45.7901 29.8549 45.3689 30.3745 45.3689C30.8942 45.3689 31.3155 45.7901 31.3155 46.3098V47.374C31.3155 47.8938 30.8942 48.3149 30.3745 48.3149Z" fill="#E0F7FF"/>
<path d="M26.8113 65.191C26.2917 65.191 25.8704 64.7699 25.8704 64.2501V63.1859C25.8704 62.6662 26.2917 62.245 26.8113 62.245C27.331 62.245 27.7522 62.6662 27.7522 63.1859V64.2501C27.7522 64.7697 27.331 65.191 26.8113 65.191Z" fill="#E0F7FF"/>
<path d="M23.2481 65.191C22.7284 65.191 22.3071 64.7699 22.3071 64.2501V63.1859C22.3071 62.6662 22.7284 62.245 23.2481 62.245C23.7677 62.245 24.189 62.6662 24.189 63.1859V64.2501C24.189 64.7697 23.7677 65.191 23.2481 65.191Z" fill="#E0F7FF"/>
<path d="M30.3745 65.191C29.8549 65.191 29.4336 64.7699 29.4336 64.2501V63.1859C29.4336 62.6662 29.8549 62.245 30.3745 62.245C30.8942 62.245 31.3155 62.6662 31.3155 63.1859V64.2501C31.3155 64.7697 30.8942 65.191 30.3745 65.191Z" fill="#E0F7FF"/>
<path d="M63.5872 59.0577H55.8111C55.2914 59.0577 54.8701 58.6366 54.8701 58.1168C54.8701 57.597 55.2914 57.1758 55.8111 57.1758H63.5872C64.1069 57.1758 64.5282 57.597 64.5282 58.1168C64.5282 58.6366 64.1069 59.0577 63.5872 59.0577Z" fill="#E0F7FF"/>
<path d="M63.5872 63.4063H55.8111C55.2914 63.4063 54.8701 62.9851 54.8701 62.4654C54.8701 61.9456 55.2914 61.5244 55.8111 61.5244H63.5872C64.1069 61.5244 64.5282 61.9456 64.5282 62.4654C64.5282 62.9851 64.1069 63.4063 63.5872 63.4063Z" fill="#E0F7FF"/>
<path d="M63.5872 46.0115H55.8111C55.2914 46.0115 54.8701 45.5903 54.8701 45.0705C54.8701 44.5507 55.2914 44.1296 55.8111 44.1296H63.5872C64.1069 44.1296 64.5282 44.5507 64.5282 45.0705C64.5282 45.5903 64.1069 46.0115 63.5872 46.0115Z" fill="#E0F7FF"/>
<path d="M63.5872 50.36H55.8111C55.2914 50.36 54.8701 49.9389 54.8701 49.4191C54.8701 48.8993 55.2914 48.4781 55.8111 48.4781H63.5872C64.1069 48.4781 64.5282 48.8993 64.5282 49.4191C64.5282 49.9389 64.1069 50.36 63.5872 50.36Z" fill="#E0F7FF"/>
<path d="M63.5872 54.7092H55.8111C55.2914 54.7092 54.8701 54.288 54.8701 53.7682C54.8701 53.2484 55.2914 52.8273 55.8111 52.8273H63.5872C64.1069 52.8273 64.5282 53.2484 64.5282 53.7682C64.5282 54.288 64.1069 54.7092 63.5872 54.7092Z" fill="#E0F7FF"/>
<path d="M63.5872 37.3132H55.8111C55.2914 37.3132 54.8701 36.8921 54.8701 36.3723C54.8701 35.8525 55.2914 35.4313 55.8111 35.4313H63.5872C64.1069 35.4313 64.5282 35.8525 64.5282 36.3723C64.5282 36.8921 64.1069 37.3132 63.5872 37.3132Z" fill="#E0F7FF"/>
<path d="M63.5872 41.6623H55.8111C55.2914 41.6623 54.8701 41.2412 54.8701 40.7214C54.8701 40.2016 55.2914 39.7805 55.8111 39.7805H63.5872C64.1069 39.7805 64.5282 40.2016 64.5282 40.7214C64.5282 41.2412 64.1069 41.6623 63.5872 41.6623Z" fill="#E0F7FF"/>
<path d="M68.691 69.2349H17.9849C17.4652 69.2349 17.0439 68.8137 17.0439 68.294C17.0439 67.7742 17.4652 67.353 17.9849 67.353H68.6909C69.2105 67.353 69.6318 67.7742 69.6318 68.294C69.6318 68.8137 69.2107 69.2349 68.691 69.2349Z" fill="#3F9DFF"/>
</svg>
