<svg width="178" height="56" viewBox="0 0 178 56" fill="none" xmlns="http://www.w3.org/2000/svg">
<rect width="177.1" height="56" fill="white"/>
<path d="M130.603 25.4974C130.458 25.3088 130.284 25.1202 130.111 24.9171C128.302 22.9876 124.872 21.1015 120.154 19.4622C115.436 17.8083 109.445 16.3865 102.745 15.4C105.581 16.0964 108.244 16.8072 110.661 17.5471C113.092 18.3015 115.292 19.085 117.216 19.8974C121.095 21.5223 123.931 23.2632 125.595 25.0332C125.812 25.2508 126.001 25.4829 126.174 25.7005C127.39 27.2528 127.708 28.8197 127.1 30.343C126.768 31.2135 126.116 32.0694 125.19 32.9109C124.264 33.7523 123.048 34.5648 121.616 35.3627C126.16 34.086 129.242 32.4321 130.689 30.6332C132.006 28.9938 131.948 27.2238 130.603 25.4974Z" fill="#9295A1"/>
<path d="M120.675 27.2819C120.241 26.7161 119.662 26.1503 118.938 25.599C116.507 23.6985 112.513 21.8705 107.332 20.3036C102.151 18.7368 95.7838 17.4456 88.8663 16.5897C91.8764 17.228 94.7418 17.8809 97.3612 18.5917C99.995 19.3026 102.412 20.0425 104.583 20.8114C108.939 22.3638 112.296 24.0612 114.554 25.8166C115.378 26.4695 116.044 27.1223 116.565 27.7752C117.433 28.8922 117.853 30.0239 117.795 31.141C117.752 32.0259 117.404 32.9109 116.768 33.7669C116.145 34.6373 115.205 35.4788 114.076 36.3057C118.143 34.9275 120.617 33.1866 121.428 31.3296C122.006 30.0239 121.746 28.6456 120.675 27.2819Z" fill="#9295A1"/>
<path d="M125.48 26.2373C125.045 25.6715 124.467 25.1057 123.743 24.5544C121.326 22.6539 117.318 20.8259 112.137 19.259C106.956 17.7067 100.588 16.401 93.6709 15.545C96.681 16.1834 99.5464 16.8362 102.166 17.5471C104.8 18.258 107.216 18.9979 109.387 19.7668C113.743 21.3191 117.101 23.0165 119.344 24.7575C120.169 25.4103 120.834 26.0632 121.355 26.716C122.223 27.8331 122.643 28.9647 122.585 30.0818C122.542 30.9668 122.195 31.8518 121.558 32.7077C120.936 33.5782 119.995 34.4197 118.866 35.2466C122.933 33.8684 125.407 32.1274 126.218 30.2704C126.797 28.9792 126.536 27.601 125.48 26.2373Z" fill="#9295A1"/>
<path d="M47.5207 31.3731C47.5641 32.1565 47.7812 32.7803 48.2009 33.2301C48.6061 33.6943 49.156 33.9264 49.8217 33.9264C50.2703 33.9264 50.6611 33.8249 50.9939 33.6218C51.3412 33.4187 51.5583 33.143 51.6452 32.7803H54.4382C54.1198 33.8394 53.5554 34.6518 52.7739 35.2321C51.978 35.7979 51.0373 36.0881 49.9375 36.0881C46.5077 36.0881 44.8 34.2166 44.8 30.4881C44.8 29.6902 44.9158 28.9793 45.1329 28.3264C45.35 27.6881 45.6828 27.1368 46.1025 26.6726C46.5222 26.2083 47.0432 25.8601 47.651 25.6135C48.2588 25.3669 48.9679 25.2508 49.7638 25.2508C51.3557 25.2508 52.5424 25.7586 53.3673 26.7741C54.1777 27.7897 54.5829 29.3275 54.5829 31.3731H47.5207V31.3731ZM51.8043 29.6612C51.7899 29.284 51.7175 28.9503 51.6017 28.6746C51.486 28.3845 51.3268 28.1523 51.1386 27.9637C50.9505 27.7751 50.719 27.6301 50.4729 27.543C50.2269 27.456 49.9664 27.4125 49.7059 27.4125C49.1705 27.4125 48.6929 27.6156 48.3022 28.0073C47.9115 28.399 47.6799 28.9648 47.622 29.6757H51.8043V29.6612Z" fill="#9295A1"/>
<path d="M62.0069 35.8125V29.5741C62.0069 28.7762 61.8767 28.2394 61.6162 27.9637C61.3557 27.6881 60.8926 27.543 60.2558 27.543C58.8521 27.543 58.143 28.3264 58.143 29.9078V35.8125H55.4368V25.5264H58.0272V27.0353C58.3456 26.4549 58.7653 26.0052 59.3007 25.7005C59.8362 25.3959 60.5163 25.2508 61.3412 25.2508C61.8332 25.2508 62.2819 25.3233 62.7015 25.4684C63.1212 25.6135 63.483 25.8311 63.7724 26.1213C64.0764 26.4114 64.3079 26.7741 64.4816 27.1948C64.6552 27.6156 64.7421 28.1088 64.7421 28.6746V35.8125H62.0069V35.8125Z" fill="#9295A1"/>
<path d="M71.7173 29.0373H74.2354V31.9679C74.2354 32.5192 74.1486 33.0269 73.9894 33.5202C73.8302 34.0135 73.5842 34.4487 73.2369 34.8404C72.8895 35.2176 72.4699 35.5223 71.9489 35.7544C71.4279 35.972 70.8056 36.0881 70.082 36.0881C69.3295 36.0881 68.6928 35.972 68.1573 35.7544C67.6219 35.5368 67.1877 35.2321 66.8549 34.8549C66.5075 34.4777 66.2615 34.0425 66.1168 33.5347C65.9576 33.0269 65.8853 32.5047 65.8853 31.9389V22.7409H68.5625V25.5264H74.2354V27.456H68.5625V31.6777C68.5625 32.3306 68.6783 32.8383 68.9243 33.1865C69.1703 33.5492 69.5611 33.7233 70.1255 33.7233C70.6609 33.7233 71.0661 33.5492 71.3266 33.201C71.5871 32.8529 71.7173 32.3596 71.7173 31.7212V29.0373V29.0373Z" fill="#9295A1"/>
<path d="M75.3643 35.8125V25.5264H77.9113V26.7596C78.1283 26.4114 78.3599 26.1358 78.6059 25.9472C78.8519 25.7586 79.0979 25.599 79.3584 25.4974C79.6189 25.3959 79.8794 25.3233 80.1399 25.2943C80.4004 25.2653 80.6754 25.2508 80.9503 25.2508H81.3121V28.0363C81.0661 27.9928 80.8056 27.9783 80.5596 27.9783C78.9098 27.9783 78.0705 28.8052 78.0705 30.4736V35.827H75.3643V35.8125Z" fill="#9295A1"/>
<path d="M88.2006 35.8125C88.1138 35.5513 88.0559 35.2466 88.027 34.8985C87.7086 35.2612 87.2889 35.5513 86.7535 35.7689C86.218 35.9865 85.6102 36.0881 84.9156 36.0881C83.7289 36.0881 82.8606 35.827 82.3251 35.3047C81.7752 34.7824 81.5002 34.1005 81.5002 33.2591C81.5002 32.5192 81.616 31.9244 81.8476 31.4891C82.0791 31.0539 82.412 30.7057 82.8316 30.4591C83.2513 30.2125 83.7434 30.0239 84.3222 29.9078C84.9011 29.7917 85.5234 29.6757 86.2035 29.5886C86.8837 29.4871 87.3468 29.3565 87.5783 29.1969C87.8099 29.0373 87.9401 28.7762 87.9401 28.4135C87.9401 28.0798 87.7809 27.8187 87.477 27.6301C87.1587 27.4415 86.739 27.3399 86.218 27.3399C85.5957 27.3399 85.1471 27.485 84.8721 27.7606C84.5972 28.0363 84.4235 28.4135 84.3656 28.8632H81.8476C81.862 28.3409 81.9489 27.8477 82.1081 27.3979C82.2672 26.9482 82.5277 26.571 82.8751 26.2518C83.2368 25.9327 83.6999 25.686 84.2643 25.5119C84.8287 25.3378 85.5234 25.2508 86.3483 25.2508C87.1587 25.2508 87.8388 25.3378 88.4032 25.5264C88.9676 25.715 89.4162 25.9762 89.7636 26.3099C90.1109 26.6581 90.3569 27.0788 90.5016 27.5865C90.6608 28.0943 90.7332 28.6746 90.7332 29.313V35.8125H88.2006V35.8125ZM88.0125 30.7637C87.8678 30.9088 87.6652 31.0104 87.4047 31.0974C87.1442 31.1845 86.7535 31.2715 86.2614 31.3731C85.4799 31.5327 84.9445 31.7213 84.6551 31.9534C84.3656 32.1855 84.2209 32.5337 84.2209 32.9834C84.2209 33.7524 84.6551 34.1296 85.5378 34.1296C85.8852 34.1296 86.2035 34.0715 86.5074 33.9555C86.8113 33.8394 87.0574 33.6798 87.2744 33.4767C87.4915 33.2736 87.6652 33.0415 87.7954 32.7658C87.9257 32.4902 87.998 32.2 87.998 31.8954L88.0125 30.7637Z" fill="#9295A1"/>
<path d="M92.6434 35.8124V27.4415H91.1239V25.5119H92.6434C92.6434 23.0021 94.0906 21.7399 96.9994 21.7399V23.9306C96.6521 23.9306 96.3626 23.9596 96.16 24.0031C95.943 24.0466 95.7693 24.1337 95.6535 24.2643C95.5233 24.3948 95.4365 24.5544 95.393 24.7575C95.3496 24.9606 95.3207 25.2073 95.3207 25.4974H97.0718V27.4269H95.3207V35.7979H92.6434V35.8124Z" fill="#9295A1"/>
<path d="M98.0847 21.7544H100.791V24.2787H98.0847V21.7544ZM98.0847 25.5119H100.791V35.7979H98.0847V25.5119Z" fill="#9295A1"/>
<path d="M108.62 35.8125V29.5741C108.62 28.7762 108.49 28.2394 108.229 27.9637C107.969 27.6881 107.506 27.543 106.869 27.543C105.465 27.543 104.756 28.3264 104.756 29.9078V35.8125H102.05V25.5264H104.64V27.0353C104.959 26.4549 105.378 26.0052 105.914 25.7005C106.449 25.3959 107.129 25.2508 107.954 25.2508C108.446 25.2508 108.895 25.3233 109.315 25.4684C109.734 25.6135 110.096 25.8311 110.386 26.1213C110.689 26.4114 110.921 26.7741 111.095 27.1948C111.268 27.6156 111.355 28.1088 111.355 28.6746V35.8125H108.62V35.8125Z" fill="#9295A1"/>
</svg>
