<svg width="89" height="88" viewBox="0 0 89 88" fill="none" xmlns="http://www.w3.org/2000/svg">
<circle cx="44.5" cy="44" r="44" fill="#19202F"/>
<path d="M69.8507 25.359V58.0083C69.8507 60.4481 67.8651 62.4336 65.4253 62.4336H23.9254C21.4855 62.4336 19.5 60.4481 19.5 58.0083V25.359C19.5 22.9192 21.4855 20.9337 23.9254 20.9337H65.4253C67.8651 20.9337 69.8507 22.9192 69.8507 25.359Z" fill="#EEF4FF"/>
<path d="M69.8504 25.359V58.0083C69.8504 60.4481 67.8649 62.4336 65.425 62.4336H44.675V20.9337H65.425C67.8649 20.9337 69.8504 22.9192 69.8504 25.359Z" fill="#D9E6FC"/>
<path d="M69.8507 25.359V32.6362C69.8507 33.4505 69.1898 34.1114 68.3755 34.1114H20.9751C20.1609 34.1114 19.5 33.4505 19.5 32.6362V25.359C19.5 22.9192 21.4855 20.9337 23.9254 20.9337H65.4253C67.8651 20.9337 69.8507 22.9192 69.8507 25.359Z" fill="#BAAAFF"/>
<path d="M69.8504 25.359V32.6362C69.8504 33.4505 69.1895 34.1114 68.3753 34.1114H44.675V20.9337H65.425C67.8649 20.9337 69.8504 22.9192 69.8504 25.359Z" fill="#BAAAFF"/>
<path d="M28.9407 27.8175C28.126 27.8175 27.4656 27.1571 27.4656 26.3424V18.4751C27.4656 17.6605 28.126 17 28.9407 17C29.7554 17 30.4158 17.6605 30.4158 18.4751V26.3424C30.4158 27.1571 29.7554 27.8175 28.9407 27.8175Z" fill="#EEEAFF"/>
<path d="M46.1504 18.4751V26.3424C46.1504 27.1567 45.4896 27.8175 44.6753 27.8175C43.861 27.8175 43.2002 27.1567 43.2002 26.3424V18.4751C43.2002 17.6609 43.861 17 44.6753 17C45.4896 17 46.1504 17.6609 46.1504 18.4751Z" fill="#EEEAFF"/>
<path d="M46.1502 18.4751V26.3424C46.1502 27.1567 45.4893 27.8175 44.675 27.8175V17C45.4893 17 46.1502 17.6609 46.1502 18.4751Z" fill="#EEEAFF"/>
<path d="M60.4102 27.8175C59.5955 27.8175 58.9351 27.1571 58.9351 26.3424V18.4751C58.9351 17.6605 59.5955 17 60.4102 17C61.2248 17 61.8853 17.6605 61.8853 18.4751V26.3424C61.8853 27.1571 61.2248 27.8175 60.4102 27.8175Z" fill="#EEEAFF"/>
<path d="M33.6613 41.9787H30.5144C29.6998 41.9787 29.0393 41.3183 29.0393 40.5036C29.0393 39.689 29.6998 39.0285 30.5144 39.0285H33.6613C34.476 39.0285 35.1365 39.689 35.1365 40.5036C35.1365 41.3183 34.476 41.9787 33.6613 41.9787Z" fill="#425796"/>
<path d="M33.6611 48.2726H30.5142C29.6995 48.2726 29.0391 47.6122 29.0391 46.7975C29.0391 45.9828 29.6995 45.3224 30.5142 45.3224H33.6611C34.4758 45.3224 35.1362 45.9828 35.1362 46.7975C35.1362 47.6122 34.4758 48.2726 33.6611 48.2726Z" fill="#425796"/>
<path d="M33.6611 54.5664H30.5142C29.6995 54.5664 29.0391 53.9059 29.0391 53.0913C29.0391 52.2766 29.6995 51.6161 30.5142 51.6161H33.6611C34.4758 51.6161 35.1362 52.2766 35.1362 53.0913C35.1362 53.9059 34.4758 54.5664 33.6611 54.5664Z" fill="#425796"/>
<path d="M47.7236 40.5038C47.7236 41.3181 47.0628 41.9789 46.2485 41.9789H43.1016C42.2873 41.9789 41.6265 41.3181 41.6265 40.5038C41.6265 39.6895 42.2873 39.0287 43.1016 39.0287H46.2485C47.0628 39.0287 47.7236 39.6895 47.7236 40.5038Z" fill="#425796"/>
<path d="M47.7236 40.5036C47.7236 41.3179 47.0628 41.9787 46.2485 41.9787H44.675V39.0285H46.2485C47.0628 39.0285 47.7236 39.6894 47.7236 40.5036Z" fill="#283758"/>
<path d="M47.7239 46.7973C47.7239 47.6116 47.063 48.2724 46.2487 48.2724H43.1018C42.2876 48.2724 41.6267 47.6116 41.6267 46.7973C41.6267 45.9831 42.2876 45.3222 43.1018 45.3222H46.2487C47.063 45.3222 47.7239 45.9831 47.7239 46.7973Z" fill="#425796"/>
<path d="M46.2485 48.2724H44.675V45.3222H46.2485C47.0628 45.3222 47.7236 45.9831 47.7236 46.7973C47.7236 47.6116 47.0628 48.2724 46.2485 48.2724Z" fill="#283758"/>
<path d="M47.7239 53.0911C47.7239 53.9053 47.063 54.5662 46.2487 54.5662H43.1018C42.2876 54.5662 41.6267 53.9053 41.6267 53.0911C41.6267 52.2768 42.2876 51.616 43.1018 51.616H46.2487C47.063 51.616 47.7239 52.2768 47.7239 53.0911Z" fill="#425796"/>
<path d="M47.7236 53.0911C47.7236 53.9053 47.0628 54.5662 46.2485 54.5662H44.675V51.616H46.2485C47.0628 51.616 47.7236 52.2768 47.7236 53.0911Z" fill="#283758"/>
<path d="M58.8361 41.9787H55.6892C54.8746 41.9787 54.2141 41.3183 54.2141 40.5036C54.2141 39.689 54.8746 39.0285 55.6892 39.0285H58.8361C59.6508 39.0285 60.3113 39.689 60.3113 40.5036C60.3113 41.3183 59.6508 41.9787 58.8361 41.9787Z" fill="#283758"/>
<path d="M58.8361 48.2724H55.6892C54.8746 48.2724 54.2141 47.612 54.2141 46.7973C54.2141 45.9827 54.8746 45.3222 55.6892 45.3222H58.8361C59.6508 45.3222 60.3113 45.9827 60.3113 46.7973C60.3113 47.612 59.6508 48.2724 58.8361 48.2724Z" fill="#283758"/>
<path d="M58.8361 54.5662H55.6892C54.8746 54.5662 54.2141 53.9057 54.2141 53.0911C54.2141 52.2764 54.8746 51.616 55.6892 51.616H58.8361C59.6508 51.616 60.3113 52.2764 60.3113 53.0911C60.3113 53.9057 59.6508 54.5662 58.8361 54.5662Z" fill="#283758"/>
</svg>
