<svg width="140" height="140" viewBox="0 0 140 140" fill="none" xmlns="http://www.w3.org/2000/svg">
<circle cx="70" cy="70" r="70" fill="#19202F"/>
<path d="M97.0075 34.5411H43.5269C39.9456 34.5411 36.8418 37.6449 36.8418 41.2262V109.987C36.8418 113.568 39.9456 116.672 43.5269 116.672H97.0075C100.589 116.672 103.693 113.568 103.693 109.987V41.2262C103.693 37.6449 100.589 34.5411 97.0075 34.5411Z" fill="#CFC3FF"/>
<path d="M86.0248 94.2292C86.5023 93.7517 87.4573 93.513 88.1736 93.9905L94.3812 98.288C95.8137 99.243 97.0074 98.5268 97.0074 96.8555V42.8974C97.0074 41.9424 96.2912 41.2261 95.3362 41.2261H45.1981C44.2431 41.2261 43.5269 41.9424 43.5269 42.8974V108.316C43.5269 109.271 44.2431 109.987 45.1981 109.987H56.4195C65.2533 109.987 73.8485 106.406 80.056 100.198L86.0248 94.2292Z" fill="white"/>
<path d="M71 85C78.1797 85 84 79.1797 84 72C84 64.8203 78.1797 59 71 59C63.8203 59 58 64.8203 58 72C58 79.1797 63.8203 85 71 85Z" stroke="#121824" stroke-width="2" stroke-linecap="round" stroke-linejoin="round"/>
<path d="M71 66V71.3333L73 74" stroke="#121824" stroke-width="2" stroke-linecap="round" stroke-linejoin="round"/>
<path d="M94.3814 98.0493L88.1739 93.7517C87.4576 93.2742 86.7414 93.513 86.0251 93.9905L80.0563 99.9593C76.475 103.541 72.1774 106.167 67.6411 107.838L96.2914 98.288C95.8139 98.7655 95.0977 98.5268 94.3814 98.0493Z" fill="url(#paint0_linear)"/>
<path d="M83.6375 31.1984H78.6237C78.6237 26.6621 74.8037 22.842 70.2674 22.842C65.7311 22.842 61.911 26.6621 61.911 31.1984H56.8972C54.9872 31.1984 53.5547 32.6309 53.5547 34.5409V42.8973C53.5547 43.8523 54.2709 44.5685 55.2259 44.5685H85.3088C86.2638 44.5685 86.9801 43.8523 86.9801 42.8973V34.5409C86.9801 32.6309 85.5476 31.1984 83.6375 31.1984ZM70.2674 34.5409C68.3574 34.5409 66.9249 33.1084 66.9249 31.1984C66.9249 29.2884 68.3574 27.8558 70.2674 27.8558C72.1774 27.8558 73.6099 29.2884 73.6099 31.1984C73.6099 33.1084 72.1774 34.5409 70.2674 34.5409Z" fill="url(#paint1_linear)"/>
<defs>
<linearGradient id="paint0_linear" x1="67.6748" y1="100.824" x2="96.2351" y2="100.824" gradientUnits="userSpaceOnUse">
<stop stop-color="#BAAAFF"/>
<stop offset="1" stop-color="#D2C7FF"/>
</linearGradient>
<linearGradient id="paint1_linear" x1="53.594" y1="33.9461" x2="86.9143" y2="33.9461" gradientUnits="userSpaceOnUse">
<stop stop-color="#BAAAFF"/>
<stop offset="1" stop-color="#D2C7FF"/>
</linearGradient>
</defs>
</svg>
