<svg width="343" height="542" viewBox="0 0 343 542" fill="none" xmlns="http://www.w3.org/2000/svg">
<rect width="244.613" height="150.19" rx="12" transform="matrix(0.866202 -0.499694 0.866202 0.499694 0.625 465.928)" fill="#FFC3D4" fill-opacity="0.4"/>
<path d="M155.476 460.899L162.489 456.853C168.393 453.447 168.393 448.842 162.683 445.548C156.973 442.254 148.99 442.254 143.086 445.66L136.073 449.705L155.476 460.899ZM155.836 456.469L143.751 449.498L146.578 447.867C150.071 445.852 154.838 445.884 158.469 447.978C162.1 450.073 162.156 452.823 158.663 454.838L155.836 456.469ZM160.234 435.767L156.104 438.15L175.507 449.343L187.786 442.259L183.933 440.037L175.784 444.738L160.234 435.767ZM185.566 421.154L169.766 430.268L173.619 432.491L179.468 429.117L195.018 438.088L199.148 435.705L183.598 426.735L189.419 423.377L185.566 421.154Z" fill="#FBC2D2"/>
<g filter="url(#filter0_b)">
<path d="M7.36328 467.831C8.04509 469.111 9.26377 470.316 11.0193 471.329L120.325 534.385C126.066 537.697 135.373 537.697 141.114 534.385L332.209 424.146C333.965 423.134 335.183 421.928 335.865 420.648C337.413 423.554 336.194 426.844 332.209 429.143L141.114 539.382C135.373 542.694 126.066 542.694 120.325 539.382L11.0193 476.326C7.03426 474.027 5.81559 470.736 7.36328 467.831Z" fill="#FBC2D2" fill-opacity="0.4"/>
</g>
<g filter="url(#filter1_b)">
<rect width="244.613" height="150.19" rx="12" transform="matrix(0.866202 -0.499694 0.866202 0.499694 0.625 351.829)" fill="#C8BFEB" fill-opacity="0.4"/>
</g>
<path d="M128.029 344.935C132.048 342.617 132.381 339.739 128.75 337.644C125.978 336.045 122.541 335.885 118.882 336.908L114.475 338.044C113.394 338.315 111.842 338.635 110.788 338.028C109.791 337.452 109.957 336.556 111.343 335.757C112.646 335.005 114.614 334.574 117.247 334.654L116.97 331.52C113.255 331.488 110.179 332.207 107.712 333.63C103.831 335.869 103.554 338.651 106.908 340.586C109.541 342.105 112.895 342.185 116.277 341.226L120.712 340.106C121.709 339.85 123.539 339.435 124.814 340.17C125.923 340.81 125.867 341.865 124.343 342.745C122.818 343.624 120.046 344.168 116.748 344.024L116.692 347.318C120.795 347.606 124.925 346.726 128.029 344.935ZM140.036 320.42C137.985 321.603 137.015 323.154 137.209 324.641C134.881 324.353 132.497 324.769 130.529 325.904C128.505 327.072 127.812 328.463 128.561 329.726L126.51 328.543L122.684 330.749L137.375 339.224L141.339 336.937L131.665 331.357C131.305 330.445 131.831 329.47 133.107 328.735C134.742 327.791 136.793 327.823 138.512 328.814L146.966 333.691L150.929 331.405L141.976 326.24C141.699 326.08 141.422 325.92 141.145 325.792C140.84 324.913 141.367 323.969 142.614 323.25C144.277 322.29 146.328 322.322 148.047 323.314L156.501 328.191L160.437 325.92L151.484 320.755C147.797 318.629 143.39 318.485 140.036 320.42ZM160.07 309.183L161.844 310.206C159.404 310.046 157.187 310.526 155.302 311.613C151.227 313.964 151.477 317.529 155.884 320.072C160.319 322.63 166.528 322.726 170.547 320.408C172.46 319.304 173.236 318.025 172.986 316.634L174.76 317.657L178.586 315.451L163.895 306.976L160.07 309.183ZM167.886 317.721C165.53 319.08 162.259 319.112 159.903 317.753C157.575 316.41 157.603 314.507 159.959 313.148C161.456 312.285 163.396 311.933 165.198 312.141L169.633 314.699C169.993 315.738 169.383 316.858 167.886 317.721ZM181.386 301.011L177.172 298.965C175.038 300.324 173.652 302.051 174.068 303.698L171.823 302.402L167.998 304.609L182.688 313.084L186.652 310.797L177.505 305.52C177.311 304.257 178.697 302.626 181.386 301.011ZM200.597 297.476C200.569 298.42 199.987 299.171 199.072 299.699C197.797 300.434 196.189 300.466 194.582 299.539L189.121 296.389L194.887 293.063L191.671 291.208L185.906 294.534L181.748 292.135L177.84 294.39L181.998 296.789L179.558 298.196L182.774 300.051L185.213 298.643L191.2 302.097C194.72 304.128 198.712 304.16 202.149 302.177C204.006 301.106 205.059 299.859 205.253 298.34L200.597 297.476ZM133.279 377.885C135.996 376.318 137.16 374.303 136.633 372.176L131.45 372.32C131.727 373.567 131.228 374.75 129.593 375.694C127.237 377.053 124.021 377.053 121.749 375.742C119.476 374.431 119.476 372.576 121.804 371.233C123.329 370.353 125.213 370.033 127.265 370.097L127.098 367.123C123.744 366.915 120.557 367.635 118.062 369.074C113.461 371.728 113.433 375.582 117.757 378.076C122.081 380.571 128.734 380.507 133.279 377.885ZM149.384 368.594C153.819 366.036 153.902 362.214 149.55 359.704C145.199 357.193 138.574 357.241 134.139 359.8C129.649 362.39 129.538 366.228 133.889 368.738C138.241 371.249 144.894 371.185 149.384 368.594ZM145.642 366.435C143.369 367.747 140.182 367.731 137.909 366.419C135.636 365.108 135.608 363.269 137.881 361.958C140.071 360.695 143.258 360.711 145.531 362.022C147.804 363.333 147.832 365.172 145.642 366.435ZM153.256 348.771C151.26 349.922 150.457 351.378 151.177 352.689L149.098 351.49L145.273 353.696L159.964 362.171L163.928 359.884L154.282 354.32C153.949 353.36 154.587 352.321 155.889 351.569C157.636 350.562 159.853 350.562 161.599 351.569L169.97 356.398L173.906 354.128L165.037 349.011C161.295 346.852 156.749 346.756 153.256 348.771ZM182.934 343.643C182.907 344.587 182.324 345.338 181.41 345.866C180.135 346.601 178.527 346.633 176.919 345.706L171.459 342.556L177.224 339.23L174.009 337.375L168.243 340.701L164.086 338.302L160.177 340.557L164.335 342.956L161.896 344.363L165.111 346.218L167.551 344.81L173.538 348.264C177.058 350.295 181.049 350.327 184.486 348.344C186.344 347.273 187.397 346.026 187.591 344.507L182.934 343.643ZM190.792 331.563L186.579 329.516C184.444 330.875 183.059 332.602 183.474 334.249L181.229 332.954L177.404 335.161L192.095 343.635L196.059 341.349L186.911 336.072C186.717 334.809 188.103 333.178 190.792 331.563ZM200.551 321.808L202.325 322.831C199.886 322.671 197.668 323.151 195.784 324.238C191.709 326.589 191.958 330.154 196.366 332.697C200.801 335.255 207.009 335.351 211.029 333.033C212.941 331.929 213.717 330.65 213.468 329.259L215.242 330.282L219.067 328.076L204.376 319.601L200.551 321.808ZM208.368 330.346C206.012 331.706 202.741 331.737 200.385 330.378C198.056 329.035 198.084 327.132 200.44 325.773C201.937 324.91 203.877 324.558 205.679 324.766L210.114 327.324C210.474 328.364 209.864 329.483 208.368 330.346ZM230.321 321.903C233.038 320.336 234.202 318.321 233.675 316.195L228.492 316.339C228.769 317.586 228.27 318.769 226.635 319.713C224.279 321.072 221.063 321.072 218.79 319.761C216.517 318.449 216.517 316.595 218.846 315.251C220.37 314.372 222.255 314.052 224.306 314.116L224.14 311.142C220.786 310.934 217.598 311.654 215.104 313.093C210.502 315.747 210.475 319.601 214.799 322.095C219.123 324.59 225.775 324.526 230.321 321.903ZM244.624 308.056C244.596 308.999 244.014 309.751 243.1 310.278C241.825 311.014 240.217 311.046 238.609 310.118L233.149 306.968L238.914 303.642L235.699 301.787L229.933 305.113L225.776 302.715L221.867 304.97L226.025 307.368L223.586 308.775L226.801 310.63L229.24 309.223L235.228 312.677C238.748 314.708 242.739 314.74 246.176 312.757C248.033 311.685 249.087 310.438 249.281 308.919L244.624 308.056ZM259.162 305.266C262.516 303.331 262.71 301.044 259.91 299.429C257.083 297.798 253.591 298.534 251.844 299.061L248.795 299.925C247.936 300.165 246.91 300.309 246.273 299.941C245.663 299.589 245.663 299.013 246.661 298.438C247.742 297.814 249.599 297.414 251.512 297.366L251.04 294.792C248.241 294.808 245.663 295.464 243.584 296.663C240.341 298.534 239.981 300.82 242.559 302.307C244.721 303.555 247.409 303.443 250.431 302.563L253.535 301.668C254.394 301.428 255.614 301.236 256.362 301.668C257.111 302.1 257.139 302.755 256.03 303.395C254.81 304.098 252.787 304.53 249.959 304.498L250.292 307.344C253.563 307.408 256.861 306.593 259.162 305.266Z" fill="#BAAAFF"/>
<g filter="url(#filter2_b)">
<path d="M7.36328 352.925C8.04509 354.205 9.26377 355.41 11.0193 356.423L120.325 419.479C126.066 422.79 135.373 422.79 141.114 419.479L332.209 309.24C333.965 308.227 335.183 307.022 335.865 305.742C337.413 308.648 336.194 311.938 332.209 314.237L141.114 424.476C135.373 427.787 126.066 427.787 120.325 424.476L11.0193 361.419C7.03426 359.121 5.81559 355.83 7.36328 352.925Z" fill="#B9AEE5" fill-opacity="0.4"/>
</g>
<g filter="url(#filter3_b)">
<rect width="244.613" height="150.19" rx="12" transform="matrix(0.866202 -0.499694 0.866202 0.499694 0.625 237.519)" fill="#B1EAFF" fill-opacity="0.4"/>
</g>
<path d="M93.343 245.754L101.575 256.548L82.8654 251.798L77.8206 254.709L97.2236 265.902L101.076 263.679L86.746 255.412L104.181 259.937L104.181 259.969L107.507 258.051L99.5242 247.913L113.966 256.244L117.818 254.021L98.4154 242.828L93.343 245.754ZM101.947 237.401C100.201 238.408 100.118 239.863 101.725 240.791C103.305 241.702 105.828 241.654 107.574 240.647C109.293 239.655 109.348 238.216 107.768 237.305C106.16 236.377 103.666 236.409 101.947 237.401ZM122.293 251.44L126.229 249.169L111.538 240.695L107.602 242.965L122.293 251.44ZM120.203 228.66L127.936 233.121C125.608 233.025 123.474 233.489 121.644 234.545C117.57 236.895 117.819 240.461 122.226 243.003C126.661 245.562 132.87 245.658 136.89 243.339C138.802 242.236 139.578 240.957 139.329 239.565L141.103 240.589L144.928 238.382L124.139 226.39L120.203 228.66ZM134.229 240.653C131.873 242.012 128.602 242.044 126.246 240.685C123.917 239.342 123.945 237.439 126.301 236.08C127.798 235.216 129.738 234.864 131.54 235.072L135.975 237.631C136.335 238.67 135.725 239.789 134.229 240.653ZM138.908 217.87L146.641 222.331C144.313 222.235 142.178 222.699 140.349 223.754C136.274 226.105 136.524 229.671 140.931 232.213C145.366 234.772 151.575 234.867 155.594 232.549C157.507 231.446 158.283 230.166 158.033 228.775L159.807 229.799L163.632 227.592L142.844 215.599L138.908 217.87ZM152.933 229.863C150.577 231.222 147.306 231.254 144.95 229.895C142.622 228.551 142.65 226.649 145.006 225.289C146.502 224.426 148.443 224.074 150.244 224.282L154.679 226.84C155.04 227.88 154.43 228.999 152.933 229.863ZM168.228 224.941L172.192 222.654L151.403 210.661L147.439 212.948L168.228 224.941ZM183.185 207.774C178.695 205.183 172.569 205.167 168.217 207.678C163.671 210.3 163.727 213.946 168.106 216.472C172.541 219.031 179.055 219.015 183.961 216.185C186.65 214.633 187.953 212.731 187.703 210.444L182.631 210.268C182.714 211.947 181.938 213.194 180.275 214.154C177.974 215.481 175.147 215.641 172.68 214.57L183.795 208.157C183.795 208.157 183.49 207.95 183.185 207.774ZM171.211 209.469C172.901 208.493 174.953 208.301 176.865 208.861L169.991 212.827C169.076 211.691 169.492 210.46 171.211 209.469ZM196.133 191.894L203.34 199.025L190.949 195.331L187.734 197.186L194.193 204.302L181.83 200.144L177.672 202.543L197.131 208.268L200.401 206.381L194.276 199.073L206.915 202.623L210.186 200.736L200.263 189.511L196.133 191.894ZM213.547 181.848L215.32 182.871C212.881 182.711 210.664 183.191 208.779 184.278C204.704 186.629 204.954 190.195 209.361 192.737C213.796 195.296 220.005 195.392 224.024 193.073C225.937 191.97 226.713 190.691 226.463 189.299L228.237 190.323L232.062 188.116L217.372 179.641L213.547 181.848ZM221.363 190.387C219.007 191.746 215.736 191.778 213.38 190.419C211.052 189.076 211.08 187.173 213.436 185.814C214.932 184.95 216.873 184.598 218.674 184.806L223.109 187.365C223.47 188.404 222.86 189.523 221.363 190.387ZM234.862 173.677L230.649 171.63C228.515 172.989 227.129 174.716 227.545 176.363L225.3 175.068L221.474 177.275L236.165 185.749L240.129 183.463L230.982 178.186C230.788 176.923 232.174 175.292 234.862 173.677ZM255.432 166.096C250.941 163.506 244.816 163.49 240.464 166C235.918 168.623 235.973 172.268 240.353 174.795C244.788 177.353 251.302 177.337 256.208 174.507C258.897 172.956 260.199 171.053 259.95 168.766L254.877 168.591C254.96 170.27 254.184 171.517 252.521 172.476C250.221 173.803 247.393 173.963 244.926 172.892L256.042 166.48C256.042 166.48 255.737 166.272 255.432 166.096ZM243.457 167.791C245.148 166.816 247.199 166.624 249.112 167.183L242.238 171.149C241.323 170.014 241.739 168.782 243.457 167.791Z" fill="#93D3E9"/>
<g filter="url(#filter4_b)">
<path d="M7.36328 239.018C8.04509 240.298 9.26377 241.503 11.0193 242.516L120.325 305.572C126.066 308.884 135.373 308.884 141.114 305.572L332.209 195.333C333.965 194.32 335.183 193.115 335.865 191.835C337.413 194.741 336.194 198.031 332.209 200.33L141.114 310.569C135.373 313.88 126.066 313.88 120.325 310.569L11.0193 247.513C7.03426 245.214 5.81559 241.923 7.36328 239.018Z" fill="#A9DCEE" fill-opacity="0.4"/>
</g>
<g filter="url(#filter5_b)">
<path d="M7.36329 125.707C8.0451 126.987 9.26377 128.192 11.0193 129.205L120.325 192.261C126.066 195.572 135.373 195.572 141.114 192.261L332.209 82.022C333.965 81.0093 335.183 79.8041 335.865 78.5242C337.413 81.4295 336.194 84.72 332.209 87.0189L141.114 197.258C135.373 200.569 126.066 200.569 120.325 197.258L11.0193 134.201C7.03427 131.902 5.81559 128.612 7.36329 125.707Z" fill="#9FD1C9" fill-opacity="0.4"/>
</g>
<g filter="url(#filter6_b)">
<rect width="244.613" height="150.19" rx="12" transform="matrix(0.866202 -0.499694 0.866202 0.499694 0.625 123.208)" fill="#DAFAF4" fill-opacity="0.4"/>
</g>
<path d="M172.612 108.505L176.936 106.011L149.301 99.375L144.339 102.237L155.87 118.163L160.111 115.717L157.2 111.831L165.876 106.826L172.612 108.505ZM155.011 108.873L150.687 103.053L160.748 105.563L155.011 108.873ZM179.594 104.477L183.502 102.223L177.598 98.817L181.174 96.7542C185.526 94.2438 185.748 90.9818 181.701 88.6472C177.654 86.3126 172.027 86.4565 167.675 88.967L160.191 93.2843L179.594 104.477ZM173.856 96.6583L167.841 93.1884L171.084 91.3176C173.357 90.0064 175.658 89.8944 177.598 91.0137C179.566 92.149 179.372 93.4762 177.099 94.7874L173.856 96.6583ZM182.051 80.6737L177.921 83.0562L197.324 94.2494L201.454 91.8668L182.051 80.6737Z" fill="#7DD9CA"/>
<defs>
<filter id="filter0_b" x="-23.2861" y="390.648" width="389.801" height="181.217" filterUnits="userSpaceOnUse" color-interpolation-filters="sRGB">
<feFlood flood-opacity="0" result="BackgroundImageFix"/>
<feGaussianBlur in="BackgroundImage" stdDeviation="15"/>
<feComposite in2="SourceAlpha" operator="in" result="effect1_backgroundBlur"/>
<feBlend mode="normal" in="SourceGraphic" in2="effect1_backgroundBlur" result="shape"/>
</filter>
<filter id="filter1_b" x="-23.2861" y="203.111" width="389.801" height="250.255" filterUnits="userSpaceOnUse" color-interpolation-filters="sRGB">
<feFlood flood-opacity="0" result="BackgroundImageFix"/>
<feGaussianBlur in="BackgroundImage" stdDeviation="15"/>
<feComposite in2="SourceAlpha" operator="in" result="effect1_backgroundBlur"/>
<feBlend mode="normal" in="SourceGraphic" in2="effect1_backgroundBlur" result="shape"/>
</filter>
<filter id="filter2_b" x="-23.2861" y="275.742" width="389.801" height="181.217" filterUnits="userSpaceOnUse" color-interpolation-filters="sRGB">
<feFlood flood-opacity="0" result="BackgroundImageFix"/>
<feGaussianBlur in="BackgroundImage" stdDeviation="15"/>
<feComposite in2="SourceAlpha" operator="in" result="effect1_backgroundBlur"/>
<feBlend mode="normal" in="SourceGraphic" in2="effect1_backgroundBlur" result="shape"/>
</filter>
<filter id="filter3_b" x="-23.2861" y="88.8" width="389.801" height="250.255" filterUnits="userSpaceOnUse" color-interpolation-filters="sRGB">
<feFlood flood-opacity="0" result="BackgroundImageFix"/>
<feGaussianBlur in="BackgroundImage" stdDeviation="15"/>
<feComposite in2="SourceAlpha" operator="in" result="effect1_backgroundBlur"/>
<feBlend mode="normal" in="SourceGraphic" in2="effect1_backgroundBlur" result="shape"/>
</filter>
<filter id="filter4_b" x="-23.2861" y="161.835" width="389.801" height="181.217" filterUnits="userSpaceOnUse" color-interpolation-filters="sRGB">
<feFlood flood-opacity="0" result="BackgroundImageFix"/>
<feGaussianBlur in="BackgroundImage" stdDeviation="15"/>
<feComposite in2="SourceAlpha" operator="in" result="effect1_backgroundBlur"/>
<feBlend mode="normal" in="SourceGraphic" in2="effect1_backgroundBlur" result="shape"/>
</filter>
<filter id="filter5_b" x="-23.2861" y="48.5242" width="389.801" height="181.217" filterUnits="userSpaceOnUse" color-interpolation-filters="sRGB">
<feFlood flood-opacity="0" result="BackgroundImageFix"/>
<feGaussianBlur in="BackgroundImage" stdDeviation="15"/>
<feComposite in2="SourceAlpha" operator="in" result="effect1_backgroundBlur"/>
<feBlend mode="normal" in="SourceGraphic" in2="effect1_backgroundBlur" result="shape"/>
</filter>
<filter id="filter6_b" x="-23.2861" y="-25.5104" width="389.801" height="250.255" filterUnits="userSpaceOnUse" color-interpolation-filters="sRGB">
<feFlood flood-opacity="0" result="BackgroundImageFix"/>
<feGaussianBlur in="BackgroundImage" stdDeviation="15"/>
<feComposite in2="SourceAlpha" operator="in" result="effect1_backgroundBlur"/>
<feBlend mode="normal" in="SourceGraphic" in2="effect1_backgroundBlur" result="shape"/>
</filter>
</defs>
</svg>
