<svg width="89" height="88" viewBox="0 0 89 88" fill="none" xmlns="http://www.w3.org/2000/svg">
<circle cx="44.5" cy="44" r="44" fill="#19202F"/>
<g clip-path="url(#clip0)">
<path d="M59.6471 65.6996H27.3533C26.4088 65.6996 25.6431 64.9339 25.6431 63.9894V21.7103C25.6431 20.7657 26.4088 20 27.3533 20H59.6471C60.5916 20 61.3573 20.7657 61.3573 21.7103V63.9894C61.3573 64.9339 60.5916 65.6996 59.6471 65.6996Z" fill="#7DD9CA"/>
<path d="M59.6469 20H56.2249C57.1694 20 57.9351 20.7657 57.9351 21.7103V63.9894C57.9351 64.9339 57.1694 65.6996 56.2249 65.6996H59.6469C60.5915 65.6996 61.3572 64.9339 61.3572 63.9894V21.7103C61.3572 20.7657 60.5915 20 59.6469 20V20Z" fill="#7DD9CA"/>
<path d="M66.8122 70H39.6657C38.7334 70 37.9778 69.2444 37.9778 68.3121V50.086C37.9778 49.1537 38.7334 48.3981 39.6657 48.3981H66.8123C67.7445 48.3981 68.5002 49.1537 68.5002 50.086V68.3121C68.5001 69.2444 67.7444 70 66.8122 70Z" fill="#E0F7FF"/>
<path d="M36.2675 45.3999H20.2103C19.2657 45.3999 18.5 44.6342 18.5 43.6896V33.8979C18.5 32.9534 19.2657 32.1877 20.2103 32.1877H36.2675C37.212 32.1877 37.9777 32.9534 37.9777 33.8979V43.6896C37.9777 44.6342 37.212 45.3999 36.2675 45.3999Z" fill="#E0F7FF"/>
<path d="M54.133 60.9658L68.3066 49.3021C68.0242 48.7649 67.4615 48.3981 66.8125 48.3981H39.666C39.017 48.3981 38.4543 48.7649 38.1719 49.3021L52.3455 60.9658C52.8647 61.3931 53.6138 61.3931 54.133 60.9658Z" fill="#19202F"/>
<path d="M39.6655 69.9999H66.8121C67.2855 69.9999 67.7127 69.8044 68.0193 69.4904L55.45 59.8815L54.1325 60.9657C53.6132 61.393 52.8642 61.393 52.345 60.9657L51.0274 59.8815L38.4583 69.4904C38.7648 69.8044 39.192 69.9999 39.6655 69.9999Z" fill="#E0F7FF"/>
</g>
<defs>
<clipPath id="clip0">
<rect width="50" height="50" fill="white" transform="translate(18.5 20)"/>
</clipPath>
</defs>
</svg>
