<svg width="16" height="16" viewBox="0 0 16 16" fill="none" xmlns="http://www.w3.org/2000/svg">
<path fill-rule="evenodd" clip-rule="evenodd" d="M3.33335 8.66671H11.2434L8.82135 11.5734C8.58535 11.856 8.62402 12.2767 8.90669 12.512C9.19002 12.748 9.61002 12.7094 9.84602 12.4267L13.1794 8.42671C13.2054 8.39537 13.218 8.35871 13.2374 8.32404C13.2534 8.29604 13.2727 8.27204 13.2847 8.24137C13.3147 8.16471 13.3327 8.08404 13.3327 8.00271C13.3327 8.00204 13.3334 8.00071 13.3334 8.00004C13.3334 7.99937 13.3327 7.99804 13.3327 7.99737C13.3327 7.91604 13.3147 7.83537 13.2847 7.75871C13.2727 7.72804 13.2534 7.70404 13.2374 7.67604C13.218 7.64137 13.2054 7.60471 13.1794 7.57337L9.84602 3.57337C9.71335 3.41537 9.52402 3.33337 9.33335 3.33337C9.18269 3.33337 9.03135 3.38404 8.90669 3.48804C8.62402 3.72337 8.58535 4.14404 8.82135 4.42671L11.2434 7.33337H3.33335C2.96535 7.33337 2.66669 7.63204 2.66669 8.00004C2.66669 8.36804 2.96535 8.66671 3.33335 8.66671Z" fill="#121824"/>
<mask id="mask0" mask-type="alpha" maskUnits="userSpaceOnUse" x="2" y="3" width="12" height="10">
<path fill-rule="evenodd" clip-rule="evenodd" d="M3.33335 8.66671H11.2434L8.82135 11.5734C8.58535 11.856 8.62402 12.2767 8.90669 12.512C9.19002 12.748 9.61002 12.7094 9.84602 12.4267L13.1794 8.42671C13.2054 8.39537 13.218 8.35871 13.2374 8.32404C13.2534 8.29604 13.2727 8.27204 13.2847 8.24137C13.3147 8.16471 13.3327 8.08404 13.3327 8.00271C13.3327 8.00204 13.3334 8.00071 13.3334 8.00004C13.3334 7.99937 13.3327 7.99804 13.3327 7.99737C13.3327 7.91604 13.3147 7.83537 13.2847 7.75871C13.2727 7.72804 13.2534 7.70404 13.2374 7.67604C13.218 7.64137 13.2054 7.60471 13.1794 7.57337L9.84602 3.57337C9.71335 3.41537 9.52402 3.33337 9.33335 3.33337C9.18269 3.33337 9.03135 3.38404 8.90669 3.48804C8.62402 3.72337 8.58535 4.14404 8.82135 4.42671L11.2434 7.33337H3.33335C2.96535 7.33337 2.66669 7.63204 2.66669 8.00004C2.66669 8.36804 2.96535 8.66671 3.33335 8.66671Z" fill="white"/>
</mask>
<g mask="url(#mask0)">
<rect width="16" height="16" fill="#3F9DFF"/>
</g>
</svg>
