<svg width="31" height="31" viewBox="0 0 31 31" fill="none" xmlns="http://www.w3.org/2000/svg">
<path fill-rule="evenodd" clip-rule="evenodd" d="M24.5418 16.7917H9.21621L13.9088 22.4234C14.3661 22.971 14.2912 23.7861 13.7435 24.242C13.1945 24.6993 12.3808 24.6244 11.9235 24.0767L5.46521 16.3267C5.41483 16.266 5.39029 16.195 5.35283 16.1278C5.32183 16.0735 5.28437 16.027 5.26112 15.9676C5.203 15.8191 5.16812 15.6628 5.16812 15.5052C5.16812 15.5039 5.16683 15.5013 5.16683 15.5C5.16683 15.4987 5.16812 15.4962 5.16812 15.4949C5.16812 15.3373 5.203 15.181 5.26112 15.0325C5.28437 14.973 5.32183 14.9265 5.35283 14.8723C5.39029 14.8051 5.41483 14.7341 5.46521 14.6734L11.9235 6.92337C12.1806 6.61725 12.5474 6.45837 12.9168 6.45837C13.2087 6.45837 13.502 6.55654 13.7435 6.75804C14.2912 7.214 14.3661 8.02904 13.9088 8.57671L9.21621 14.2084H24.5418C25.2548 14.2084 25.8335 14.787 25.8335 15.5C25.8335 16.213 25.2548 16.7917 24.5418 16.7917" fill="#3F9DFF"/>
<mask id="mask0" mask-type="alpha" maskUnits="userSpaceOnUse" x="5" y="6" width="21" height="19">
<path fill-rule="evenodd" clip-rule="evenodd" d="M24.5418 16.7917H9.21621L13.9088 22.4234C14.3661 22.971 14.2912 23.7861 13.7435 24.242C13.1945 24.6993 12.3808 24.6244 11.9235 24.0767L5.46521 16.3267C5.41483 16.266 5.39029 16.195 5.35283 16.1278C5.32183 16.0735 5.28437 16.027 5.26112 15.9676C5.203 15.8191 5.16812 15.6628 5.16812 15.5052C5.16812 15.5039 5.16683 15.5013 5.16683 15.5C5.16683 15.4987 5.16812 15.4962 5.16812 15.4949C5.16812 15.3373 5.203 15.181 5.26112 15.0325C5.28437 14.973 5.32183 14.9265 5.35283 14.8723C5.39029 14.8051 5.41483 14.7341 5.46521 14.6734L11.9235 6.92337C12.1806 6.61725 12.5474 6.45837 12.9168 6.45837C13.2087 6.45837 13.502 6.55654 13.7435 6.75804C14.2912 7.214 14.3661 8.02904 13.9088 8.57671L9.21621 14.2084H24.5418C25.2548 14.2084 25.8335 14.787 25.8335 15.5C25.8335 16.213 25.2548 16.7917 24.5418 16.7917" fill="white"/>
</mask>
<g mask="url(#mask0)">
<rect width="31" height="31" transform="matrix(-1 0 0 1 31 0)" fill="#3F9DFF"/>
</g>
</svg>
