<svg width="74" height="74" viewBox="0 0 74 74" fill="none" xmlns="http://www.w3.org/2000/svg">
<rect width="74" height="74" rx="37" fill="#FFE7EE"/>
<path d="M47 36.08V37C46.9988 39.1564 46.3005 41.2547 45.0093 42.9818C43.7182 44.709 41.9033 45.9725 39.8354 46.5839C37.7674 47.1953 35.5573 47.1219 33.5345 46.3746C31.5117 45.6273 29.7847 44.2461 28.611 42.4371C27.4373 40.628 26.8798 38.4881 27.0217 36.3363C27.1636 34.1846 27.9972 32.1363 29.3983 30.4971C30.7994 28.8578 32.6928 27.7154 34.7962 27.2401C36.8996 26.7649 39.1003 26.9823 41.07 27.86" stroke="#121824" stroke-width="2" stroke-linecap="round" stroke-linejoin="round"/>
<path d="M47 29L37 39.01L34 36.01" stroke="#121824" stroke-width="2" stroke-linecap="round" stroke-linejoin="round"/>
</svg>
