<svg width="96" height="61" viewBox="0 0 96 61" fill="none" xmlns="http://www.w3.org/2000/svg">
<path d="M86.36 14.9724C85.6915 15.5114 84.8587 15.8053 84 15.8053C83.1413 15.8053 82.3085 15.5114 81.64 14.9724C81.4358 14.8027 81.1725 14.721 80.9081 14.7454C80.6437 14.7698 80.3997 14.8982 80.23 15.1024C80.0603 15.3066 79.9786 15.5699 80.003 15.8344C80.0274 16.0988 80.1558 16.3427 80.36 16.5124C81.3813 17.365 82.6696 17.8321 84 17.8321C85.3304 17.8321 86.6187 17.365 87.64 16.5124C87.8442 16.3427 87.9726 16.0988 87.997 15.8344C88.0214 15.5699 87.9397 15.3066 87.77 15.1024C87.686 15.0013 87.5828 14.9177 87.4665 14.8565C87.3501 14.7952 87.2229 14.7575 87.0919 14.7454C86.8275 14.721 86.5642 14.8027 86.36 14.9724ZM81.21 11.2824C81.3974 11.4687 81.6508 11.5732 81.915 11.5732C82.1792 11.5732 82.4326 11.4687 82.62 11.2824C82.8063 11.0951 82.9108 10.8416 82.9108 10.5774C82.9108 10.3132 82.8063 10.0598 82.62 9.87243C82.0477 9.32942 81.2889 9.02671 80.5 9.02671C79.7111 9.02671 78.9523 9.32942 78.38 9.87243C78.2753 9.96208 78.1903 10.0724 78.1303 10.1965C78.0703 10.3205 78.0365 10.4557 78.0312 10.5934C78.0259 10.7311 78.0491 10.8684 78.0994 10.9968C78.1496 11.1251 78.2259 11.2416 78.3234 11.3391C78.4208 11.4365 78.5374 11.5128 78.6657 11.5631C78.794 11.6133 78.9313 11.6365 79.0691 11.6312C79.2068 11.6259 79.3419 11.5922 79.466 11.5322C79.59 11.4721 79.7004 11.3871 79.79 11.2824C79.883 11.1887 79.9936 11.1143 80.1154 11.0635C80.2373 11.0128 80.368 10.9866 80.5 10.9866C80.632 10.9866 80.7627 11.0128 80.8846 11.0635C81.0064 11.1143 81.117 11.1887 81.21 11.2824ZM89.62 9.87243C89.0477 9.32942 88.2889 9.02671 87.5 9.02671C86.7111 9.02671 85.9523 9.32942 85.38 9.87243C85.2162 10.0637 85.1306 10.3098 85.1403 10.5615C85.15 10.8132 85.2543 11.0519 85.4324 11.23C85.6105 11.4081 85.8493 11.5124 86.101 11.5221C86.3526 11.5319 86.5987 11.4463 86.79 11.2824C86.883 11.1887 86.9936 11.1143 87.1154 11.0635C87.2373 11.0128 87.368 10.9866 87.5 10.9866C87.632 10.9866 87.7627 11.0128 87.8846 11.0635C88.0064 11.1143 88.117 11.1887 88.21 11.2824C88.3974 11.4687 88.6508 11.5732 88.915 11.5732C89.1792 11.5732 89.4326 11.4687 89.62 11.2824C89.8063 11.0951 89.9108 10.8416 89.9108 10.5774C89.9108 10.3132 89.8063 10.0598 89.62 9.87243ZM84 2.74243C82.0222 2.74243 80.0888 3.32892 78.4443 4.42774C76.7998 5.52655 75.5181 7.08834 74.7612 8.9156C74.0043 10.7429 73.8063 12.7535 74.1922 14.6933C74.578 16.6331 75.5304 18.415 76.9289 19.8135C78.3275 21.212 80.1093 22.1644 82.0491 22.5503C83.9889 22.9361 85.9996 22.7381 87.8268 21.9812C89.6541 21.2244 91.2159 19.9426 92.3147 18.2981C93.4135 16.6536 94 14.7202 94 12.7424C94 11.4292 93.7413 10.1289 93.2388 8.9156C92.7363 7.70234 91.9997 6.59995 91.0711 5.67136C90.1425 4.74278 89.0401 4.00618 87.8268 3.50364C86.6136 3.00109 85.3132 2.74243 84 2.74243ZM84 20.7424C82.4178 20.7424 80.871 20.2732 79.5554 19.3942C78.2398 18.5151 77.2145 17.2657 76.609 15.8039C76.0035 14.3421 75.845 12.7336 76.1537 11.1817C76.4624 9.62986 77.2243 8.2044 78.3432 7.08558C79.462 5.96676 80.8874 5.20483 82.4393 4.89615C83.9911 4.58747 85.5997 4.74589 87.0615 5.3514C88.5233 5.9569 89.7727 6.98228 90.6518 8.29787C91.5308 9.61346 92 11.1602 92 12.7424C92 14.8642 91.1572 16.899 89.6569 18.3993C88.1566 19.8996 86.1217 20.7424 84 20.7424Z" fill="#121824"/>
<path d="M8.42 12.9524C8.51344 13.0451 8.62426 13.1184 8.7461 13.1682C8.86794 13.218 8.9984 13.2432 9.13 13.2424C9.26161 13.2432 9.39207 13.218 9.51391 13.1682C9.63575 13.1184 9.74656 13.0451 9.84 12.9524L11.34 11.4524C11.4337 11.3595 11.5081 11.2489 11.5589 11.127C11.6097 11.0051 11.6358 10.8744 11.6358 10.7424C11.6358 10.6104 11.6097 10.4797 11.5589 10.3579C11.5081 10.236 11.4337 10.1254 11.34 10.0324L9.84 8.53243C9.74677 8.43919 9.63608 8.36523 9.51425 8.31477C9.39243 8.26431 9.26186 8.23834 9.13 8.23834C8.99815 8.23834 8.86758 8.26431 8.74575 8.31477C8.62393 8.36523 8.51324 8.43919 8.42 8.53243C8.32677 8.62567 8.2528 8.73636 8.20234 8.85818C8.15188 8.98 8.12591 9.11057 8.12591 9.24243C8.12591 9.37429 8.15188 9.50486 8.20234 9.62668C8.2528 9.7485 8.32677 9.85919 8.42 9.95243L9.21 10.7424L8.42 11.5324C8.32628 11.6254 8.25188 11.736 8.20111 11.8579C8.15034 11.9797 8.12421 12.1104 8.12421 12.2424C8.12421 12.3744 8.15034 12.5051 8.20111 12.627C8.25188 12.7489 8.32628 12.8595 8.42 12.9524ZM14.36 14.9524C13.6915 15.4914 12.8587 15.7853 12 15.7853C11.1413 15.7853 10.3085 15.4914 9.64 14.9524C9.43579 14.7827 9.17251 14.701 8.90808 14.7254C8.64365 14.7498 8.39974 14.8782 8.23 15.0824C8.06027 15.2866 7.9786 15.5499 8.00298 15.8144C8.02736 16.0788 8.15579 16.3227 8.36 16.4924C9.38134 17.345 10.6696 17.8121 12 17.8121C13.3304 17.8121 14.6187 17.345 15.64 16.4924C15.8442 16.3227 15.9726 16.0788 15.997 15.8144C16.0214 15.5499 15.9397 15.2866 15.77 15.0824C15.686 14.9813 15.5828 14.8977 15.4665 14.8365C15.3501 14.7752 15.2229 14.7375 15.0919 14.7254C14.8275 14.701 14.5642 14.7827 14.36 14.9524ZM15 9.74243C14.8022 9.74243 14.6089 9.80108 14.4444 9.91096C14.28 10.0208 14.1518 10.177 14.0761 10.3597C14.0004 10.5425 13.9806 10.7435 14.0192 10.9375C14.0578 11.1315 14.153 11.3097 14.2929 11.4495C14.4328 11.5894 14.6109 11.6846 14.8049 11.7232C14.9989 11.7618 15.2 11.742 15.3827 11.6663C15.5654 11.5906 15.7216 11.4625 15.8315 11.298C15.9414 11.1336 16 10.9402 16 10.7424C16 10.4772 15.8946 10.2229 15.7071 10.0353C15.5196 9.84779 15.2652 9.74243 15 9.74243ZM12 2.74243C10.0222 2.74243 8.08879 3.32892 6.4443 4.42774C4.79981 5.52655 3.51809 7.08834 2.76121 8.9156C2.00433 10.7429 1.8063 12.7535 2.19215 14.6933C2.578 16.6331 3.53041 18.415 4.92894 19.8135C6.32746 21.212 8.10929 22.1644 10.0491 22.5503C11.9889 22.9361 13.9996 22.7381 15.8268 21.9812C17.6541 21.2244 19.2159 19.9426 20.3147 18.2981C21.4135 16.6536 22 14.7202 22 12.7424C22 11.4292 21.7413 10.1289 21.2388 8.9156C20.7363 7.70234 19.9997 6.59995 19.0711 5.67136C18.1425 4.74278 17.0401 4.00618 15.8268 3.50364C14.6136 3.00109 13.3132 2.74243 12 2.74243ZM12 20.7424C10.4178 20.7424 8.87104 20.2732 7.55544 19.3942C6.23985 18.5151 5.21447 17.2657 4.60897 15.8039C4.00347 14.3421 3.84504 12.7336 4.15372 11.1817C4.4624 9.62986 5.22433 8.2044 6.34315 7.08558C7.46197 5.96676 8.88743 5.20483 10.4393 4.89615C11.9911 4.58747 13.5997 4.74589 15.0615 5.3514C16.5233 5.9569 17.7727 6.98228 18.6518 8.29787C19.5308 9.61346 20 11.1602 20 12.7424C20 14.8642 19.1572 16.899 17.6569 18.3993C16.1566 19.8996 14.1217 20.7424 12 20.7424Z" fill="#121824"/>
<path d="M45 47.7424C45.1978 47.7424 45.3911 47.6838 45.5556 47.5739C45.72 47.464 45.8482 47.3078 45.9239 47.1251C45.9996 46.9424 46.0194 46.7413 45.9808 46.5473C45.9422 46.3534 45.847 46.1752 45.7071 46.0353C45.5673 45.8955 45.3891 45.8002 45.1951 45.7616C45.0011 45.7231 44.8 45.7429 44.6173 45.8186C44.4346 45.8942 44.2784 46.0224 44.1685 46.1869C44.0587 46.3513 44 46.5447 44 46.7424C44 47.0076 44.1054 47.262 44.2929 47.4495C44.4804 47.6371 44.7348 47.7424 45 47.7424ZM50.36 50.9724C49.6915 51.5114 48.8587 51.8053 48 51.8053C47.1413 51.8053 46.3085 51.5114 45.64 50.9724C45.4358 50.8027 45.1725 50.721 44.9081 50.7454C44.6437 50.7698 44.3997 50.8982 44.23 51.1024C44.0603 51.3066 43.9786 51.5699 44.003 51.8344C44.0274 52.0988 44.1558 52.3427 44.36 52.5124C45.3813 53.365 46.6696 53.8321 48 53.8321C49.3304 53.8321 50.6187 53.365 51.64 52.5124C51.8442 52.3427 51.9726 52.0988 51.997 51.8344C52.0214 51.5699 51.9397 51.3066 51.77 51.1024C51.686 51.0013 51.5828 50.9177 51.4665 50.8565C51.3501 50.7952 51.2229 50.7575 51.0919 50.7454C50.8275 50.721 50.5642 50.8027 50.36 50.9724ZM48 38.7424C46.0222 38.7424 44.0888 39.3289 42.4443 40.4277C40.7998 41.5265 39.5181 43.0883 38.7612 44.9156C38.0043 46.7429 37.8063 48.7535 38.1922 50.6933C38.578 52.6331 39.5304 54.415 40.9289 55.8135C42.3275 57.212 44.1093 58.1644 46.0491 58.5503C47.9889 58.9361 49.9996 58.7381 51.8268 57.9812C53.6541 57.2244 55.2159 55.9426 56.3147 54.2981C57.4135 52.6536 58 50.7202 58 48.7424C58 47.4292 57.7413 46.1289 57.2388 44.9156C56.7363 43.7023 55.9997 42.5999 55.0711 41.6714C54.1425 40.7428 53.0401 40.0062 51.8268 39.5036C50.6136 39.0011 49.3132 38.7424 48 38.7424ZM48 56.7424C46.4178 56.7424 44.871 56.2732 43.5554 55.3942C42.2398 54.5151 41.2145 53.2657 40.609 51.8039C40.0035 50.3421 39.845 48.7336 40.1537 47.1817C40.4624 45.6299 41.2243 44.2044 42.3432 43.0856C43.462 41.9668 44.8874 41.2048 46.4393 40.8961C47.9911 40.5875 49.5997 40.7459 51.0615 41.3514C52.5233 41.9569 53.7727 42.9823 54.6518 44.2979C55.5308 45.6135 56 47.1602 56 48.7424C56 50.8642 55.1572 52.899 53.6569 54.3993C52.1566 55.8996 50.1217 56.7424 48 56.7424ZM53.62 45.8724C53.0477 45.3294 52.2889 45.0267 51.5 45.0267C50.7111 45.0267 49.9523 45.3294 49.38 45.8724C49.2162 46.0637 49.1306 46.3098 49.1403 46.5615C49.15 46.8132 49.2543 47.0519 49.4324 47.23C49.6105 47.4081 49.8493 47.5124 50.101 47.5221C50.3526 47.5319 50.5987 47.4463 50.79 47.2824C50.883 47.1887 50.9936 47.1143 51.1154 47.0635C51.2373 47.0128 51.368 46.9866 51.5 46.9866C51.632 46.9866 51.7627 47.0128 51.8846 47.0635C52.0064 47.1143 52.117 47.1887 52.21 47.2824C52.3974 47.4687 52.6508 47.5732 52.915 47.5732C53.1792 47.5732 53.4326 47.4687 53.62 47.2824C53.8063 47.0951 53.9108 46.8416 53.9108 46.5774C53.9108 46.3132 53.8063 46.0598 53.62 45.8724Z" fill="#121824"/>
<path d="M14.36 50.9724C13.6915 51.5114 12.8587 51.8053 12 51.8053C11.1413 51.8053 10.3085 51.5114 9.64 50.9724C9.43579 50.8027 9.17251 50.721 8.90808 50.7454C8.64365 50.7698 8.39974 50.8982 8.23 51.1024C8.06027 51.3066 7.9786 51.5699 8.00298 51.8344C8.02736 52.0988 8.15579 52.3427 8.36 52.5124C9.38134 53.365 10.6696 53.8321 12 53.8321C13.3304 53.8321 14.6187 53.365 15.64 52.5124C15.8442 52.3427 15.9726 52.0988 15.997 51.8344C16.0214 51.5699 15.9397 51.3066 15.77 51.1024C15.686 51.0013 15.5828 50.9177 15.4665 50.8565C15.3501 50.7952 15.2229 50.7575 15.0919 50.7454C14.8275 50.721 14.5642 50.8027 14.36 50.9724ZM9 47.7424C9.19779 47.7424 9.39113 47.6838 9.55557 47.5739C9.72002 47.464 9.8482 47.3078 9.92388 47.1251C9.99957 46.9424 10.0194 46.7413 9.98079 46.5473C9.9422 46.3534 9.84696 46.1752 9.70711 46.0353C9.56726 45.8955 9.38908 45.8002 9.19509 45.7616C9.00111 45.7231 8.80005 45.7429 8.61732 45.8186C8.43459 45.8942 8.27842 46.0224 8.16853 46.1869C8.05865 46.3513 8 46.5447 8 46.7424C8 47.0076 8.10536 47.262 8.2929 47.4495C8.48043 47.6371 8.73479 47.7424 9 47.7424ZM15 45.7424C14.8022 45.7424 14.6089 45.8011 14.4444 45.911C14.28 46.0208 14.1518 46.177 14.0761 46.3597C14.0004 46.5425 13.9806 46.7435 14.0192 46.9375C14.0578 47.1315 14.153 47.3097 14.2929 47.4495C14.4328 47.5894 14.6109 47.6846 14.8049 47.7232C14.9989 47.7618 15.2 47.742 15.3827 47.6663C15.5654 47.5906 15.7216 47.4625 15.8315 47.298C15.9414 47.1336 16 46.9402 16 46.7424C16 46.4772 15.8946 46.2229 15.7071 46.0353C15.5196 45.8478 15.2652 45.7424 15 45.7424ZM12 38.7424C10.0222 38.7424 8.08879 39.3289 6.4443 40.4277C4.79981 41.5265 3.51809 43.0883 2.76121 44.9156C2.00433 46.7429 1.8063 48.7535 2.19215 50.6933C2.578 52.6331 3.53041 54.415 4.92894 55.8135C6.32746 57.212 8.10929 58.1644 10.0491 58.5503C11.9889 58.9361 13.9996 58.7381 15.8268 57.9812C17.6541 57.2244 19.2159 55.9426 20.3147 54.2981C21.4135 52.6536 22 50.7202 22 48.7424C22 47.4292 21.7413 46.1289 21.2388 44.9156C20.7363 43.7023 19.9997 42.5999 19.0711 41.6714C18.1425 40.7428 17.0401 40.0062 15.8268 39.5036C14.6136 39.0011 13.3132 38.7424 12 38.7424ZM12 56.7424C10.4178 56.7424 8.87104 56.2732 7.55544 55.3942C6.23985 54.5151 5.21447 53.2657 4.60897 51.8039C4.00347 50.3421 3.84504 48.7336 4.15372 47.1817C4.4624 45.6299 5.22433 44.2044 6.34315 43.0856C7.46197 41.9668 8.88743 41.2048 10.4393 40.8961C11.9911 40.5875 13.5997 40.7459 15.0615 41.3514C16.5233 41.9569 17.7727 42.9823 18.6518 44.2979C19.5308 45.6135 20 47.1602 20 48.7424C20 50.8642 19.1572 52.899 17.6569 54.3993C16.1566 55.8996 14.1217 56.7424 12 56.7424Z" fill="#121824"/>
<path d="M50.36 14.9724C49.6915 15.5114 48.8587 15.8053 48 15.8053C47.1413 15.8053 46.3085 15.5114 45.64 14.9724C45.4358 14.8027 45.1725 14.721 44.9081 14.7454C44.6437 14.7698 44.3997 14.8982 44.23 15.1024C44.0603 15.3066 43.9786 15.5699 44.003 15.8344C44.0274 16.0988 44.1558 16.3427 44.36 16.5124C45.3813 17.365 46.6696 17.8321 48 17.8321C49.3304 17.8321 50.6187 17.365 51.64 16.5124C51.8442 16.3427 51.9726 16.0988 51.997 15.8344C52.0214 15.5699 51.9397 15.3066 51.77 15.1024C51.686 15.0013 51.5828 14.9177 51.4665 14.8565C51.3501 14.7952 51.2229 14.7575 51.0919 14.7454C50.8275 14.721 50.5642 14.8027 50.36 14.9724ZM45 11.7424C45.1978 11.7424 45.3911 11.6838 45.5556 11.5739C45.72 11.464 45.8482 11.3078 45.9239 11.1251C45.9996 10.9424 46.0194 10.7413 45.9808 10.5473C45.9422 10.3534 45.847 10.1752 45.7071 10.0353C45.5673 9.89547 45.3891 9.80023 45.1951 9.76165C45.0011 9.72306 44.8 9.74286 44.6173 9.81855C44.4346 9.89424 44.2784 10.0224 44.1685 10.1869C44.0587 10.3513 44 10.5447 44 10.7424C44 11.0076 44.1054 11.262 44.2929 11.4495C44.4804 11.6371 44.7348 11.7424 45 11.7424ZM51 9.74243C50.8022 9.74243 50.6089 9.80108 50.4444 9.91096C50.28 10.0208 50.1518 10.177 50.0761 10.3597C50.0004 10.5425 49.9806 10.7435 50.0192 10.9375C50.0578 11.1315 50.153 11.3097 50.2929 11.4495C50.4328 11.5894 50.6109 11.6846 50.8049 11.7232C50.9989 11.7618 51.2 11.742 51.3827 11.6663C51.5654 11.5906 51.7216 11.4625 51.8315 11.298C51.9414 11.1336 52 10.9402 52 10.7424C52 10.4772 51.8946 10.2229 51.7071 10.0353C51.5196 9.84779 51.2652 9.74243 51 9.74243ZM48 2.74243C46.0222 2.74243 44.0888 3.32892 42.4443 4.42774C40.7998 5.52655 39.5181 7.08834 38.7612 8.9156C38.0043 10.7429 37.8063 12.7535 38.1922 14.6933C38.578 16.6331 39.5304 18.415 40.9289 19.8135C42.3275 21.212 44.1093 22.1644 46.0491 22.5503C47.9889 22.9361 49.9996 22.7381 51.8268 21.9812C53.6541 21.2244 55.2159 19.9426 56.3147 18.2981C57.4135 16.6536 58 14.7202 58 12.7424C58 11.4292 57.7413 10.1289 57.2388 8.9156C56.7363 7.70234 55.9997 6.59995 55.0711 5.67136C54.1425 4.74278 53.0401 4.00618 51.8268 3.50364C50.6136 3.00109 49.3132 2.74243 48 2.74243ZM48 20.7424C46.4178 20.7424 44.871 20.2732 43.5554 19.3942C42.2398 18.5151 41.2145 17.2657 40.609 15.8039C40.0035 14.3421 39.845 12.7336 40.1537 11.1817C40.4624 9.62986 41.2243 8.2044 42.3432 7.08558C43.462 5.96676 44.8874 5.20483 46.4393 4.89615C47.9911 4.58747 49.5997 4.74589 51.0615 5.3514C52.5233 5.9569 53.7727 6.98228 54.6518 8.29787C55.5308 9.61346 56 11.1602 56 12.7424C56 14.8642 55.1572 16.899 53.6569 18.3993C52.1566 19.8996 50.1217 20.7424 48 20.7424Z" fill="#121824"/>
<path d="M86.36 50.9724C85.6915 51.5114 84.8587 51.8053 84 51.8053C83.1413 51.8053 82.3085 51.5114 81.64 50.9724C81.4358 50.8027 81.1725 50.721 80.9081 50.7454C80.6437 50.7698 80.3997 50.8982 80.23 51.1024C80.0603 51.3066 79.9786 51.5699 80.003 51.8344C80.0274 52.0988 80.1558 52.3427 80.36 52.5124C81.3813 53.365 82.6696 53.8321 84 53.8321C85.3304 53.8321 86.6187 53.365 87.64 52.5124C87.8442 52.3427 87.9726 52.0988 87.997 51.8344C88.0214 51.5699 87.9397 51.3066 87.77 51.1024C87.686 51.0013 87.5828 50.9177 87.4665 50.8565C87.3501 50.7952 87.2229 50.7575 87.0919 50.7454C86.8275 50.721 86.5642 50.8027 86.36 50.9724ZM81 47.7424C81.1978 47.7424 81.3911 47.6838 81.5556 47.5739C81.72 47.464 81.8482 47.3078 81.9239 47.1251C81.9996 46.9424 82.0194 46.7413 81.9808 46.5473C81.9422 46.3534 81.847 46.1752 81.7071 46.0353C81.5673 45.8955 81.3891 45.8002 81.1951 45.7616C81.0011 45.7231 80.8 45.7429 80.6173 45.8186C80.4346 45.8942 80.2784 46.0224 80.1685 46.1869C80.0587 46.3513 80 46.5447 80 46.7424C80 47.0076 80.1054 47.262 80.2929 47.4495C80.4804 47.6371 80.7348 47.7424 81 47.7424ZM87 45.7424C86.8022 45.7424 86.6089 45.8011 86.4444 45.911C86.28 46.0208 86.1518 46.177 86.0761 46.3597C86.0004 46.5425 85.9806 46.7435 86.0192 46.9375C86.0578 47.1315 86.153 47.3097 86.2929 47.4495C86.4328 47.5894 86.6109 47.6846 86.8049 47.7232C86.9989 47.7618 87.2 47.742 87.3827 47.6663C87.5654 47.5906 87.7216 47.4625 87.8315 47.298C87.9414 47.1336 88 46.9402 88 46.7424C88 46.4772 87.8946 46.2229 87.7071 46.0353C87.5196 45.8478 87.2652 45.7424 87 45.7424ZM84 38.7424C82.0222 38.7424 80.0888 39.3289 78.4443 40.4277C76.7998 41.5265 75.5181 43.0883 74.7612 44.9156C74.0043 46.7429 73.8063 48.7535 74.1922 50.6933C74.578 52.6331 75.5304 54.415 76.9289 55.8135C78.3275 57.212 80.1093 58.1644 82.0491 58.5503C83.9889 58.9361 85.9996 58.7381 87.8268 57.9812C89.6541 57.2244 91.2159 55.9426 92.3147 54.2981C93.4135 52.6536 94 50.7202 94 48.7424C94 47.4292 93.7413 46.1289 93.2388 44.9156C92.7363 43.7023 91.9997 42.5999 91.0711 41.6714C90.1425 40.7428 89.0401 40.0062 87.8268 39.5036C86.6136 39.0011 85.3132 38.7424 84 38.7424ZM84 56.7424C82.4178 56.7424 80.871 56.2732 79.5554 55.3942C78.2398 54.5151 77.2145 53.2657 76.609 51.8039C76.0035 50.3421 75.845 48.7336 76.1537 47.1817C76.4624 45.6299 77.2243 44.2044 78.3432 43.0856C79.462 41.9668 80.8874 41.2048 82.4393 40.8961C83.9911 40.5875 85.5997 40.7459 87.0615 41.3514C88.5233 41.9569 89.7727 42.9823 90.6518 44.2979C91.5308 45.6135 92 47.1602 92 48.7424C92 50.8642 91.1572 52.899 89.6569 54.3993C88.1566 55.8996 86.1217 56.7424 84 56.7424Z" fill="#121824"/>
</svg>
