<svg width="15" height="16" viewBox="0 0 15 16" fill="none" xmlns="http://www.w3.org/2000/svg">
<path d="M13.9576 3.13524C13.894 3.05578 13.826 2.9795 13.7539 2.9067C13.8264 2.72493 13.8815 2.53741 13.9184 2.3464C14.0275 1.64765 13.9328 0.93412 13.6443 0.282149C13.6443 0.282149 12.7671 0.024117 10.7544 1.29953C9.89987 1.07743 9.01723 0.965822 8.13074 0.967775C7.24172 0.966308 6.35656 1.0779 5.49927 1.29953C3.48651 0.00937238 2.60936 0.282149 2.60936 0.282149C2.32434 0.927216 2.22964 1.63276 2.33524 2.32428C2.37241 2.52324 2.43011 2.7183 2.50754 2.9067C2.43706 2.98042 2.36657 3.06152 2.30392 3.13524C1.7195 3.82531 1.40927 4.68575 1.42676 5.56811C1.4249 5.77738 1.43536 5.98658 1.45809 6.19476C1.7087 9.4607 4.01907 10.2201 6.21979 10.456C5.90831 10.7286 5.6971 11.0875 5.61675 11.4807C5.54396 11.7429 5.5097 12.0133 5.51494 12.2843V13.2501C4.63856 13.3238 3.73948 13.2036 3.46067 12.4679C3.16138 11.7636 2.66502 11.1489 2.02432 10.6889C1.9775 10.6651 1.93295 10.6374 1.89118 10.6064C1.83492 10.4672 1.73525 10.3473 1.60525 10.2624C1.47526 10.1775 1.32103 10.1317 1.16283 10.1308H1.15891C0.95188 10.1308 0.753267 10.208 0.606506 10.3455C0.459744 10.4829 0.376774 10.6695 0.375739 10.8644C0.373389 11.463 1.01011 11.8501 1.27091 11.9813C1.57561 12.2703 1.82071 12.61 1.99378 12.9832C2.27886 13.7374 3.11294 14.8838 5.49144 14.7349L5.49301 14.8071L5.49614 15.0047C5.49614 15.2002 5.57865 15.3877 5.72553 15.526C5.8724 15.6643 6.0716 15.7419 6.27932 15.7419H9.9712C10.1789 15.7419 10.3781 15.6643 10.525 15.526C10.6719 15.3877 10.7544 15.2002 10.7544 15.0047C10.7544 15.0047 10.7606 12.675 10.7606 12.2843C10.7659 12.0133 10.7316 11.7429 10.6588 11.4807L10.6573 11.4763L10.6604 11.4807C10.6534 11.4549 10.6432 11.4343 10.6353 11.4092C10.5481 11.0439 10.3462 10.7118 10.0558 10.456L10.0652 10.4714L10.0495 10.4567C12.2502 10.2208 14.5449 9.44669 14.7956 6.1955C14.8183 5.98732 14.8287 5.77811 14.8269 5.56885C14.8408 4.68823 14.534 3.82967 13.9576 3.13598V3.13524Z" fill="white"/>
</svg>
