<svg width="74" height="74" viewBox="0 0 74 74" fill="none" xmlns="http://www.w3.org/2000/svg">
<rect width="74" height="74" rx="37" fill="#F0FDFB"/>
<path d="M43 46C44.6569 46 46 44.6569 46 43C46 41.3431 44.6569 40 43 40C41.3431 40 40 41.3431 40 43C40 44.6569 41.3431 46 43 46Z" stroke="#121824" stroke-width="2" stroke-linecap="round" stroke-linejoin="round"/>
<path d="M31 34V46" stroke="#121824" stroke-width="2" stroke-linecap="round" stroke-linejoin="round"/>
<path d="M38 31H41C41.5304 31 42.0391 31.2107 42.4142 31.5858C42.7893 31.9609 43 32.4696 43 33V40" stroke="#121824" stroke-width="2" stroke-linecap="round" stroke-linejoin="round"/>
<path d="M31 34C32.6569 34 34 32.6569 34 31C34 29.3431 32.6569 28 31 28C29.3431 28 28 29.3431 28 31C28 32.6569 29.3431 34 31 34Z" stroke="#121824" stroke-width="2" stroke-linecap="round" stroke-linejoin="round"/>
</svg>
