<svg width="25" height="24" viewBox="0 0 25 24" fill="none" xmlns="http://www.w3.org/2000/svg">
<path d="M22.46 6.52994L21.04 5.11994L22.46 3.70994C22.6483 3.52164 22.7541 3.26624 22.7541 2.99994C22.7541 2.73364 22.6483 2.47824 22.46 2.28994C22.2717 2.10164 22.0163 1.99585 21.75 1.99585C21.4837 1.99585 21.2283 2.10164 21.04 2.28994L10.5 12.8299C9.46601 12.1478 8.21564 11.8737 6.99114 12.0608C5.76664 12.248 4.65519 12.883 3.87216 13.8428C3.08913 14.8026 2.69026 16.0189 2.75285 17.2561C2.81544 18.4932 3.33503 19.6631 4.21093 20.539C5.08684 21.4149 6.2567 21.9345 7.49383 21.9971C8.73097 22.0597 9.94729 21.6608 10.9071 20.8778C11.867 20.0947 12.502 18.9833 12.6891 17.7588C12.8762 16.5343 12.6021 15.2839 11.92 14.2499L16.8 9.35994L18.21 10.7799C18.3034 10.8726 18.4142 10.9459 18.5361 10.9957C18.6579 11.0455 18.7884 11.0707 18.92 11.0699C19.0516 11.0707 19.182 11.0455 19.3039 10.9957C19.4257 10.9459 19.5365 10.8726 19.63 10.7799C19.7237 10.687 19.7981 10.5764 19.8489 10.4545C19.8996 10.3327 19.9258 10.202 19.9258 10.0699C19.9258 9.93793 19.8996 9.80722 19.8489 9.68537C19.7981 9.56351 19.7237 9.4529 19.63 9.35994L18.21 7.99994L19.63 6.57994L21.04 7.99994C21.1334 8.09262 21.2442 8.16595 21.3661 8.21571C21.4879 8.26548 21.6184 8.2907 21.75 8.28994C21.8816 8.2907 22.012 8.26548 22.1339 8.21571C22.2557 8.16595 22.3665 8.09262 22.46 7.99994C22.5615 7.9063 22.6425 7.79265 22.6979 7.66615C22.7533 7.53965 22.7819 7.40304 22.7819 7.26494C22.7819 7.12684 22.7533 6.99023 22.6979 6.86374C22.6425 6.73724 22.5615 6.62358 22.46 6.52994ZM7.74997 19.9999C7.15663 19.9999 6.57661 19.824 6.08326 19.4944C5.58992 19.1647 5.2054 18.6962 4.97834 18.148C4.75127 17.5998 4.69186 16.9966 4.80762 16.4147C4.92337 15.8327 5.2091 15.2982 5.62865 14.8786C6.04821 14.4591 6.58276 14.1733 7.1647 14.0576C7.74665 13.9418 8.34985 14.0012 8.89802 14.2283C9.4462 14.4554 9.91474 14.8399 10.2444 15.3332C10.574 15.8266 10.75 16.4066 10.75 16.9999C10.75 17.7956 10.4339 18.5587 9.87129 19.1213C9.30869 19.6839 8.54562 19.9999 7.74997 19.9999Z" fill="#121824"/>
</svg>
