<svg width="17" height="15" viewBox="0 0 17 15" fill="none" xmlns="http://www.w3.org/2000/svg">
<path fill-rule="evenodd" clip-rule="evenodd" d="M2.33796 3.58865H2.31689C1.21693 3.58865 0.508911 2.74998 0.508911 1.8186C0.508911 0.870358 1.238 0.0991211 2.35904 0.0991211C3.47585 0.0991211 4.1628 0.895644 4.18809 1.84389C4.18809 2.77527 3.47585 3.58865 2.33796 3.58865ZM1.03571 4.43134H3.9858V14.1245H1.03571V4.43134ZM12.4146 14.1245H16.2076V8.84382C16.2076 5.86845 14.3659 4.49034 12.2124 4.49034C10.476 4.49034 9.46456 5.43015 9.04312 6.0876V4.43134H5.78117C5.82331 5.27422 5.78117 14.1245 5.78117 14.1245H9.04312V8.98711C9.04312 8.69632 9.04733 8.40974 9.13583 8.20323C9.37184 7.62586 9.89443 7.02741 10.7963 7.02741C11.9806 7.02741 12.4146 7.91244 12.4146 9.21469V14.1245Z" fill="white"/>
</svg>
