<svg width="18" height="14" viewBox="0 0 18 14" fill="none" xmlns="http://www.w3.org/2000/svg">
<path d="M15.5471 0.0483398H2.06101C1.13384 0.0483398 0.375244 0.818786 0.375244 1.76044V12.0331C0.375244 12.9747 1.13384 13.7452 2.06101 13.7452H15.5471C16.4743 13.7452 17.2329 12.9747 17.2329 12.0331V1.76044C17.2329 0.818786 16.4743 0.0483398 15.5471 0.0483398ZM15.21 3.68656L9.69751 7.18781C9.14964 7.53879 8.45848 7.53879 7.9106 7.18781L2.39816 3.68656C2.31364 3.63837 2.23963 3.57327 2.1806 3.49519C2.12158 3.41711 2.07876 3.32768 2.05475 3.23231C2.03074 3.13694 2.02603 3.03762 2.04091 2.94034C2.05579 2.84307 2.08995 2.74988 2.14132 2.6664C2.19269 2.58293 2.2602 2.51091 2.33977 2.4547C2.41934 2.39849 2.50931 2.35926 2.60424 2.33939C2.69917 2.31952 2.79708 2.31942 2.89205 2.33909C2.98702 2.35876 3.07707 2.3978 3.15675 2.45384L8.80406 6.0407L14.4514 2.45384C14.531 2.3978 14.6211 2.35876 14.7161 2.33909C14.811 2.31942 14.909 2.31952 15.0039 2.33939C15.0988 2.35926 15.1888 2.39849 15.2683 2.4547C15.3479 2.51091 15.4154 2.58293 15.4668 2.6664C15.5182 2.74988 15.5523 2.84307 15.5672 2.94034C15.5821 3.03762 15.5774 3.13694 15.5534 3.23231C15.5294 3.32768 15.4865 3.41711 15.4275 3.49519C15.3685 3.57327 15.2945 3.63837 15.21 3.68656Z" fill="white"/>
</svg>
