<svg width="25" height="24" viewBox="0 0 25 24" fill="none" xmlns="http://www.w3.org/2000/svg">
<path d="M19.75 3H5.75C4.95435 3 4.19129 3.31607 3.62868 3.87868C3.06607 4.44129 2.75 5.20435 2.75 6V14C2.75 14.7956 3.06607 15.5587 3.62868 16.1213C4.19129 16.6839 4.95435 17 5.75 17H11.75V19H7.75C7.48478 19 7.23043 19.1054 7.04289 19.2929C6.85536 19.4804 6.75 19.7348 6.75 20C6.75 20.2652 6.85536 20.5196 7.04289 20.7071C7.23043 20.8946 7.48478 21 7.75 21H17.75C18.0152 21 18.2696 20.8946 18.4571 20.7071C18.6446 20.5196 18.75 20.2652 18.75 20C18.75 19.7348 18.6446 19.4804 18.4571 19.2929C18.2696 19.1054 18.0152 19 17.75 19H13.75V17H19.75C20.5456 17 21.3087 16.6839 21.8713 16.1213C22.4339 15.5587 22.75 14.7956 22.75 14V6C22.75 5.20435 22.4339 4.44129 21.8713 3.87868C21.3087 3.31607 20.5456 3 19.75 3ZM20.75 14C20.75 14.2652 20.6446 14.5196 20.4571 14.7071C20.2696 14.8946 20.0152 15 19.75 15H5.75C5.48478 15 5.23043 14.8946 5.04289 14.7071C4.85536 14.5196 4.75 14.2652 4.75 14V6C4.75 5.73478 4.85536 5.48043 5.04289 5.29289C5.23043 5.10536 5.48478 5 5.75 5H19.75C20.0152 5 20.2696 5.10536 20.4571 5.29289C20.6446 5.48043 20.75 5.73478 20.75 6V14Z" fill="#121824"/>
</svg>
