<svg width="32" height="33" viewBox="0 0 32 33" fill="none" xmlns="http://www.w3.org/2000/svg">
<path d="M27.3137 5.42868C24.2917 2.40674 20.2738 0.742432 16 0.742432C11.7262 0.742432 7.70831 2.40674 4.68625 5.42868C1.66431 8.45074 0 12.4687 0 16.7424C0 21.0162 1.66431 25.0341 4.68625 28.0562C7.70831 31.0781 11.7262 32.7424 16 32.7424C20.2738 32.7424 24.2917 31.0781 27.3137 28.0562C30.3357 25.0341 32 21.0162 32 16.7424C32 12.4687 30.3357 8.45074 27.3137 5.42868ZM28.9314 11.0414H26.1766C25.7759 9.66343 24.5161 8.64831 23.0178 8.61699C22.1559 6.37824 20.9628 4.50231 19.4891 3.04962C21.9272 3.66637 24.1632 4.92987 25.9879 6.75456C27.2445 8.01118 28.2349 9.46299 28.9314 11.0414ZM30.125 16.7424C30.125 18.0543 29.9469 19.3387 29.6031 20.5684H24.1636C24.4548 18.7604 24.5396 16.8779 24.4067 15.0091C25.2574 14.5976 25.9087 13.8378 26.1766 12.9164H29.6031C29.9469 14.1462 30.125 15.4306 30.125 16.7424ZM4.907 20.5684H2.39694C2.05306 19.3387 1.875 18.0543 1.875 16.7424C1.875 15.4306 2.05306 14.1462 2.39694 12.9164H7.83838C7.59137 14.4489 7.49162 16.0366 7.548 17.6221C6.24319 18.0967 5.23969 19.2026 4.907 20.5684ZM22.9468 13.4677C22.1259 13.4677 21.458 12.7998 21.458 11.9789C21.458 11.1581 22.1259 10.4902 22.9468 10.4902C23.7677 10.4902 24.4355 11.1581 24.4355 11.9789C24.4356 12.7999 23.7677 13.4677 22.9468 13.4677ZM19.717 11.0414H16.9375V3.33987C19.1104 4.90343 20.42 7.16287 21.1959 9.10806C20.4884 9.54106 19.9534 10.2283 19.717 11.0414ZM15.0625 3.34268V11.0414H10.1579C10.3666 10.2812 10.6176 9.54724 10.9096 8.84962C11.9019 6.47781 13.3217 4.60212 15.0625 3.34268ZM15.0625 12.9164V20.5684H13.0439C12.6314 18.8746 11.1868 17.5807 9.41625 17.3946C9.373 15.8797 9.48363 14.3674 9.73856 12.9164H15.0625ZM8.97544 19.2463C10.2508 19.2463 11.2884 20.2839 11.2884 21.5592C11.2884 22.8346 10.2508 23.8722 8.97544 23.8722C7.70012 23.8722 6.66256 22.8346 6.66256 21.5592C6.66256 20.2839 7.70012 19.2463 8.97544 19.2463ZM13.0686 22.4434H15.0625V30.1538C13.4066 28.9795 12.0881 27.3039 11.1263 25.151C12.1028 24.564 12.8211 23.5904 13.0686 22.4434ZM16.9375 30.1435V22.4434H21.8428C21.6685 23.0772 21.4649 23.6937 21.2318 24.2874C20.2342 26.8269 18.7654 28.8227 16.9375 30.1435ZM16.9375 20.5684V12.9164H19.7169C20.0881 14.1929 21.1963 15.158 22.5485 15.3183C22.6607 17.0903 22.5618 18.8698 22.2633 20.5684H16.9375V20.5684ZM6.01213 6.75456C7.83894 4.92768 10.0782 3.66318 12.5197 3.04731C11.1555 4.39362 10.0251 6.10562 9.17988 8.12593C8.79419 9.04774 8.47394 10.026 8.22112 11.0414H3.06856C3.76506 9.46299 4.7555 8.01118 6.01213 6.75456ZM3.06856 22.4434H4.88231C5.28937 24.3293 6.96956 25.7471 8.97544 25.7471C9.096 25.7471 9.215 25.7408 9.333 25.7308C10.1426 27.6007 11.1924 29.1691 12.4722 30.4251C10.0492 29.8048 7.82706 28.5452 6.01206 26.7302C4.7555 25.4737 3.76506 24.0219 3.06856 22.4434ZM25.9879 26.7303C24.1616 28.5566 21.9231 29.8209 19.4824 30.437C20.9325 29.0063 22.1164 27.1636 22.9769 24.9729C23.2948 24.1637 23.5632 23.3168 23.7809 22.4434H28.9314C28.2349 24.0219 27.2445 25.4737 25.9879 26.7303Z" fill="black"/>
</svg>
