<svg width="25" height="24" viewBox="0 0 25 24" fill="none" xmlns="http://www.w3.org/2000/svg">
<path d="M7.2417 14.502C7.11037 14.502 6.98032 14.5278 6.85898 14.5781C6.73764 14.6283 6.62739 14.702 6.53452 14.7948C6.44166 14.8877 6.368 14.998 6.31776 15.1193C6.26751 15.2406 6.24167 15.3707 6.2417 15.502V17.2843C4.95275 15.8266 4.24141 13.9479 4.2417 12.002C4.24152 11.7079 4.25913 11.4141 4.29443 11.1221C4.31062 10.9916 4.30089 10.8591 4.26579 10.7323C4.23069 10.6055 4.17092 10.4869 4.08989 10.3833C4.00887 10.2796 3.90818 10.193 3.79361 10.1283C3.67904 10.0636 3.55284 10.0222 3.42223 10.0064C3.29162 9.99061 3.15918 10.0007 3.03249 10.0362C2.90581 10.0717 2.78736 10.1318 2.68396 10.2131C2.58055 10.2945 2.49421 10.3954 2.42988 10.5102C2.36555 10.6249 2.3245 10.7513 2.30908 10.8819C2.26379 11.2536 2.24129 11.6276 2.2417 12.002C2.24306 14.3882 3.10066 16.6946 4.65857 18.502H3.2417C2.97649 18.502 2.72213 18.6074 2.5346 18.7949C2.34706 18.9825 2.2417 19.2368 2.2417 19.502C2.2417 19.7672 2.34706 20.0216 2.5346 20.2091C2.72213 20.3967 2.97649 20.502 3.2417 20.502H7.2417C7.3981 20.5001 7.55177 20.4608 7.6899 20.3874C7.82804 20.314 7.94664 20.2087 8.03583 20.0802C8.04749 20.0648 8.06238 20.0534 8.07324 20.0372C8.0799 20.0273 8.08008 20.0155 8.0863 20.0054C8.13396 19.9248 8.16967 19.8378 8.1923 19.7471C8.20711 19.6961 8.21762 19.6439 8.22373 19.5912C8.2266 19.5603 8.24173 19.5337 8.24173 19.5021V15.5021C8.24177 15.3707 8.21593 15.2407 8.16569 15.1193C8.11545 14.998 8.04179 14.8877 7.94892 14.7948C7.85605 14.702 7.74579 14.6283 7.62444 14.5781C7.5031 14.5278 7.37304 14.502 7.2417 14.502ZM8.7417 6.00203H6.95923C8.41704 4.71314 10.2958 4.0018 12.2417 4.00203C12.5356 4.00132 12.8293 4.01894 13.1211 4.05477C13.2515 4.07061 13.3838 4.0606 13.5103 4.02532C13.6369 3.99004 13.7553 3.93018 13.8587 3.84916C13.9621 3.76813 14.0486 3.66753 14.1131 3.55309C14.1777 3.43866 14.219 3.31263 14.2349 3.18221C14.2507 3.05178 14.2407 2.91952 14.2054 2.79296C14.1701 2.6664 14.1103 2.54803 14.0293 2.44461C13.9482 2.34119 13.8476 2.25473 13.7332 2.19019C13.6188 2.12565 13.4927 2.08427 13.3623 2.06844C12.9905 2.02358 12.6162 2.0014 12.2417 2.00203C9.85557 2.00332 7.54912 2.86086 5.74171 4.41872V3.00203C5.74171 2.73681 5.63635 2.48246 5.44881 2.29492C5.26128 2.10738 5.00692 2.00203 4.74171 2.00203C4.47649 2.00203 4.22213 2.10738 4.0346 2.29492C3.84706 2.48246 3.7417 2.73681 3.7417 3.00203V7.00203C3.74799 7.06812 3.76117 7.13338 3.78101 7.19674L3.78125 7.19796C3.80554 7.32101 3.85348 7.43818 3.92242 7.54296L3.93384 7.55986C3.99992 7.65596 4.08274 7.7394 4.17834 7.8062C4.18927 7.8142 4.1947 7.82646 4.20605 7.83409C4.22034 7.84355 4.23652 7.84655 4.25111 7.85521C4.30782 7.88932 4.36791 7.91748 4.43042 7.93921C4.51491 7.9686 4.60299 7.98638 4.69226 7.99206C4.70959 7.99298 4.72419 8.00206 4.74171 8.00206H8.7417C9.00692 8.00206 9.26128 7.8967 9.44881 7.70916C9.63635 7.52163 9.7417 7.26727 9.7417 7.00206C9.7417 6.73684 9.63635 6.48249 9.44881 6.29495C9.26128 6.10741 9.00692 6.00206 8.7417 6.00206V6.00203ZM20.7022 16.8061C20.6779 16.683 20.6299 16.5658 20.5609 16.461L20.5496 16.4442C20.4835 16.3481 20.4006 16.2646 20.3049 16.1978C20.294 16.1898 20.2886 16.1775 20.2773 16.1699C20.2665 16.1628 20.2537 16.1626 20.2427 16.1558C20.1159 16.0853 19.9769 16.0394 19.833 16.0204C19.8014 16.0174 19.7741 16.002 19.7417 16.002H15.7417C15.4765 16.002 15.2221 16.1073 15.0346 16.2949C14.8471 16.4824 14.7417 16.7368 14.7417 17.002C14.7417 17.2672 14.8471 17.5215 15.0346 17.7091C15.2221 17.8966 15.4765 18.002 15.7417 18.002H17.5241C16.0663 19.2909 14.1876 20.0022 12.2417 20.002C11.9477 20.0024 11.654 19.9844 11.3623 19.9483C11.0989 19.9163 10.8336 19.9902 10.6247 20.1539C10.4158 20.3175 10.2805 20.5574 10.2485 20.8208C10.2165 21.0842 10.2905 21.3496 10.4541 21.5584C10.6178 21.7673 10.8577 21.9026 11.1211 21.9346C11.4929 21.9794 11.8672 22.0019 12.2417 22.002C14.6278 22.0007 16.9343 21.1431 18.7417 19.5853V21.002C18.7417 21.2672 18.8471 21.5216 19.0346 21.7091C19.2221 21.8967 19.4765 22.002 19.7417 22.002C20.0069 22.002 20.2613 21.8967 20.4488 21.7091C20.6363 21.5216 20.7417 21.2672 20.7417 21.002V17.002C20.7354 16.9359 20.7222 16.8707 20.7024 16.8073L20.7022 16.8061ZM21.2417 5.50203C21.5069 5.50203 21.7613 5.39667 21.9488 5.20913C22.1363 5.0216 22.2417 4.76724 22.2417 4.50203C22.2417 4.23681 22.1363 3.98246 21.9488 3.79492C21.7613 3.60738 21.5069 3.50203 21.2417 3.50203H17.2417C17.1766 3.5083 17.1123 3.52127 17.0499 3.54073L17.0432 3.54207C16.9218 3.56636 16.8061 3.61373 16.7025 3.6816L16.6829 3.69484C16.5873 3.76081 16.5042 3.84338 16.4376 3.93862C16.4298 3.94942 16.4176 3.95473 16.4102 3.9659C16.403 3.97664 16.4028 3.98934 16.3961 4.00026C16.3247 4.12785 16.2784 4.26792 16.2597 4.41292C16.2568 4.44381 16.2417 4.47042 16.2417 4.50203V8.50203C16.2417 8.76724 16.3471 9.0216 16.5346 9.20913C16.7221 9.39667 16.9765 9.50203 17.2417 9.50203C17.5069 9.50203 17.7613 9.39667 17.9488 9.20913C18.1363 9.0216 18.2417 8.76724 18.2417 8.50203V6.71915C19.5306 8.17712 20.2419 10.056 20.2417 12.002C20.2419 12.2961 20.2243 12.5899 20.189 12.8819C20.1573 13.1451 20.2313 13.4101 20.3948 13.6188C20.5583 13.8276 20.7979 13.9629 21.061 13.9951C21.1016 13.9998 21.1423 14.0021 21.1831 14.002C21.4273 14.0017 21.6629 13.912 21.8455 13.7499C22.0281 13.5878 22.1451 13.3645 22.1743 13.1221C22.2196 12.7505 22.2421 12.3764 22.2417 12.002C22.2403 9.61585 21.3827 7.30939 19.8247 5.50203H21.2417Z" fill="#121824"/>
</svg>
