<svg width="25" height="24" viewBox="0 0 25 24" fill="none" xmlns="http://www.w3.org/2000/svg">
<path d="M18.25 21C19.9069 21 21.25 19.6569 21.25 18C21.25 16.3431 19.9069 15 18.25 15C16.5931 15 15.25 16.3431 15.25 18C15.25 19.6569 16.5931 21 18.25 21Z" stroke="#121824" stroke-width="2" stroke-linecap="round" stroke-linejoin="round"/>
<path d="M6.25 9V21" stroke="#121824" stroke-width="2" stroke-linecap="round" stroke-linejoin="round"/>
<path d="M13.25 6H16.25C16.7804 6 17.2891 6.21071 17.6642 6.58579C18.0393 6.96086 18.25 7.46957 18.25 8V15" stroke="#121824" stroke-width="2" stroke-linecap="round" stroke-linejoin="round"/>
<path d="M6.25 9C7.90685 9 9.25 7.65685 9.25 6C9.25 4.34315 7.90685 3 6.25 3C4.59315 3 3.25 4.34315 3.25 6C3.25 7.65685 4.59315 9 6.25 9Z" stroke="#121824" stroke-width="2" stroke-linecap="round" stroke-linejoin="round"/>
</svg>
