<svg width="100" height="80" viewBox="0 0 100 80" fill="none" xmlns="http://www.w3.org/2000/svg">
<path d="M29.3949 0C8.35741 21.8182 0 38.4 0 54.4C0 72.1455 10.6629 80 21.9021 80C34.0058 80 42.9395 70.9818 42.9395 59.6364C42.9395 47.7091 32.8531 38.9818 23.6312 41.0182C27.3776 32 34.0057 22.1091 43.804 11.9273L29.3949 0ZM79.827 41.0182C83.5734 32 90.2017 22.1091 100 11.9273L85.5907 0C64.5533 21.8182 56.196 38.4 56.196 54.4C56.196 72.1455 66.8587 80 78.0979 80C90.2017 80 99.1355 70.9818 99.1355 59.6364C99.1355 47.7091 89.0489 38.9818 79.827 41.0182Z" fill="#FFE7EE"/>
</svg>
