<svg width="25" height="24" viewBox="0 0 25 24" fill="none" xmlns="http://www.w3.org/2000/svg">
<path d="M21.75 7.54H17.21V3C17.21 2.73478 17.1046 2.48043 16.9171 2.29289C16.7296 2.10536 16.4752 2 16.21 2H3.75C3.48478 2 3.23043 2.10536 3.04289 2.29289C2.85536 2.48043 2.75 2.73478 2.75 3V15.46C2.75 15.7252 2.85536 15.9796 3.04289 16.1671C3.23043 16.3546 3.48478 16.46 3.75 16.46H8.29V21C8.29 21.2652 8.39536 21.5196 8.58289 21.7071C8.77043 21.8946 9.02478 22 9.29 22H21.75C22.0152 22 22.2696 21.8946 22.4571 21.7071C22.6446 21.5196 22.75 21.2652 22.75 21V8.54C22.75 8.27478 22.6446 8.02043 22.4571 7.83289C22.2696 7.64536 22.0152 7.54 21.75 7.54ZM20.75 20H10.29V15.46C10.29 15.1948 10.1846 14.9404 9.99711 14.7529C9.80957 14.5654 9.55522 14.46 9.29 14.46H4.75V4H15.21V8.54C15.21 8.80522 15.3154 9.05957 15.5029 9.24711C15.6904 9.43464 15.9448 9.54 16.21 9.54H20.75V20Z" fill="#121824"/>
</svg>
