<svg width="25" height="24" viewBox="0 0 25 24" fill="none" xmlns="http://www.w3.org/2000/svg">
<path d="M22.851 2.06199C22.8059 1.89071 22.7161 1.73447 22.5909 1.60923C22.4656 1.48398 22.3094 1.39422 22.1381 1.3491C20.0868 0.816284 17.9266 0.873671 15.9064 1.51465C13.8862 2.15562 12.0881 3.35413 10.7192 4.97216L9.60426 6.29599L6.99946 5.66751C6.3662 5.44673 5.67444 5.46256 5.05194 5.71205C4.42943 5.96155 3.91823 6.42787 3.61274 7.02489L1.41255 10.9248C1.33546 11.0614 1.29158 11.2142 1.28447 11.3709C1.27737 11.5276 1.30722 11.6838 1.37163 11.8268C1.43603 11.9698 1.53318 12.0957 1.65523 12.1942C1.77727 12.2927 1.92078 12.3612 2.07417 12.394L5.14692 13.0527C4.88663 13.845 4.70077 14.6599 4.59175 15.4868C4.57198 15.6387 4.58737 15.7931 4.63673 15.9381C4.68608 16.0831 4.76808 16.2149 4.87641 16.3232L7.97651 19.4233C8.06933 19.5162 8.17954 19.5899 8.30085 19.6401C8.42216 19.6904 8.55219 19.7163 8.68351 19.7163C8.71232 19.7163 8.74113 19.7148 8.77043 19.7124C9.61577 19.6364 10.4508 19.4722 11.262 19.2224L11.9057 22.2256C11.9386 22.3789 12.0071 22.5224 12.1056 22.6444C12.2042 22.7664 12.33 22.8635 12.473 22.9279C12.616 22.9923 12.7721 23.0221 12.9288 23.0151C13.0855 23.008 13.2383 22.9642 13.3749 22.8872L17.2802 20.6845C17.8298 20.3506 18.2592 19.8506 18.5063 19.2569C18.7534 18.6631 18.8056 18.0061 18.6552 17.3808L17.9865 14.6218L19.2235 13.4843C20.8476 12.1192 22.0507 10.321 22.6929 8.29894C23.3351 6.27686 23.3899 4.11401 22.851 2.06199ZM3.82222 10.7231L5.37837 7.96337C5.47502 7.77601 5.6397 7.63273 5.83862 7.56291C6.03754 7.49309 6.25564 7.50202 6.44819 7.58788L8.1656 8.00408L7.5156 8.77587C6.89936 9.51444 6.36637 10.3187 5.92628 11.174L3.82222 10.7231ZM16.2924 18.9453L13.5766 20.477L13.1471 18.4723C14.0177 18.0382 14.8289 17.4937 15.5605 16.8525L16.304 16.1688L16.7075 17.8334C16.7598 18.039 16.7481 18.2556 16.6739 18.4543C16.5997 18.653 16.4666 18.8243 16.2924 18.9453ZM17.9067 11.98L14.2221 15.3662C12.7637 16.6275 10.9647 17.4292 9.05171 17.6704L6.64741 15.2661C6.97033 13.3481 7.79912 11.551 9.04829 10.0601L10.7266 8.06743C10.7546 8.03818 10.7807 8.0072 10.8048 7.97467L12.2397 6.27099C13.3007 5.01788 14.6752 4.06879 16.2229 3.52063C17.7706 2.97247 19.4361 2.84487 21.0493 3.15087C21.3627 4.76908 21.2364 6.44173 20.6837 7.99459C20.131 9.54744 19.172 10.9237 17.9067 11.98ZM16.9837 5.81623C16.687 5.81623 16.397 5.9042 16.1503 6.06902C15.9037 6.23384 15.7114 6.46811 15.5979 6.7422C15.4843 7.01629 15.4546 7.31789 15.5125 7.60886C15.5704 7.89983 15.7132 8.16711 15.923 8.37688C16.1328 8.58666 16.4001 8.72953 16.6911 8.7874C16.982 8.84528 17.2836 8.81558 17.5577 8.70204C17.8318 8.58851 18.0661 8.39625 18.2309 8.14958C18.3957 7.90291 18.4837 7.6129 18.4837 7.31623C18.4837 7.11923 18.4449 6.92417 18.3695 6.74217C18.2942 6.56017 18.1837 6.39481 18.0444 6.25551C17.9051 6.11622 17.7397 6.00573 17.5577 5.93036C17.3757 5.85498 17.1806 5.81619 16.9836 5.81621L16.9837 5.81623Z" fill="#121824"/>
</svg>
