<svg width="32" height="33" viewBox="0 0 32 33" fill="none" xmlns="http://www.w3.org/2000/svg">
<path d="M16.0003 30.0758C23.3641 30.0758 29.3337 24.1062 29.3337 16.7425C29.3337 9.37866 23.3641 3.40912 16.0003 3.40912C8.63653 3.40912 2.66699 9.37866 2.66699 16.7425C2.66699 24.1062 8.63653 30.0758 16.0003 30.0758Z" stroke="#121824" stroke-width="2" stroke-linecap="round" stroke-linejoin="round"/>
<path d="M16 24.7424C20.4183 24.7424 24 21.1607 24 16.7424C24 12.3242 20.4183 8.74243 16 8.74243C11.5817 8.74243 8 12.3242 8 16.7424C8 21.1607 11.5817 24.7424 16 24.7424Z" stroke="#121824" stroke-width="2" stroke-linecap="round" stroke-linejoin="round"/>
<path d="M15.9997 19.4091C17.4724 19.4091 18.6663 18.2152 18.6663 16.7424C18.6663 15.2697 17.4724 14.0758 15.9997 14.0758C14.5269 14.0758 13.333 15.2697 13.333 16.7424C13.333 18.2152 14.5269 19.4091 15.9997 19.4091Z" stroke="#121824" stroke-width="2" stroke-linecap="round" stroke-linejoin="round"/>
<path d="M17.333 16.0758L29.333 3.40912" stroke="#121824" stroke-width="2"/>
</svg>
