<svg width="25" height="24" viewBox="0 0 25 24" fill="none" xmlns="http://www.w3.org/2000/svg">
<path d="M7.25 22H4.25C3.71957 22 3.21086 21.7893 2.83579 21.4142C2.46071 21.0391 2.25 20.5304 2.25 20V13C2.25 12.4696 2.46071 11.9609 2.83579 11.5858C3.21086 11.2107 3.71957 11 4.25 11H7.25M14.25 9V5C14.25 4.20435 13.9339 3.44129 13.3713 2.87868C12.8087 2.31607 12.0456 2 11.25 2L7.25 11V22H18.53C19.0123 22.0055 19.4804 21.8364 19.8479 21.524C20.2154 21.2116 20.4577 20.7769 20.53 20.3L21.91 11.3C21.9535 11.0134 21.9342 10.7207 21.8533 10.4423C21.7725 10.1638 21.6321 9.90629 21.4419 9.68751C21.2516 9.46873 21.0161 9.29393 20.7516 9.17522C20.4871 9.0565 20.1999 8.99672 19.91 9H14.25Z" stroke="#121824" stroke-width="2" stroke-linecap="round" stroke-linejoin="round"/>
</svg>
