<svg width="17" height="14" viewBox="0 0 17 14" fill="none" xmlns="http://www.w3.org/2000/svg">
<path fill-rule="evenodd" clip-rule="evenodd" d="M15.0835 3.60931C15.0877 3.7526 15.0919 3.89589 15.0919 4.03918C15.0919 8.42638 11.8342 13.4879 5.87925 13.4879C4.05019 13.4879 2.34757 12.9358 0.914673 11.996C1.16754 12.0255 1.42462 12.0423 1.68591 12.0423C3.2031 12.0423 4.60228 11.5113 5.71067 10.6221C4.29041 10.5926 3.09774 9.63591 2.68472 8.31681C2.8828 8.35474 3.08509 8.37581 3.2916 8.37581C3.59082 8.37581 3.91112 8.33366 4.18084 8.2578C2.69737 7.95437 1.61426 6.60997 1.61426 5.00007V4.96214C2.03571 5.20657 2.52036 5.35829 3.05138 5.37515C2.179 4.78092 1.59319 3.76103 1.59319 2.6105C1.59319 2.00362 1.74491 1.43046 2.02306 0.941592C3.62032 2.95186 6.00146 4.27097 8.69447 4.41005C8.63547 4.16561 8.60807 3.91275 8.60807 3.65567C8.60807 1.8224 10.0566 0.334717 11.8439 0.334717C12.7753 0.334717 13.6173 0.735086 14.2073 1.37989C14.9449 1.23239 15.636 0.958449 16.264 0.574938C16.0237 1.35039 15.5092 2.00362 14.8391 2.41242C15.4965 2.33235 16.1203 2.15534 16.6976 1.88983C16.2678 2.55571 15.7157 3.14151 15.0835 3.60931Z" fill="white"/>
</svg>
