<svg width="74" height="74" viewBox="0 0 74 74" fill="none" xmlns="http://www.w3.org/2000/svg">
<rect width="74" height="74" rx="37" fill="#FFE7EE"/>
<path d="M37 44C40.866 44 44 40.866 44 37C44 33.134 40.866 30 37 30C33.134 30 30 33.134 30 37C30 40.866 33.134 44 37 44Z" stroke="#121824" stroke-width="2" stroke-linecap="round" stroke-linejoin="round"/>
<path d="M37 34V37L38.5 38.5" stroke="#121824" stroke-width="2" stroke-linecap="round" stroke-linejoin="round"/>
<path d="M41.51 42.35L41.16 46.18C41.1149 46.6786 40.8845 47.1423 40.5142 47.4792C40.1439 47.8162 39.6607 48.002 39.16 48H34.83C34.3293 48.002 33.8461 47.8162 33.4758 47.4792C33.1055 47.1423 32.875 46.6786 32.83 46.18L32.48 42.35M32.49 31.65L32.84 27.82C32.8849 27.3231 33.1139 26.8609 33.4821 26.5242C33.8503 26.1874 34.331 26.0005 34.83 26H39.18C39.6807 25.998 40.1639 26.1838 40.5342 26.5208C40.9045 26.8577 41.1349 27.3214 41.18 27.82L41.53 31.65" stroke="#121824" stroke-width="2" stroke-linecap="round" stroke-linejoin="round"/>
</svg>
